<svg xmlns="http://www.w3.org/2000/svg" width="24" height="24" viewBox="0 0 24 24"><defs><style>.a{fill:none;}.b{fill:#3a435c;}</style></defs><g transform="translate(11186 7793)"><rect class="a" width="24" height="24" transform="translate(-11186 -7793)"/><g transform="translate(-11188.91 -7915.268)"><g transform="translate(5.91 122.268)"><g transform="translate(0.218 0.218)"><path class="b" d="M14.773,122.643a8.494,8.494,0,0,0-8.487,8.487c0,3.4,2.061,7.032,4.077,9.856a42.659,42.659,0,0,0,4.035,4.842.53.53,0,0,0,.75,0,42.659,42.659,0,0,0,4.035-4.842c2.016-2.824,4.076-6.452,4.076-9.856A8.494,8.494,0,0,0,14.773,122.643Zm0,1.061A7.417,7.417,0,0,1,22.2,131.13c0,2.962-1.917,6.493-3.878,9.239a34.164,34.164,0,0,1-3.548,4.258,34.166,34.166,0,0,1-3.545-4.258c-1.961-2.746-3.881-6.277-3.881-9.239A7.417,7.417,0,0,1,14.773,123.7Z" transform="translate(-6.176 -122.534)"/><path class="b" d="M14.757,146.075h0a.635.635,0,0,1-.452-.187,43.259,43.259,0,0,1-4.046-4.856c-2.721-3.806-4.1-7.144-4.1-9.918a8.6,8.6,0,0,1,17.193,0c0,2.776-1.379,6.113-4.1,9.918a43.468,43.468,0,0,1-4.045,4.857A.644.644,0,0,1,14.757,146.075Zm0-23.338a8.387,8.387,0,0,0-8.378,8.377c0,2.728,1.365,6.023,4.058,9.792a42.95,42.95,0,0,0,4.023,4.828.415.415,0,0,0,.3.123h0a.415.415,0,0,0,.3-.123,42.841,42.841,0,0,0,4.023-4.828c2.691-3.767,4.056-7.062,4.056-9.792A8.387,8.387,0,0,0,14.757,122.736Zm0,22.03-.118-.12a35.189,35.189,0,0,1-3.516-4.231c-1.457-2.039-3.9-5.958-3.9-9.3a7.535,7.535,0,0,1,15.07,0c0,3.345-2.443,7.263-3.9,9.3a35.165,35.165,0,0,1-3.516,4.229Zm0-20.969a7.325,7.325,0,0,0-7.317,7.317c0,3.282,2.419,7.158,3.86,9.175a34.919,34.919,0,0,0,3.457,4.166,34.939,34.939,0,0,0,3.459-4.166c1.441-2.016,3.858-5.891,3.858-9.175A7.325,7.325,0,0,0,14.757,123.8Z" transform="translate(-6.16 -122.518)"/></g><path class="b" d="M14.742,146.168h0a.734.734,0,0,1-.528-.219,43.079,43.079,0,0,1-4.059-4.869c-2.734-3.826-4.119-7.184-4.119-9.982a8.706,8.706,0,0,1,17.412,0c0,2.8-1.386,6.158-4.117,9.982a43.129,43.129,0,0,1-4.058,4.869A.74.74,0,0,1,14.742,146.168Zm0-23.338A8.278,8.278,0,0,0,6.472,131.1c0,2.706,1.359,5.978,4.037,9.728a42.957,42.957,0,0,0,4.013,4.815.308.308,0,0,0,.22.091h0a.31.31,0,0,0,.221-.091,43.119,43.119,0,0,0,4.012-4.815c2.677-3.748,4.035-7.021,4.035-9.728A8.278,8.278,0,0,0,14.741,122.83Zm0,22.076-.2-.2a35.327,35.327,0,0,1-3.528-4.244C9.228,137.96,7.1,134.3,7.1,131.1a7.644,7.644,0,0,1,15.289,0c0,3.376-2.456,7.316-3.919,9.365a35.29,35.29,0,0,1-3.528,4.242Zm0-21.015A7.216,7.216,0,0,0,7.533,131.1c0,3.252,2.406,7.1,3.84,9.111a35.072,35.072,0,0,0,3.368,4.073,35.018,35.018,0,0,0,3.37-4.073c1.434-2.006,3.838-5.858,3.838-9.111A7.216,7.216,0,0,0,14.741,123.89Z" transform="translate(-5.926 -122.284)"/><path class="b" d="M14.726,146.262h0a.845.845,0,0,1-.605-.252,43.257,43.257,0,0,1-4.07-4.883C7.3,137.284,5.91,133.9,5.91,131.082a8.815,8.815,0,0,1,17.63,0c0,2.823-1.393,6.2-4.138,10.045a43.394,43.394,0,0,1-4.069,4.884A.853.853,0,0,1,14.726,146.262Zm0-23.775a8.606,8.606,0,0,0-8.6,8.6c0,2.776,1.379,6.113,4.1,9.919a43.207,43.207,0,0,0,4.047,4.855.632.632,0,0,0,.451.187h0a.636.636,0,0,0,.453-.187A43.092,43.092,0,0,0,19.224,141c2.719-3.806,4.1-7.143,4.1-9.919A8.606,8.606,0,0,0,14.725,122.486Zm0,23.338a.419.419,0,0,1-.3-.122,43.18,43.18,0,0,1-4.023-4.829c-2.693-3.768-4.058-7.062-4.058-9.791a8.378,8.378,0,0,1,16.756,0c0,2.729-1.365,6.024-4.056,9.791a43.4,43.4,0,0,1-4.016,4.822A.424.424,0,0,1,14.726,145.825Zm0-22.9a8.168,8.168,0,0,0-8.16,8.159c0,2.683,1.352,5.934,4.017,9.665a42.4,42.4,0,0,0,4,4.8.2.2,0,0,0,.286,0,43.128,43.128,0,0,0,4-4.8c2.665-3.73,4.015-6.981,4.015-9.665A8.168,8.168,0,0,0,14.725,122.923Zm0,22.123-.273-.279a35.38,35.38,0,0,1-3.538-4.257c-1.8-2.515-3.942-6.194-3.942-9.428a7.754,7.754,0,0,1,15.507,0c0,3.406-2.468,7.369-3.94,9.428A35.317,35.317,0,0,1,15,144.767Zm0-21.5a7.544,7.544,0,0,0-7.535,7.535c0,3.176,2.121,6.811,3.9,9.3a35.232,35.232,0,0,0,3.516,4.23l.118.119.12-.121a35.168,35.168,0,0,0,3.516-4.228c1.456-2.039,3.9-5.957,3.9-9.3A7.544,7.544,0,0,0,14.725,123.547Zm0,20.876-.079-.08a35.254,35.254,0,0,1-3.378-4.086c-1.442-2.017-3.86-5.893-3.86-9.174a7.317,7.317,0,0,1,14.633,0c0,3.286-2.417,7.159-3.858,9.174a35.084,35.084,0,0,1-3.38,4.086Zm0-20.439a7.107,7.107,0,0,0-7.1,7.1c0,3.22,2.392,7.051,3.819,9.048a35.384,35.384,0,0,0,3.28,3.979,35.2,35.2,0,0,0,3.281-3.979c1.426-2,3.817-5.824,3.817-9.048A7.107,7.107,0,0,0,14.725,123.984Z" transform="translate(-5.91 -122.268)"/></g><g transform="translate(10.685 127.041)"><g transform="translate(0.218 0.218)"><path class="b" d="M15.463,128.106a3.714,3.714,0,1,0,3.714,3.714A3.721,3.721,0,0,0,15.463,128.106Zm0,1.061a2.653,2.653,0,1,1-2.651,2.652A2.644,2.644,0,0,1,15.463,129.167Z" transform="translate(-11.642 -127.997)"/><path class="b" d="M15.447,135.627A3.823,3.823,0,1,1,19.27,131.8,3.826,3.826,0,0,1,15.447,135.627Zm0-7.428a3.6,3.6,0,1,0,3.6,3.6A3.608,3.608,0,0,0,15.447,128.2Zm0,6.367a2.762,2.762,0,1,1,2.762-2.762A2.764,2.764,0,0,1,15.447,134.566Zm0-5.306A2.544,2.544,0,1,0,17.99,131.8,2.546,2.546,0,0,0,15.447,129.26Z" transform="translate(-11.626 -127.981)"/></g><path class="b" d="M15.432,135.721a3.932,3.932,0,1,1,3.932-3.932A3.936,3.936,0,0,1,15.432,135.721Zm0-7.428a3.5,3.5,0,1,0,3.5,3.5A3.5,3.5,0,0,0,15.432,128.293Zm0,6.367a2.872,2.872,0,1,1,2.871-2.872A2.874,2.874,0,0,1,15.432,134.66Zm0-5.306a2.435,2.435,0,1,0,2.434,2.435A2.436,2.436,0,0,0,15.432,129.353Z" transform="translate(-11.392 -127.747)"/><path class="b" d="M15.416,135.814a4.041,4.041,0,1,1,4.041-4.041A4.045,4.045,0,0,1,15.416,135.814Zm0-7.864a3.823,3.823,0,1,0,3.823,3.823A3.826,3.826,0,0,0,15.416,127.949Zm0,7.428a3.6,3.6,0,1,1,3.6-3.6A3.607,3.607,0,0,1,15.416,135.377Zm0-6.991a3.386,3.386,0,1,0,3.386,3.386A3.389,3.389,0,0,0,15.416,128.386Zm0,6.367a2.981,2.981,0,1,1,2.98-2.981A2.983,2.983,0,0,1,15.416,134.753Zm0-5.743a2.762,2.762,0,1,0,2.762,2.762A2.764,2.764,0,0,0,15.416,129.01Zm0,5.306a2.544,2.544,0,1,1,2.543-2.544A2.545,2.545,0,0,1,15.416,134.316Zm0-4.87a2.326,2.326,0,1,0,2.325,2.326A2.328,2.328,0,0,0,15.416,129.447Z" transform="translate(-11.376 -127.731)"/></g></g></g></svg>