<svg xmlns="http://www.w3.org/2000/svg" width="24" height="24" viewBox="0 0 24 24"><defs><style>.a{fill:none;}.b{fill:#3a435c;}</style></defs><g transform="translate(11302 7553)"><rect class="a" width="24" height="24" transform="translate(-11302 -7553)"/><g transform="translate(-11578.767 -7456.462)"><path class="b" d="M297.313-90.791l-4.533-4.532a2.852,2.852,0,0,0-2.031-.84h-7.627a3.979,3.979,0,0,0-3.979,3.979h0v15.476a3.979,3.979,0,0,0,3.979,3.979h11.054a3.979,3.979,0,0,0,3.979-3.979h0V-88.757A2.857,2.857,0,0,0,297.313-90.791Zm-.484,14.083a2.653,2.653,0,0,1-2.653,2.653H283.121a2.653,2.653,0,0,1-2.653-2.653V-92.184a2.653,2.653,0,0,1,2.653-2.653h7.627a1.555,1.555,0,0,1,1.094.453l4.533,4.532a1.547,1.547,0,0,1,.453,1.095Zm-4.384-11a3.282,3.282,0,0,1,0,4.641l0,0-4.161,4.157a1.894,1.894,0,0,1-1.352.561h0a1.911,1.911,0,0,1-1.911-1.911,1.911,1.911,0,0,1,.56-1.352l3.96-3.961a.663.663,0,0,1,.937-.007.663.663,0,0,1,.008.938l-.008.007-3.96,3.96a.587.587,0,0,0-.171.415.587.587,0,0,0,.584.585h0a.586.586,0,0,0,.415-.171L291.506-84a1.956,1.956,0,0,0,0-2.764,2.005,2.005,0,0,0-2.764,0l-3.677,3.673a.664.664,0,0,1-.938.033.663.663,0,0,1-.033-.937l.033-.033,3.675-3.676A3.361,3.361,0,0,1,292.444-87.707Z" transform="translate(-0.094 -0.094)"/><path class="b" d="M294.082-72.541H283.028a4.265,4.265,0,0,1-4.261-4.261V-92.277a4.265,4.265,0,0,1,4.261-4.261h7.639a3.152,3.152,0,0,1,2.219.922l4.532,4.531a3.159,3.159,0,0,1,.925,2.235V-76.8A4.266,4.266,0,0,1,294.082-72.541Zm-3.416-23.435h-7.639a3.7,3.7,0,0,0-3.7,3.7V-76.8a3.7,3.7,0,0,0,3.7,3.7h11.054a3.7,3.7,0,0,0,3.7-3.7V-88.851a2.588,2.588,0,0,0-.76-1.835h0l-4.533-4.532A2.578,2.578,0,0,0,290.666-95.976Zm3.416,22.107H283.028a2.938,2.938,0,0,1-2.934-2.934V-92.277a2.938,2.938,0,0,1,2.934-2.935h7.627a1.83,1.83,0,0,1,1.293.535l4.534,4.532a1.823,1.823,0,0,1,.535,1.294V-76.8A2.938,2.938,0,0,1,294.082-73.868ZM283.028-94.65a2.375,2.375,0,0,0-2.372,2.372V-76.8a2.374,2.374,0,0,0,2.372,2.372h11.054a2.374,2.374,0,0,0,2.372-2.372V-88.851a1.258,1.258,0,0,0-.371-.9l-4.533-4.531a1.267,1.267,0,0,0-.9-.372Zm3.815,16.491h-.006a2.2,2.2,0,0,1-2.192-2.193,2.178,2.178,0,0,1,.644-1.551l3.958-3.96a.944.944,0,0,1,1.334-.009.935.935,0,0,1,.282.666.942.942,0,0,1-.272.67l-3.967,3.969a.3.3,0,0,0-.089.215.315.315,0,0,0,.518.215l4.16-4.161a1.659,1.659,0,0,0,.49-1.182,1.659,1.659,0,0,0-.49-1.182,1.717,1.717,0,0,0-2.37,0l-3.673,3.668a.935.935,0,0,1-.651.293.978.978,0,0,1-.678-.253.937.937,0,0,1-.3-.658.935.935,0,0,1,.253-.677L287.509-88a3.641,3.641,0,0,1,5.037,0l0,0a3.567,3.567,0,0,1,.083,4.953v0l-.083.084L288.388-78.8A2.19,2.19,0,0,1,286.843-78.159Zm3.077-7.422a.384.384,0,0,0-.274.115l-3.96,3.961a1.618,1.618,0,0,0-.479,1.153,1.633,1.633,0,0,0,1.63,1.63h0a1.625,1.625,0,0,0,1.147-.477l4.163-4.161a3,3,0,0,0,0-4.24,3.075,3.075,0,0,0-4.253,0l-3.669,3.67a.4.4,0,0,0-.129.3.38.38,0,0,0,.121.266.351.351,0,0,0,.274.1.383.383,0,0,0,.267-.121l3.685-3.68a2.284,2.284,0,0,1,3.156,0,2.225,2.225,0,0,1,.659,1.585,2.221,2.221,0,0,1-.655,1.581l-4.159,4.161a.876.876,0,0,1-.614.253.871.871,0,0,1-.865-.864.863.863,0,0,1,.253-.616l3.959-3.96a.383.383,0,0,0,.116-.277.375.375,0,0,0-.114-.269A.38.38,0,0,0,289.92-85.581Z" transform="translate(0 0)"/></g></g></svg>