<svg xmlns="http://www.w3.org/2000/svg" width="24" height="24" viewBox="0 0 24 24"><defs><style>.a{fill:none;}.b{fill:#3a435c;}</style></defs><g transform="translate(-344 -583)"><rect class="a" width="24" height="24" transform="translate(344 583)"/><g transform="translate(251.625 580.501)"><g transform="translate(96.004 18.579)"><path class="b" d="M111.528,28.234H98.451A2.136,2.136,0,0,1,96.319,26.1V21.25a.672.672,0,1,1,1.343,0V26.1a.791.791,0,0,0,.789.79h13.076a.791.791,0,0,0,.789-.79v-4.74a.672.672,0,1,1,1.343,0V26.1A2.136,2.136,0,0,1,111.528,28.234Z" transform="translate(-96.207 -20.466)"/><path class="b" d="M111.515,28.333H98.438a2.248,2.248,0,0,1-2.244-2.245V21.237a.784.784,0,1,1,1.567,0v4.851a.678.678,0,0,0,.677.678h13.076a.678.678,0,0,0,.677-.678v-4.74a.784.784,0,1,1,1.567,0v4.74A2.248,2.248,0,0,1,111.515,28.333ZM96.978,20.677a.561.561,0,0,0-.56.56v4.851a2.024,2.024,0,0,0,2.021,2.021h13.076a2.024,2.024,0,0,0,2.021-2.021v-4.74a.56.56,0,1,0-1.12,0v4.74a.9.9,0,0,1-.9.9H98.438a.9.9,0,0,1-.9-.9V21.237A.56.56,0,0,0,96.978,20.677Z" transform="translate(-96.194 -20.453)"/></g><g transform="translate(94.375 12.92)"><g transform="translate(0 0)"><path class="b" d="M112.469,15.6a1.287,1.287,0,0,1,1.287,1.287v2.827H111.6A2.453,2.453,0,0,1,109,19.589l-.144-.1a2.458,2.458,0,0,0-2.8,0,2.459,2.459,0,0,1-2.8,0,2.459,2.459,0,0,0-2.8,0l-.09.064a2.46,2.46,0,0,1-2.673.083l-1.847-.017V16.89A1.287,1.287,0,0,1,97.13,15.6h15.338m0-1.343H97.13a2.633,2.633,0,0,0-2.63,2.63v2.729a1.344,1.344,0,0,0,1.331,1.343l1.522.013a3.8,3.8,0,0,0,3.777-.32l.091-.063a1.112,1.112,0,0,1,1.269,0,3.8,3.8,0,0,0,4.332,0,1.113,1.113,0,0,1,1.27,0l.144.1a3.8,3.8,0,0,0,3.668.368h1.852a1.343,1.343,0,0,0,1.343-1.343V16.89a2.633,2.633,0,0,0-2.63-2.63Z" transform="translate(-94.388 -14.148)"/><path class="b" d="M110.39,21.469a3.893,3.893,0,0,1-2.23-.7l-.145-.1a1.013,1.013,0,0,0-1.141,0,3.917,3.917,0,0,1-4.46,0,1.017,1.017,0,0,0-1.142,0l-.091.064a3.9,3.9,0,0,1-2.231.7,3.945,3.945,0,0,1-1.635-.358l-1.5-.013a1.461,1.461,0,0,1-1.442-1.455V16.877a2.745,2.745,0,0,1,2.742-2.742h15.338a2.745,2.745,0,0,1,2.742,2.742V19.7a1.456,1.456,0,0,1-1.455,1.455h-1.83A3.893,3.893,0,0,1,110.39,21.469Zm-2.946-1.2a1.219,1.219,0,0,1,.7.219l.144.1a3.723,3.723,0,0,0,3.56.356l.044-.009h1.852a1.233,1.233,0,0,0,1.231-1.231V16.877a2.521,2.521,0,0,0-2.518-2.518H97.117A2.521,2.521,0,0,0,94.6,16.877v2.729a1.235,1.235,0,0,0,1.22,1.231l1.567.024a3.734,3.734,0,0,0,1.563.348,3.675,3.675,0,0,0,2.1-.657l.092-.064a1.24,1.24,0,0,1,1.4,0,3.691,3.691,0,0,0,4.2,0A1.221,1.221,0,0,1,107.444,20.269Zm2.946-.143a2.568,2.568,0,0,1-1.465-.458l-.143-.1a2.382,2.382,0,0,0-2.673,0,2.571,2.571,0,0,1-2.929,0,2.382,2.382,0,0,0-2.673,0l-.091.063a2.571,2.571,0,0,1-2.768.1l-1.927-.018v-2.84a1.4,1.4,0,0,1,1.4-1.4h15.338a1.4,1.4,0,0,1,1.4,1.4v2.939h-2.244A2.58,2.58,0,0,1,110.39,20.126Zm-2.946-1.2a2.559,2.559,0,0,1,1.465.459l.143.1a2.386,2.386,0,0,0,2.476.123l.055-.014h2.048V16.877a1.176,1.176,0,0,0-1.175-1.175H97.117a1.176,1.176,0,0,0-1.175,1.175V19.5l1.767.016.026.015a2.38,2.38,0,0,0,2.552-.079l.09-.063a2.61,2.61,0,0,1,2.93,0,2.387,2.387,0,0,0,2.673,0A2.556,2.556,0,0,1,107.444,18.926Z" transform="translate(-94.375 -14.135)"/></g></g><g transform="translate(102.647 8.733)"><g transform="translate(0 0)"><path class="b" d="M106.665,14.916a.672.672,0,0,1-.672-.672V11.02a1.134,1.134,0,0,0-.914,0v3.223a.672.672,0,0,1-1.343,0v-3.6a.671.671,0,0,1,.251-.523,2.484,2.484,0,0,1,3.1,0,.673.673,0,0,1,.25.523v3.6A.672.672,0,0,1,106.665,14.916Z" transform="translate(-103.624 -9.472)"/><path class="b" d="M106.652,15.015a.785.785,0,0,1-.784-.784V11.083a1.035,1.035,0,0,0-.69,0v3.148a.784.784,0,0,1-1.567,0v-3.6a.781.781,0,0,1,.292-.611,2.6,2.6,0,0,1,3.24,0,.778.778,0,0,1,.292.61v3.6A.785.785,0,0,1,106.652,15.015ZM105.523,10.8a1.257,1.257,0,0,1,.5.1l.066.03v3.3a.56.56,0,1,0,1.12,0v-3.6A.555.555,0,0,0,107,10.2a2.375,2.375,0,0,0-2.959,0,.558.558,0,0,0-.209.436v3.6a.56.56,0,1,0,1.12,0v-3.3l.067-.03A1.25,1.25,0,0,1,105.523,10.8Z" transform="translate(-103.611 -9.459)"/></g></g><g transform="translate(102.626 2.499)"><path class="b" d="M105.6,3.52c1.667,3.531.466,3.778.1,3.778a.656.656,0,0,1-.1-.006.923.923,0,0,1-.155.012c-.467,0-1.711-.29.155-3.783m0-.9a.9.9,0,0,0-.79.474c-1.1,2.058-1.366,3.428-.837,4.309a1.663,1.663,0,0,0,1.472.792c.064,0,.121,0,.168-.007.026,0,.054,0,.084,0a1.581,1.581,0,0,0,1.365-.734c.542-.856.335-2.229-.653-4.321a.9.9,0,0,0-.787-.512Z" transform="translate(-103.6 -2.512)"/><path class="b" d="M105.432,8.3a1.771,1.771,0,0,1-1.567-.846c-.551-.918-.286-2.322.834-4.419a1.008,1.008,0,0,1,.888-.533h.015a1,1,0,0,1,.9.577c1.006,2.13,1.211,3.537.647,4.428a1.692,1.692,0,0,1-1.46.787c-.031,0-.063,0-.09,0A1.482,1.482,0,0,1,105.432,8.3Zm.155-5.686v.112a.783.783,0,0,0-.691.415c-1.079,2.02-1.346,3.354-.839,4.2a1.55,1.55,0,0,0,1.375.737c.062,0,.116,0,.161-.006h.092a1.473,1.473,0,0,0,1.271-.682c.519-.82.31-2.159-.661-4.214a.777.777,0,0,0-.688-.448ZM105.432,7.4a.9.9,0,0,1-.8-.411c-.363-.6-.075-1.795.855-3.537l.1-.2.1.2c.837,1.776,1.074,2.976.7,3.566a.835.835,0,0,1-.8.365A1.035,1.035,0,0,1,105.432,7.4Zm.149-3.642c-1,1.934-.969,2.762-.756,3.117a.673.673,0,0,0,.607.3.807.807,0,0,0,.134-.01l.019,0,.021,0a.623.623,0,0,0,.594-.262C106.419,6.559,106.483,5.731,105.581,3.759Z" transform="translate(-103.587 -2.499)"/></g></g></g></svg>