<svg xmlns="http://www.w3.org/2000/svg" width="24" height="24" viewBox="0 0 24 24"><defs><style>.a{fill:none;}.b{fill:#3a435c;}</style></defs><g transform="translate(-344 -583)"><rect class="a" width="24" height="24" transform="translate(344 583)"/><g transform="translate(253.896 461.93)"><g transform="translate(94.979 122.862)"><path class="b" d="M103.181,138.069a1.14,1.14,0,0,1-.8-.337c-.906-.855-1.814-1.737-2.72-2.591-.907-.882-1.84-1.762-2.746-2.643a1.028,1.028,0,0,1-.26-1.192,1.21,1.21,0,0,1,1.088-.752,1.063,1.063,0,0,1,.777.337c1.58,1.476,3.187,3.031,4.612,4.43,3.394-3.783,7.021-7.8,10.623-11.841a1.05,1.05,0,0,1,.8-.362,1.157,1.157,0,0,1,1.036.7,1.113,1.113,0,0,1-.207,1.218c-2.772,3.083-5.545,6.166-8.239,9.172l-2.643,2.928c-.078.1-.181.208-.259.311s-.181.181-.259.285A1.14,1.14,0,0,1,103.181,138.069Z" transform="translate(-96.563 -123.12)"/></g><g transform="translate(90.104 122.07)"><g transform="translate(0.377 0.377)"><path class="b" d="M109.219,134.23v6.955H92.457V124.424h15.1l1.731-1.854H91.716a1.112,1.112,0,0,0-1.112,1.112v18.245a1.112,1.112,0,0,0,1.112,1.112H109.96a1.112,1.112,0,0,0,1.112-1.112v-9.68Z" transform="translate(-90.604 -122.57)"/></g><path class="b" d="M109.838,143.293H91.593A1.49,1.49,0,0,1,90.1,141.8V123.559a1.491,1.491,0,0,1,1.489-1.489h18.435l-2.436,2.608H92.712v16.008H108.72v-6.726l2.608-2.792V141.8A1.49,1.49,0,0,1,109.838,143.293ZM91.593,122.825a.735.735,0,0,0-.734.734V141.8a.735.735,0,0,0,.734.734h18.245a.735.735,0,0,0,.734-.734v-8.724l-1.1,1.177v7.183H91.958V123.923h15.308l1.025-1.1Z" transform="translate(-90.104 -122.07)"/></g></g></g></svg>