<svg xmlns="http://www.w3.org/2000/svg" width="24.001" height="24" viewBox="0 0 24.001 24"><defs><style>.a{fill:none;}.b{fill:#3a435c;}</style></defs><g transform="translate(-343.999 -583)"><rect class="a" width="24" height="24" transform="translate(344 583)"/><g transform="translate(341.092 334.329)"><g transform="translate(2.907 248.671)"><path class="b" d="M3.032,256.2h0V251.32a.768.768,0,0,1,.755-.754H7.558v-1.045a.726.726,0,1,1,1.451,0v1.045H14v-1.045a.726.726,0,1,1,1.451,0v1.045h4.933v-1.045a.754.754,0,0,1,1.508,0v1.045h3.772a.719.719,0,0,1,.7.754V256.2h0v15.611a.719.719,0,0,1-.7.755H3.787a.768.768,0,0,1-.755-.755Zm18.86-4.178v1.1a.757.757,0,0,1-1.508,0v-1.1H15.451v1.1a.726.726,0,0,1-1.451,0v-1.1H9.009v1.1a.726.726,0,0,1-1.451,0v-1.1H4.483v3.423H24.91v-3.423Zm3.018,4.933H4.483v14.16H24.91Z" transform="translate(-2.92 -248.682)"/><path class="b" d="M25.652,272.662H3.773a.879.879,0,0,1-.866-.866V251.309a.878.878,0,0,1,.866-.866h3.66v-.933a.838.838,0,1,1,1.676,0v.933h4.766v-.933a.838.838,0,1,1,1.676,0v.933h4.708v-.933a.867.867,0,0,1,1.733,0v.933h3.66a.83.83,0,0,1,.809.866V271.8A.83.83,0,0,1,25.652,272.662ZM3.773,250.668a.659.659,0,0,0-.641.641V271.8a.658.658,0,0,0,.641.641H25.652a.608.608,0,0,0,.584-.641V251.309a.608.608,0,0,0-.584-.641H21.767V249.51a.642.642,0,0,0-1.284,0v1.158H15.326V249.51a.613.613,0,1,0-1.226,0v1.158H8.884V249.51a.613.613,0,1,0-1.226,0v1.158ZM25.01,271.211H4.358V256.826H25.01Zm-20.427-.225h20.2V257.051H4.583ZM25.01,255.543H4.358v-3.649h3.3v1.214a.614.614,0,0,0,1.226,0v-1.214H14.1v1.214a.614.614,0,0,0,1.226,0v-1.214h5.158v1.214a.645.645,0,0,0,1.284,0v-1.214H25.01Zm-20.427-.225h20.2v-3.2H21.992v.989a.87.87,0,0,1-1.733,0v-.989H15.551v.989a.839.839,0,0,1-1.676,0v-.989H9.109v.989a.839.839,0,0,1-1.676,0v-.989H4.583Z" transform="translate(-2.907 -248.671)"/></g><g transform="translate(11.974 259.521)"><path class="b" d="M15.487,270.3v-6.125H13.112v-1.445a4.544,4.544,0,0,0,.965-.074,2.519,2.519,0,0,0,.836-.31,2.034,2.034,0,0,0,.628-.587,2.077,2.077,0,0,0,.337-.9H17.4V270.3Z" transform="translate(-13 -260.746)"/><path class="b" d="M17.5,270.4H15.362v-6.125H12.987v-1.672l.115,0a4.36,4.36,0,0,0,.941-.072,2.425,2.425,0,0,0,.8-.3,1.875,1.875,0,0,0,.91-1.41l.015-.1H17.5Zm-1.916-.225h1.691v-9.22H15.961a2.135,2.135,0,0,1-.341.857,2.165,2.165,0,0,1-.661.618,2.659,2.659,0,0,1-.873.325,4.4,4.4,0,0,1-.873.077v1.218h2.375Z" transform="translate(-12.987 -260.733)"/></g></g></g></svg>