<svg xmlns="http://www.w3.org/2000/svg" width="24" height="24" viewBox="0 0 24 24"><defs><style>.a{fill:none;}.b{fill:#3a435c;}</style></defs><g transform="translate(11190 7957)"><rect class="a" width="24" height="24" transform="translate(-11190 -7957)"/><g transform="translate(-11101 -7832.498)"><g transform="translate(-76.436 -115.439)"><path class="b" d="M-71.552-113.137a.91.91,0,0,0-1.2-.453.91.91,0,0,0-.453,1.205l3.032,6.677v4.06a.909.909,0,0,0,.909.91.909.909,0,0,0,.91-.91v-4.3a.9.9,0,0,0-.165-.521Z" transform="translate(73.291 113.671)"/></g><g transform="translate(-69.916 -115.4)"><path class="b" d="M-60.762-113.54a.91.91,0,0,0-1.205.453l-3.025,6.662a.9.9,0,0,0-.146.49v4.3a.91.91,0,0,0,.91.91.911.911,0,0,0,.91-.91v-4.076l3.006-6.624A.908.908,0,0,0-60.762-113.54Z" transform="translate(65.138 113.622)"/></g><g transform="translate(-74.039 -121.931)"><path class="b" d="M-63.635-118.459a3.334,3.334,0,0,0-3.329-3.329,3.334,3.334,0,0,0-3.329,3.329,3.333,3.333,0,0,0,3.329,3.329A3.333,3.333,0,0,0-63.635-118.459Zm-3.329,1.664a1.665,1.665,0,0,1-1.664-1.664,1.665,1.665,0,0,1,1.664-1.664,1.665,1.665,0,0,1,1.664,1.664A1.666,1.666,0,0,1-66.964-116.795Z" transform="translate(70.294 121.788)"/></g><g transform="translate(-81.546 -115.464)"><path class="b" d="M-77.051-113.168a.909.909,0,0,0-1.2-.453.909.909,0,0,0-.452,1.2l2.5,5.51h-2.544a.9.9,0,0,0-.653.278.9.9,0,0,0-.277.652v4.3a.909.909,0,0,0,.91.909h.019a.91.91,0,0,0,.91-.909v-3.409h3a.907.907,0,0,0,.861-.626.9.9,0,0,0-.012-.718Z" transform="translate(79.68 113.702)"/></g><g transform="translate(-89 -115.464)"><path class="b" d="M-84.16-106.906H-86.7l2.5-5.51a.91.91,0,0,0-.453-1.205.911.911,0,0,0-1.2.453l-3.059,6.738a.907.907,0,0,0-.013.719.907.907,0,0,0,.861.626h3v3.408a.91.91,0,0,0,.91.91h.02a.909.909,0,0,0,.909-.91v-4.3a.9.9,0,0,0-.276-.652A.9.9,0,0,0-84.16-106.906Z" transform="translate(89 113.703)"/></g><g transform="translate(-85.707 -122.502)"><path class="b" d="M-78.226-119.173a3.333,3.333,0,0,0-3.329-3.329,3.333,3.333,0,0,0-3.329,3.329,3.333,3.333,0,0,0,3.329,3.329A3.332,3.332,0,0,0-78.226-119.173Zm-3.329,1.664a1.667,1.667,0,0,1-1.664-1.664,1.666,1.666,0,0,1,1.664-1.663,1.665,1.665,0,0,1,1.664,1.663A1.666,1.666,0,0,1-81.554-117.509Z" transform="translate(84.883 122.502)"/></g></g></g></svg>