<svg xmlns="http://www.w3.org/2000/svg" width="24" height="24" viewBox="0 0 24 24"><defs><style>.a{fill:none;}.b{fill:#3a435c;}</style></defs><g transform="translate(11186 7713)"><rect class="a" width="24" height="24" transform="translate(-11186 -7713)"/><g transform="translate(-11186.304 -7759.873)"><g transform="translate(6.205 52.762)"><path class="b" d="M13.038,56.189a2.658,2.658,0,0,1,1.118.886,2.356,2.356,0,0,1,.452,1.041,12.734,12.734,0,0,1,.083,1.743v5.3H12.282V59.667a2.425,2.425,0,0,0-.247-1.176,1.235,1.235,0,0,0-1.216-.63,1.67,1.67,0,0,0-1.409.625,2.88,2.88,0,0,0-.481,1.787v4.889H6.57V53H8.929v4.3a2.9,2.9,0,0,1,1.183-1.1,3.343,3.343,0,0,1,1.414-.31A3.818,3.818,0,0,1,13.038,56.189Z" transform="translate(-6.57 -53.002)"/><path class="b" d="M17.5,62.809a6.672,6.672,0,0,1,2.385-2.541A17.546,17.546,0,0,0,21.991,58.6a2.474,2.474,0,0,0,.737-1.723,1.9,1.9,0,0,0-.422-1.266,1.486,1.486,0,0,0-1.208-.5,1.474,1.474,0,0,0-1.465.8,3.983,3.983,0,0,0-.265,1.474H17.074a5.778,5.778,0,0,1,.556-2.475,3.457,3.457,0,0,1,3.355-1.8,4.26,4.26,0,0,1,3.034,1.056,3.651,3.651,0,0,1,1.126,2.793,3.779,3.779,0,0,1-.8,2.368,7.934,7.934,0,0,1-1.717,1.531l-.946.671q-.886.629-1.215.911a2.682,2.682,0,0,0-.55.654h5.24v2.078h-8.22A5.651,5.651,0,0,1,17.5,62.809Z" transform="translate(-7.173 -53.008)"/></g><g transform="translate(0.304 48.873)"><rect class="b" width="3" height="20" rx="1.225" transform="translate(0 0)"/></g></g></g></svg>