<svg xmlns="http://www.w3.org/2000/svg" width="24" height="24" viewBox="0 0 24 24"><defs><style>.a{fill:none;}.b,.c{fill:#3a435c;}.b{fill-rule:evenodd;}</style></defs><g transform="translate(11186 7873)"><rect class="a" width="24" height="24" transform="translate(-11186 -7873)"/><g transform="translate(-3 0.104)"><path class="b" d="M4.236,7.757a.805.805,0,0,0-.189.069,1.75,1.75,0,0,0-.361.258,1.75,1.75,0,0,0-.258.361.805.805,0,0,0-.069.189.593.593,0,0,0-.017.172v.756l7.834,5.052.017-.018.017.035,2.715,1.752L24.493,9.527V8.805a.653.653,0,0,0-.017-.172.7.7,0,0,0-.069-.172,1.789,1.789,0,0,0-.258-.378,1.832,1.832,0,0,0-.378-.258.805.805,0,0,0-.189-.069.593.593,0,0,0-.172-.017h-19A.593.593,0,0,0,4.236,7.757ZM3.343,20.265l6.7-4.828-6.7-4.33Zm.893,1.1a.653.653,0,0,0,.172.017h19a.293.293,0,0,0,.12-.017l-7.061-5.086-2.182,1.426c-.017,0-.017.017-.034.017a.664.664,0,0,1-.653,0c-.017,0-.017-.017-.034-.017l-2.337-1.512L4.1,21.313A1.179,1.179,0,0,1,4.236,21.365ZM24.493,20.3V11.09l-6.838,4.433,6.821,4.914A.338.338,0,0,0,24.493,20.3Zm1.254.481a2.123,2.123,0,0,1-.155.429,2.778,2.778,0,0,1-.532.739,2.54,2.54,0,0,1-.739.532,2.157,2.157,0,0,1-.429.155,2.433,2.433,0,0,1-.481.051h-19a2.433,2.433,0,0,1-.481-.051,4.267,4.267,0,0,1-.429-.155,2.8,2.8,0,0,1-.739-.532,2.716,2.716,0,0,1-.515-.739,1.94,1.94,0,0,1-.155-.446,2.159,2.159,0,0,1-.052-.464V10.06a.71.71,0,0,1-.017-.189.3.3,0,0,1,.017-.121V8.805a2.151,2.151,0,0,1,.052-.464A1.926,1.926,0,0,1,2.244,7.9a2.971,2.971,0,0,1,.515-.739A3,3,0,0,1,3.5,6.641a1.926,1.926,0,0,1,.446-.155,2.151,2.151,0,0,1,.464-.052h19a2.151,2.151,0,0,1,.463.052,1.926,1.926,0,0,1,.446.155,2.7,2.7,0,0,1,.739.515,2.751,2.751,0,0,1,.532.739,4.068,4.068,0,0,1,.155.429,2.247,2.247,0,0,1,.052.481V20.3A2.383,2.383,0,0,1,25.747,20.78Z" transform="translate(-11184.914 -7875.433)"/><path class="c" d="M23.392,22.776h-19a2.458,2.458,0,0,1-.5-.055,2.646,2.646,0,0,1-.333-.114l-.113-.044a2.909,2.909,0,0,1-.777-.556,2.755,2.755,0,0,1-.537-.773,1.982,1.982,0,0,1-.162-.464,2.3,2.3,0,0,1-.054-.488V10.041A.689.689,0,0,1,1.9,9.852a.453.453,0,0,1,.016-.14V8.787A2.274,2.274,0,0,1,1.967,8.3a2.013,2.013,0,0,1,.164-.472,3.134,3.134,0,0,1,.532-.763,3.153,3.153,0,0,1,.772-.54A2.087,2.087,0,0,1,3.9,6.364,2.236,2.236,0,0,1,4.39,6.31h19a2.249,2.249,0,0,1,.486.054,2.078,2.078,0,0,1,.471.163,2.756,2.756,0,0,1,.764.532,2.894,2.894,0,0,1,.556.77l.048.124a2.575,2.575,0,0,1,.114.327,2.35,2.35,0,0,1,.054.507V20.28a2.467,2.467,0,0,1-.054.5v.005a2.226,2.226,0,0,1-.162.452,2.9,2.9,0,0,1-.552.767,2.6,2.6,0,0,1-.767.552,2.229,2.229,0,0,1-.451.162A2.488,2.488,0,0,1,23.392,22.776ZM4.39,6.523a2.019,2.019,0,0,0-.44.048,1.825,1.825,0,0,0-.424.146,2.9,2.9,0,0,0-.714.5,2.872,2.872,0,0,0-.492.705,1.893,1.893,0,0,0-.147.425,2.063,2.063,0,0,0-.049.441l-.011.992a.349.349,0,0,0-.005.074.67.67,0,0,0,.013.163l0,10.265a2.091,2.091,0,0,0,.049.442,1.846,1.846,0,0,0,.146.42,2.557,2.557,0,0,0,.5.715,2.694,2.694,0,0,0,.708.509l.106.042a2.474,2.474,0,0,0,.3.105,2.264,2.264,0,0,0,.455.049h19a2.294,2.294,0,0,0,.46-.05,2,2,0,0,0,.4-.145,2.4,2.4,0,0,0,.709-.509,2.713,2.713,0,0,0,.515-.714,1.975,1.975,0,0,0,.146-.406,2.272,2.272,0,0,0,.048-.458V8.787a2.156,2.156,0,0,0-.048-.458,2.42,2.42,0,0,0-.1-.3l-.046-.118a2.673,2.673,0,0,0-.509-.7,2.564,2.564,0,0,0-.706-.493,1.859,1.859,0,0,0-.427-.148,2.033,2.033,0,0,0-.441-.048Zm19,14.947h-19a.738.738,0,0,1-.2-.02l-.024-.008a.773.773,0,0,0-.121-.045l-.2-.065,7.361-5.286,2.421,1.563a.552.552,0,0,0,.559,0l0,0a.114.114,0,0,1,.034-.02l2.228-1.456,7.266,5.235-.162.077A.392.392,0,0,1,23.392,21.469ZM4.318,21.255c.024,0,.048,0,.071,0H23.206l-6.759-4.868-2.149,1.4a.115.115,0,0,1-.03.012.745.745,0,0,1-.712.005h-.019l-.049-.035L11.214,16.3Zm9.17-3.485.009.007Zm.143-.156.009.006ZM24.5,20.578,17.448,15.5l.13-.083,7-4.54v9.4a.409.409,0,0,1-.029.185Zm-6.671-5.069,6.543,4.714V11.267ZM3.218,20.454v-9.56l7,4.52-.127.091Zm.213-9.17v8.755l6.4-4.615Zm10.478,5.2-.058-.037L3.218,9.6V8.787a.681.681,0,0,1,.022-.2.933.933,0,0,1,.074-.2,1.913,1.913,0,0,1,.278-.39,1.823,1.823,0,0,1,.384-.275.924.924,0,0,1,.211-.078.684.684,0,0,1,.2-.021h19a.678.678,0,0,1,.2.022.923.923,0,0,1,.2.075,1.916,1.916,0,0,1,.4.272,1.965,1.965,0,0,1,.283.411.617.617,0,0,1,.066.161l.009.026a.763.763,0,0,1,.022.2v.78l-.048.031Zm-2.634-1.953,2.634,1.7L24.368,9.451V8.787a.559.559,0,0,0-.014-.145l-.008-.022A.49.49,0,0,0,24.3,8.5a1.839,1.839,0,0,0-.25-.367,1.686,1.686,0,0,0-.344-.231.7.7,0,0,0-.168-.061.524.524,0,0,0-.145-.014h-19a.556.556,0,0,0-.139.011l-.007,0a.716.716,0,0,0-.167.06,1.607,1.607,0,0,0-.334.238,1.681,1.681,0,0,0-.241.338.745.745,0,0,0-.058.162.521.521,0,0,0-.014.145v.7l7.712,4.973.043-.045Z" transform="translate(-11184.896 -7875.415)"/></g></g></svg>