<svg xmlns="http://www.w3.org/2000/svg" width="32" height="24" viewBox="0 0 32 24"><defs><style>.a{fill:none;}.b{fill:#3a435c;}</style></defs><g transform="translate(-344 -587)"><rect class="a" width="32" height="24" transform="translate(344 587)"/><g transform="translate(344 589)"><g transform="translate(0 0)"><path class="b" d="M-88.928,26.039a.823.823,0,0,1-.822-.822v-4.3a5.129,5.129,0,0,1,5.123-5.124h4.3A5.13,5.13,0,0,1-75.2,20.916v4.3a.824.824,0,0,1-.823.822Zm4.3-8.6A3.482,3.482,0,0,0-88.1,20.916v3.477h11.255V20.916a3.482,3.482,0,0,0-3.477-3.477Zm12.9,5.375a.824.824,0,0,1-.823-.822.825.825,0,0,1,.823-.823h6.45a.825.825,0,0,1,.823.823.824.824,0,0,1-.823.822Zm0-4.3a.825.825,0,0,1-.823-.823.824.824,0,0,1,.823-.823h12.9A.824.824,0,0,1-58,17.69a.824.824,0,0,1-.823.823Zm0-4.3a.824.824,0,0,1-.823-.823.824.824,0,0,1,.823-.823h12.9A.824.824,0,0,1-58,13.39a.824.824,0,0,1-.823.823Zm-10.75,0a4.053,4.053,0,0,1-4.049-4.049,4.052,4.052,0,0,1,4.049-4.048,4.051,4.051,0,0,1,4.048,4.048A4.052,4.052,0,0,1-82.476,14.213Zm0-6.45a2.4,2.4,0,0,0-2.4,2.4,2.4,2.4,0,0,0,2.4,2.4,2.4,2.4,0,0,0,2.4-2.4A2.4,2.4,0,0,0-82.476,7.763Z" transform="translate(89.876 -5.991)"/><path class="b" d="M-76.026,26.166h-12.9a.95.95,0,0,1-.948-.949v-4.3a5.256,5.256,0,0,1,5.249-5.251h4.3a5.257,5.257,0,0,1,5.249,5.251v4.3A.95.95,0,0,1-76.026,26.166Zm-8.6-10.247a5,5,0,0,0-5,5v4.3a.7.7,0,0,0,.7.7h12.9a.7.7,0,0,0,.7-.7v-4.3a5,5,0,0,0-5-5Zm7.9,8.6H-88.229v-3.6a3.608,3.608,0,0,1,3.6-3.6h4.3a3.608,3.608,0,0,1,3.6,3.6Zm-11.255-.252h11v-3.35a3.356,3.356,0,0,0-3.351-3.352h-4.3a3.356,3.356,0,0,0-3.351,3.352Zm22.7-1.326h-6.45a.95.95,0,0,1-.949-.949.95.95,0,0,1,.949-.948h6.45a.95.95,0,0,1,.949.948A.95.95,0,0,1-65.275,22.941Zm-6.45-1.646a.7.7,0,0,0-.7.7.7.7,0,0,0,.7.7h6.45a.7.7,0,0,0,.7-.7.7.7,0,0,0-.7-.7Zm12.9-2.656h-12.9a.95.95,0,0,1-.949-.948.95.95,0,0,1,.949-.949h12.9a.95.95,0,0,1,.949.949A.95.95,0,0,1-58.824,18.64Zm-12.9-1.646a.7.7,0,0,0-.7.7.7.7,0,0,0,.7.7h12.9a.7.7,0,0,0,.7-.7.7.7,0,0,0-.7-.7Zm12.9-2.654h-12.9a.95.95,0,0,1-.949-.949.95.95,0,0,1,.949-.949h12.9a.951.951,0,0,1,.949.949A.95.95,0,0,1-58.824,14.34Zm-12.9-1.647a.7.7,0,0,0-.7.7.7.7,0,0,0,.7.7h12.9a.7.7,0,0,0,.7-.7.7.7,0,0,0-.7-.7Zm-10.75,1.647a4.179,4.179,0,0,1-4.175-4.175,4.179,4.179,0,0,1,4.175-4.174A4.179,4.179,0,0,1-78.3,10.166,4.179,4.179,0,0,1-82.475,14.34Zm0-8.1A3.926,3.926,0,0,0-86.4,10.166a3.927,3.927,0,0,0,3.923,3.923,3.926,3.926,0,0,0,3.922-3.923A3.925,3.925,0,0,0-82.475,6.244Zm0,6.449A2.531,2.531,0,0,1-85,10.166a2.531,2.531,0,0,1,2.529-2.528,2.53,2.53,0,0,1,2.528,2.528A2.53,2.53,0,0,1-82.475,12.693Zm0-4.8a2.279,2.279,0,0,0-2.277,2.276,2.279,2.279,0,0,0,2.277,2.276A2.278,2.278,0,0,0-80.2,10.166,2.278,2.278,0,0,0-82.475,7.89Z" transform="translate(89.875 -5.992)"/></g></g></g></svg>