<svg xmlns="http://www.w3.org/2000/svg" width="24" height="24" viewBox="0 0 24 24"><defs><style>.a{fill:none;}.b{fill:#3a435c;}</style></defs><g transform="translate(11302 7393)"><rect class="a" width="24" height="24" transform="translate(-11302 -7393)"/><g transform="translate(-11483.944 -7891.089)"><g transform="translate(186.371 499.089)"><path class="b" d="M204.995,500.167v5.809H188.938v-5.809a.825.825,0,1,0-1.629,0v6.795a.626.626,0,0,0,.644.644H205.98a.646.646,0,0,0,.644-.644v-6.795A.825.825,0,1,0,204.995,500.167Z" transform="translate(-187.204 -499.108)"/><path class="b" d="M205.96,507.69H187.933a.731.731,0,0,1-.748-.748v-6.794a.961.961,0,0,1,.921-1.058.87.87,0,0,1,.635.27,1.108,1.108,0,0,1,.284.788v5.7H204.87v-5.7a.962.962,0,0,1,.921-1.059.872.872,0,0,1,.636.27,1.11,1.11,0,0,1,.284.789v6.794A.75.75,0,0,1,205.96,507.69ZM188.106,499.3a.749.749,0,0,0-.71.847v6.794a.519.519,0,0,0,.537.537H205.96a.538.538,0,0,0,.539-.537v-6.794a.9.9,0,0,0-.226-.643.661.661,0,0,0-.483-.205.749.749,0,0,0-.71.848v5.914H188.814v-5.914a.906.906,0,0,0-.224-.642A.665.665,0,0,0,188.106,499.3Z" transform="translate(-187.185 -499.089)"/></g><g transform="translate(186.371 512.404)"><path class="b" d="M188.938,522.414v-5.809h16.056v5.809a.825.825,0,1,0,1.629,0v-6.794a.626.626,0,0,0-.644-.644H187.953a.646.646,0,0,0-.644.644v6.794A.825.825,0,1,0,188.938,522.414Z" transform="translate(-187.204 -514.871)"/><path class="b" d="M188.1,523.455a.871.871,0,0,1-.635-.271,1.11,1.11,0,0,1-.284-.789V515.6a.749.749,0,0,1,.748-.749H205.96a.733.733,0,0,1,.75.749v6.794a.962.962,0,0,1-.922,1.058.875.875,0,0,1-.635-.27,1.111,1.111,0,0,1-.283-.788v-5.7H189.025v5.7A.963.963,0,0,1,188.1,523.455Zm-.171-8.392a.538.538,0,0,0-.537.538v6.794a.9.9,0,0,0,.225.643.665.665,0,0,0,.483.206.75.75,0,0,0,.71-.849v-5.914h16.268v5.914a.905.905,0,0,0,.225.642.664.664,0,0,0,.482.205.75.75,0,0,0,.711-.847V515.6a.521.521,0,0,0-.539-.538Z" transform="translate(-187.185 -514.852)"/></g><g transform="translate(181.944 506.943)"><path class="b" d="M187.088,511.879a.447.447,0,0,0,0-.845l-4.413-2.548c-.4-.232-.731-.042-.731.422v5.1c0,.465.329.655.731.422Z" transform="translate(-181.944 -508.388)"/></g></g></g></svg>