<svg xmlns="http://www.w3.org/2000/svg" width="24" height="24" viewBox="0 0 24 24"><defs><style>.a{fill:none;}.b{fill:#3a435c;}</style></defs><g transform="translate(11186 7553)"><rect class="a" width="24" height="24" transform="translate(-11186 -7553)"/><g transform="translate(-11125.967 -7518.883)"><g transform="translate(-58.033 -34.117)"><path class="b" d="M-39.781-29.234c-6.084-.626-7.837-4.132-7.912-4.282a.823.823,0,0,0-.751-.476h0a.84.84,0,0,0-.751.476c-.1.15-1.877,3.656-7.962,4.282a.844.844,0,0,0-.751.851v6.135c0,7.211,8.688,11.768,9.064,11.968a1.041,1.041,0,0,0,.376.1.647.647,0,0,0,.375-.1c.376-.2,9.064-4.732,9.064-11.968v-6.159A.818.818,0,0,0-39.781-29.234Zm-.926,6.985c0,5.383-6.134,9.289-7.761,10.241-1.628-.951-7.762-4.832-7.762-10.241v-5.408a11.842,11.842,0,0,0,7.762-3.981,11.84,11.84,0,0,0,7.761,3.981Z" transform="translate(58.002 34.086)"/><path class="b" d="M-48.5-10.117a1.118,1.118,0,0,1-.411-.107c-.951-.5-9.123-5.044-9.123-12.055v-6.135a.937.937,0,0,1,.835-.944c5.352-.551,7.375-3.351,7.868-4.2.013-.022.021-.037.026-.045a.922.922,0,0,1,.83-.518.912.912,0,0,1,.836.528c.184.369,1.973,3.626,7.837,4.23h0a.91.91,0,0,1,.834.926v6.153c0,7.019-8.168,11.55-9.1,12.044A.764.764,0,0,1-48.5-10.117Zm.025-23.811a.747.747,0,0,0-.665.42l-.028.048c-.5.864-2.571,3.729-8.011,4.289a.75.75,0,0,0-.667.757v6.135c0,6.9,8.082,11.39,9,11.879a.978.978,0,0,0,.341.094.547.547,0,0,0,.319-.082l.026-.015c.921-.488,9-4.969,9-11.877v-6.159a.723.723,0,0,0-.667-.732c-5.962-.614-7.8-3.954-7.986-4.333A.73.73,0,0,0-48.474-33.928Zm-.025,22-.048-.028a22.412,22.412,0,0,1-4.511-3.464c-2.189-2.223-3.3-4.53-3.3-6.857v-5.49l.082-.012a11.755,11.755,0,0,0,7.7-3.948l.072-.088.072.088a11.755,11.755,0,0,0,7.7,3.948l.081.012v5.49c0,5.34-5.977,9.25-7.808,10.321Zm-7.668-15.675v5.326c0,1.322.553,5.952,7.668,10.131,1.863-1.1,7.667-4.936,7.667-10.131v-5.326A11.957,11.957,0,0,1-48.5-31.522,11.959,11.959,0,0,1-56.167-27.606Z" transform="translate(58.033 34.117)"/><g transform="translate(6.279 5.953)"><path class="b" d="M-49.716-22.976a3.251,3.251,0,0,0,2.4,3.129v6.034a.844.844,0,0,0,.852.852.844.844,0,0,0,.851-.852v-.951h1.052a.844.844,0,0,0,.852-.852.844.844,0,0,0-.852-.851H-45.61v-3.381a3.25,3.25,0,0,0,2.4-3.129,3.248,3.248,0,0,0-3.254-3.255A3.281,3.281,0,0,0-49.716-22.976Zm4.807,0a1.56,1.56,0,0,1-1.552,1.552,1.561,1.561,0,0,1-1.553-1.552,1.561,1.561,0,0,1,1.553-1.553A1.561,1.561,0,0,1-44.909-22.976Z" transform="translate(49.716 26.231)"/></g></g></g></g></svg>