<svg xmlns="http://www.w3.org/2000/svg" width="32.001" height="24" viewBox="0 0 32.001 24"><defs><style>.a{fill:none;}.b{fill:#3a435c;}</style></defs><g transform="translate(11186.001 7388.896)"><rect class="a" width="32" height="24" transform="translate(-11186 -7388.896)"/><g transform="translate(-11186.001 -7384.974)"><g transform="translate(0 0)"><path class="b" d="M271.8,17.342a1.99,1.99,0,0,0-.621-1.577,2.71,2.71,0,0,0-1.079-.531v-.988a2.944,2.944,0,0,0,1.12-.6,2.306,2.306,0,0,0,.58-1.724V9.736a2.993,2.993,0,0,1,.139-.874,2.5,2.5,0,0,1,.83-1.259,2.87,2.87,0,0,1,1.265-.563,6.854,6.854,0,0,1,1.263-.1V8.249a1.89,1.89,0,0,0-.917.391,1.835,1.835,0,0,0-.373,1.314v1.894a3.551,3.551,0,0,1-.246,1.452,3.133,3.133,0,0,1-1.634,1.469,3.071,3.071,0,0,1,1.483,1.044,3.143,3.143,0,0,1,.4,1.648v2.065a1.7,1.7,0,0,0,.438,1.306,2.1,2.1,0,0,0,.853.415v1.308l-.578-.016a3.456,3.456,0,0,1-2.043-.7A2.291,2.291,0,0,1,271.8,19.9Z" transform="translate(-270.104 -6.942)"/><g transform="translate(26.73)"><path class="b" d="M296.882,22.555V21.248a2.065,2.065,0,0,0,.859-.423,1.805,1.805,0,0,0,.433-1.3V17.461a2.708,2.708,0,0,1,.45-1.717,3.623,3.623,0,0,1,1.435-.975,3.422,3.422,0,0,1-1.48-1.188,3.293,3.293,0,0,1-.405-1.734V9.954a1.908,1.908,0,0,0-.29-1.232,1.8,1.8,0,0,0-1-.473V6.942a6.874,6.874,0,0,1,1.262.1,2.942,2.942,0,0,1,1.277.563,2.2,2.2,0,0,1,.762,1.046,3.4,3.4,0,0,1,.214,1.087v2.189a2.394,2.394,0,0,0,.531,1.716,3.034,3.034,0,0,0,1.168.6v.988a2.746,2.746,0,0,0-1.053.507,2,2,0,0,0-.646,1.6V19.9a2.314,2.314,0,0,1-.859,1.924,3.385,3.385,0,0,1-2.072.716Z" transform="translate(-296.882 -6.942)"/></g></g><g transform="translate(7.835 3.687)"><path class="b" d="M285.919,12.176v1.935h-7.966V12.176Zm0,3.435v1.935h-7.966V15.611Z" transform="translate(-277.953 -10.639)"/><path class="b" d="M290.759,13.968a3.343,3.343,0,0,0,.836-.184.631.631,0,0,0,.452-.6.707.707,0,0,0-.346-.681,2.193,2.193,0,0,0-1.018-.188,1.335,1.335,0,0,0-1.066.368,1.522,1.522,0,0,0-.3.736H287.3a3.075,3.075,0,0,1,.591-1.729,3.446,3.446,0,0,1,2.867-1.059,5.113,5.113,0,0,1,2.348.522,2,2,0,0,1,1.028,1.971v3.676c0,.256,0,.565.014.927a1.166,1.166,0,0,0,.125.559.755.755,0,0,0,.309.243v.308H292.3a2.215,2.215,0,0,1-.133-.456c-.025-.142-.044-.3-.059-.485a4.386,4.386,0,0,1-1.006.8,3.044,3.044,0,0,1-1.539.389,2.656,2.656,0,0,1-1.809-.622,2.209,2.209,0,0,1-.714-1.761,2.281,2.281,0,0,1,1.148-2.139,5.123,5.123,0,0,1,1.854-.516Zm1.282.978a2.37,2.37,0,0,1-.406.2,3.531,3.531,0,0,1-.564.143l-.476.088a3.148,3.148,0,0,0-.964.287.958.958,0,0,0-.5.889.931.931,0,0,0,.3.777,1.156,1.156,0,0,0,.736.239,2.191,2.191,0,0,0,1.266-.4,1.683,1.683,0,0,0,.6-1.448Z" transform="translate(-277.969 -10.636)"/></g></g></g></svg>