<svg xmlns="http://www.w3.org/2000/svg" width="24" height="24.736" viewBox="0 0 24 24.736"><defs><style>.a{fill:none;}.b{fill:#3a435c;}</style></defs><g transform="translate(-344 -583)"><rect class="a" width="24" height="24" transform="translate(344 583)"/><g transform="translate(251.875 461.314)"><g transform="translate(98.983 140.944)"><path class="b" d="M104.251,148.1h-2.315a1.751,1.751,0,0,1-1.749-1.749v-.508a1.751,1.751,0,0,1,1.749-1.749h2.315A1.751,1.751,0,0,1,106,145.848v.508A1.751,1.751,0,0,1,104.251,148.1Zm-2.315-2.71a.453.453,0,0,0-.453.453v.508a.453.453,0,0,0,.453.453h2.315a.453.453,0,0,0,.453-.453v-.508a.453.453,0,0,0-.453-.453Z" transform="translate(-100.079 -143.991)"/><path class="b" d="M104.234,148.2h-2.315a1.858,1.858,0,0,1-1.857-1.857v-.508a1.858,1.858,0,0,1,1.857-1.857h2.315a1.859,1.859,0,0,1,1.857,1.857v.508A1.859,1.859,0,0,1,104.234,148.2Zm-2.315-4.006a1.643,1.643,0,0,0-1.641,1.641v.508a1.643,1.643,0,0,0,1.641,1.641h2.315a1.643,1.643,0,0,0,1.641-1.641v-.508a1.643,1.643,0,0,0-1.641-1.641Zm2.315,2.71h-2.315a.561.561,0,0,1-.561-.561v-.508a.561.561,0,0,1,.561-.561h2.315a.561.561,0,0,1,.561.561v.508A.561.561,0,0,1,104.234,146.9Zm-2.315-1.414a.344.344,0,0,0-.345.345v.508a.344.344,0,0,0,.345.345h2.315a.345.345,0,0,0,.345-.345v-.508a.345.345,0,0,0-.345-.345Z" transform="translate(-100.062 -143.974)"/></g><g transform="translate(92.125 138.273)"><path class="b" d="M96.976,148.941H95.292a1.749,1.749,0,0,1-1.748-1.748v-.714c0-.108,0-.213.007-.312,0-.045,0-.1,0-.144a1.583,1.583,0,0,1-1.306-1.745v-1.521A1.749,1.749,0,0,1,94,141.009h2.978a1.751,1.751,0,0,1,1.749,1.749v4.435A1.751,1.751,0,0,1,96.976,148.941Zm-3.188-4.211a1.023,1.023,0,0,1,.766.3,1.511,1.511,0,0,1,.293,1.181c0,.086-.006.175-.006.269v.714a.452.452,0,0,0,.452.452h1.683a.453.453,0,0,0,.453-.453v-4.435a.453.453,0,0,0-.453-.453H94a.452.452,0,0,0-.452.452v1.521a.638.638,0,0,0,.125.456Z" transform="translate(-92.142 -140.9)"/><path class="b" d="M96.959,149.032H95.275a1.858,1.858,0,0,1-1.856-1.856v-.714c0-.109,0-.215.007-.315l0-.046a1.708,1.708,0,0,1-1.3-1.84V142.74a1.859,1.859,0,0,1,1.856-1.856h2.978a1.859,1.859,0,0,1,1.857,1.857v4.435A1.858,1.858,0,0,1,96.959,149.032Zm0-7.933H93.981a1.642,1.642,0,0,0-1.64,1.64v1.521a1.477,1.477,0,0,0,1.206,1.637l.1.008,0,.1c0,.05,0,.1,0,.147,0,.1-.007.2-.007.308v.714a1.642,1.642,0,0,0,1.64,1.64h1.683a1.643,1.643,0,0,0,1.641-1.641V142.74A1.643,1.643,0,0,0,96.959,141.1Zm0,6.637H95.275a.561.561,0,0,1-.56-.56v-.714c0-.079,0-.156.005-.229v-.043a1.41,1.41,0,0,0-.263-1.1.912.912,0,0,0-.686-.266l-.149,0-.029-.018a.714.714,0,0,1-.174-.547V142.74a.561.561,0,0,1,.56-.56h2.978a.561.561,0,0,1,.561.561v4.435A.561.561,0,0,1,96.959,147.736Zm-3.189-3.131h0a1.129,1.129,0,0,1,.843.332,1.616,1.616,0,0,1,.323,1.26l0,.043c0,.071,0,.146,0,.222v.714a.344.344,0,0,0,.344.344h1.683a.345.345,0,0,0,.345-.345V142.74a.345.345,0,0,0-.345-.345H93.981a.345.345,0,0,0-.344.344v1.521a.757.757,0,0,0,.067.346Z" transform="translate(-92.125 -140.883)"/></g><g transform="translate(96.332 129.009)"><path class="b" d="M109.829,141.938H101.3a1.749,1.749,0,0,1-1.748-1.748v-.549a.454.454,0,0,0-.454-.453h-.225a1.751,1.751,0,0,1-1.75-1.749v-.833a1.751,1.751,0,0,1,1.75-1.75h6.892a.454.454,0,0,0,.442-.355l.615-2.838a1.758,1.758,0,0,1,1.708-1.378h3.086a1.748,1.748,0,0,1,1.708,2.123l-1.783,8.154A1.761,1.761,0,0,1,109.829,141.938Zm-10.96-5.785a.454.454,0,0,0-.454.454v.833a.453.453,0,0,0,.454.453h.225a1.751,1.751,0,0,1,1.75,1.749v.549a.452.452,0,0,0,.452.452h8.534a.451.451,0,0,0,.443-.357l1.783-8.154a.452.452,0,0,0-.442-.549h-3.086a.447.447,0,0,0-.441.357l-.615,2.836a1.759,1.759,0,0,1-1.71,1.378Z" transform="translate(-97.011 -130.178)"/><path class="b" d="M109.812,142.029h-8.534a1.858,1.858,0,0,1-1.856-1.856v-.549a.345.345,0,0,0-.346-.345h-.225a1.859,1.859,0,0,1-1.858-1.857v-.833a1.859,1.859,0,0,1,1.858-1.858h6.892a.344.344,0,0,0,.337-.27l.615-2.838a1.866,1.866,0,0,1,1.814-1.463h3.086a1.857,1.857,0,0,1,1.814,2.255l-1.783,8.152A1.87,1.87,0,0,1,109.812,142.029Zm-10.96-7.081a1.644,1.644,0,0,0-1.642,1.642v.833a1.644,1.644,0,0,0,1.642,1.641h.225a.561.561,0,0,1,.562.561v.549a1.641,1.641,0,0,0,1.64,1.64h8.534a1.652,1.652,0,0,0,1.6-1.291l1.783-8.152a1.641,1.641,0,0,0-1.6-1.993h-3.086a1.649,1.649,0,0,0-1.6,1.293l-.615,2.838a.562.562,0,0,1-.548.441Zm10.96,5.785h-8.534a.561.561,0,0,1-.56-.56v-.549a1.644,1.644,0,0,0-1.642-1.641h-.225a.561.561,0,0,1-.562-.561v-.833a.562.562,0,0,1,.562-.562h6.892a1.65,1.65,0,0,0,1.6-1.293l.614-2.836a.556.556,0,0,1,.547-.442h3.086a.561.561,0,0,1,.548.68l-1.783,8.154A.558.558,0,0,1,109.812,140.733Zm-10.96-4.489a.346.346,0,0,0-.346.346v.833a.345.345,0,0,0,.346.345h.225a1.859,1.859,0,0,1,1.858,1.857v.549a.344.344,0,0,0,.344.344h8.534a.343.343,0,0,0,.338-.272l1.783-8.153a.34.34,0,0,0-.067-.288.344.344,0,0,0-.27-.13h-3.086a.34.34,0,0,0-.335.272l-.615,2.836a1.866,1.866,0,0,1-1.815,1.463Z" transform="translate(-96.994 -130.161)"/></g><g transform="translate(106.909 121.686)"><path class="b" d="M115.9,128.933h-4.786a1.75,1.75,0,0,1-1.719-2.078l.692-3.624a1.752,1.752,0,0,1,1.719-1.421h4.787a1.75,1.75,0,0,1,1.717,2.078l-.692,3.625A1.751,1.751,0,0,1,115.9,128.933Zm-4.094-5.826a.455.455,0,0,0-.446.368l-.692,3.625a.453.453,0,0,0,.446.537H115.9a.454.454,0,0,0,.445-.368l.692-3.623a.453.453,0,0,0-.1-.374.447.447,0,0,0-.348-.165Z" transform="translate(-109.252 -121.703)"/><path class="b" d="M115.88,129.025h-4.786a1.859,1.859,0,0,1-1.825-2.206l.692-3.624a1.861,1.861,0,0,1,1.825-1.509h4.787a1.858,1.858,0,0,1,1.823,2.206l-.692,3.626A1.86,1.86,0,0,1,115.88,129.025Zm-4.094-7.122a1.644,1.644,0,0,0-1.612,1.333l-.691,3.624a1.64,1.64,0,0,0,1.611,1.949h4.786a1.643,1.643,0,0,0,1.611-1.332l.692-3.626a1.643,1.643,0,0,0-1.611-1.949Zm4.094,5.826h-4.786a.563.563,0,0,1-.552-.666l.692-3.624a.563.563,0,0,1,.552-.456h4.787a.556.556,0,0,1,.432.2.562.562,0,0,1,.118.462l-.692,3.623A.563.563,0,0,1,115.88,127.728Zm-4.094-4.53a.345.345,0,0,0-.34.281l-.692,3.624a.345.345,0,0,0,.34.41h4.786a.346.346,0,0,0,.339-.281l.692-3.623a.345.345,0,0,0-.073-.285.339.339,0,0,0-.264-.125Z" transform="translate(-109.235 -121.686)"/></g></g></g></svg>