<svg xmlns="http://www.w3.org/2000/svg" width="24" height="24" viewBox="0 0 24 24"><defs><style>.a{fill:none;}.b{fill:#3a435c;}</style></defs><g transform="translate(11186 7793)"><rect class="a" width="24" height="24" transform="translate(-11186 -7793)"/><g transform="translate(-11239.119 -7793.3)"><g transform="translate(53.119 2.3)"><path class="b" d="M76.224,2.425H54.075a.927.927,0,0,0-.831,1V21.42a.927.927,0,0,0,.831,1H76.224a.927.927,0,0,0,.831-1V3.425A.927.927,0,0,0,76.224,2.425Zm-.83,2v7H64.733v-7Zm-20.487,0h8.164v16H54.906Zm20.487,16H64.733v-7H75.394Z" transform="translate(-53.151 -2.332)"/><path class="b" d="M76.192,22.481H54.043a1.021,1.021,0,0,1-.924-1.093V3.393A1.021,1.021,0,0,1,54.043,2.3H76.192a1.02,1.02,0,0,1,.924,1.093V21.388A1.02,1.02,0,0,1,76.192,22.481ZM54.043,2.486a.837.837,0,0,0-.738.907V21.388a.837.837,0,0,0,.738.907H76.192a.837.837,0,0,0,.738-.907V3.393a.837.837,0,0,0-.738-.907ZM75.455,20.481H64.609V13.3H75.455Zm-10.66-.186H75.269V13.483H64.795Zm-1.663.186h-8.35V4.3h8.35Zm-8.164-.186h7.978V4.485H54.967Zm20.487-8.811H64.609V4.3H75.455ZM64.795,11.3H75.269V4.485H64.795Z" transform="translate(-53.119 -2.3)"/></g><g transform="translate(66.538 5.401)"><path class="b" d="M72.83,10.393l1.831-1.831,1.831,1.831A.8.8,0,0,0,77.62,9.264l-2.395-2.4a.8.8,0,0,0-1.13,0L71.7,9.264a.8.8,0,0,0,1.129,1.129Z" transform="translate(-71.375 -6.543)"/><path class="b" d="M72.233,10.685a.89.89,0,0,1-.63-1.52L74,6.771a.894.894,0,0,1,1.26,0l2.4,2.4a.891.891,0,0,1-1.26,1.26L74.628,8.66l-1.766,1.766A.885.885,0,0,1,72.233,10.685ZM74.628,8.4l.066.065,1.831,1.831a.706.706,0,1,0,1-1l-2.4-2.4a.705.705,0,0,0-1,0L71.734,9.3a.706.706,0,1,0,1,1Z" transform="translate(-71.342 -6.511)"/></g><g transform="translate(66.538 14.927)"><path class="b" d="M76.491,19.806l-1.831,1.831L72.83,19.806A.8.8,0,1,0,71.7,20.935l2.395,2.4a.8.8,0,0,0,1.129,0l2.4-2.4a.8.8,0,1,0-1.129-1.129Z" transform="translate(-71.376 -19.481)"/><path class="b" d="M74.628,23.622a.889.889,0,0,1-.63-.259l-2.4-2.395a.891.891,0,0,1,1.259-1.261l1.766,1.766,1.765-1.766a.891.891,0,0,1,1.26,1.26l-2.4,2.4A.887.887,0,0,1,74.628,23.622Zm-2.395-3.99a.706.706,0,0,0-.5,1.205l2.395,2.395a.7.7,0,0,0,1,0l2.4-2.395a.706.706,0,1,0-1-1l-1.9,1.9-1.9-1.9A.7.7,0,0,0,72.233,19.632Z" transform="translate(-71.343 -19.448)"/></g></g></g></svg>