<svg xmlns="http://www.w3.org/2000/svg" width="24" height="24" viewBox="0 0 24 24"><defs><style>.a{fill:none;}.b{fill:#3a435c;}</style></defs><g transform="translate(11186 7633)"><rect class="a" width="24" height="24" transform="translate(-11186 -7633)"/><g transform="translate(-11186.624 -8004.162)"><g transform="translate(3.003 374.162)"><path class="b" d="M4.333,379.751H22.1a.636.636,0,0,0,.634-.634V374.8a.636.636,0,0,0-.634-.634H4.333a.636.636,0,0,0-.634.634v4.32A.617.617,0,0,0,4.333,379.751Zm.971-3.984h15.82v2.379H5.3Z" transform="translate(-3.699 -374.162)"/></g><g transform="translate(0.624 382.129)"><path class="b" d="M1.258,386.841H23.777a.636.636,0,0,0,.634-.634V385.1a.636.636,0,0,0-.634-.634H1.258a.636.636,0,0,0-.634.634v1.111a.636.636,0,0,0,.634.634Z" transform="translate(-0.624 -384.462)"/></g><g transform="translate(3.003 386.887)"><path class="b" d="M4.333,396.2H22.1a.636.636,0,0,0,.634-.634v-4.32a.636.636,0,0,0-.634-.634H4.333a.636.636,0,0,0-.634.634v4.32A.617.617,0,0,0,4.333,396.2Zm.971-3.984h15.82V394.6H5.3Z" transform="translate(-3.699 -390.613)"/></g></g></g></svg>