<svg xmlns="http://www.w3.org/2000/svg" width="24" height="24" viewBox="0 0 24 24"><defs><style>.a{fill:none;}.b{fill:#3a435c;}</style></defs><g transform="translate(-344 -583)"><rect class="a" width="24" height="24" transform="translate(344 583)"/><g transform="translate(344.15 583)"><path class="b" d="M26.148,11.335a1.117,1.117,0,0,0-.212-.212L11.7.322A1.128,1.128,0,0,0,10.979.1,1.094,1.094,0,0,0,9.941,1.2V22.8a1.095,1.095,0,0,0,1.755.872l14.239-10.8a1.094,1.094,0,0,0,.212-1.532ZM23.466,12l-11.337,8.6V3.4Z" transform="translate(-2.579 -0.101)"/><path class="b" d="M5.184.1H1.194A1.1,1.1,0,0,0,.1,1.195V22.8a1.1,1.1,0,0,0,1.094,1.094H5.184A1.1,1.1,0,0,0,6.278,22.8V1.195A1.1,1.1,0,0,0,5.184.1ZM4.09,2.288V21.7h-1.8V2.288Z" transform="translate(-0.1 -0.1)"/></g></g></svg>