<svg xmlns="http://www.w3.org/2000/svg" width="24" height="24" viewBox="0 0 24 24"><defs><style>.a{fill:none;}.b{fill:#3a435c;}</style></defs><g transform="translate(-344 -583)"><rect class="a" width="24" height="24" transform="translate(344 583)"/><g transform="translate(342.594 532.536)"><g transform="translate(8.019 55.598)"><path class="b" d="M13.359,59.3H13.25v-.289a1.878,1.878,0,0,0-.479-1.266,1.532,1.532,0,0,0-2.308,0,1.878,1.878,0,0,0-.479,1.266V59.3H9.875a.753.753,0,0,0-.716.784v2.2a.753.753,0,0,0,.716.784h3.484a.753.753,0,0,0,.716-.784v-2.2A.753.753,0,0,0,13.359,59.3Zm-2.667-.289a1.061,1.061,0,0,1,.271-.718.87.87,0,0,1,1.31,0,1.061,1.061,0,0,1,.271.718V59.3H10.691Zm1.423,2.134c0,.476-.223.862-.5.862s-.5-.386-.5-.862.223-.862.5-.862S12.114,60.667,12.114,61.142Z" transform="translate(-9.159 -57.218)"/></g><g transform="translate(4.406 50.465)"><path class="b" d="M19.364,74.385H7.236a2.833,2.833,0,0,1-2.83-2.83V53.3a2.833,2.833,0,0,1,2.83-2.829h9.369a.757.757,0,0,1,.537.223l4.829,4.829a.763.763,0,0,1,.223.537v15.5A2.833,2.833,0,0,1,19.364,74.385ZM7.236,51.986A1.311,1.311,0,0,0,5.926,53.3v18.26a1.311,1.311,0,0,0,1.31,1.31H19.364a1.311,1.311,0,0,0,1.31-1.31V56.37L16.29,51.986Z" transform="translate(-4.406 -50.466)"/></g><g transform="translate(15.655 50.464)"><path class="b" d="M24.971,57.07H19.965a.759.759,0,0,1-.76-.76V51.223a.76.76,0,0,1,1.3-.533l5.006,5.087a.76.76,0,0,1-.542,1.293Zm-4.246-1.52h2.432l-2.432-2.471Z" transform="translate(-19.205 -50.464)"/></g><g transform="translate(8.015 64.112)"><rect class="b" width="10.636" height="1.14" rx="0.57" transform="translate(0 0)"/></g><g transform="translate(8.015 66.758)"><rect class="b" width="10.636" height="1.14" rx="0.57" transform="translate(0)"/></g><g transform="translate(7.994 69.443)"><rect class="b" width="7.162" height="1.14" rx="0.57"/></g></g></g></svg>