<svg xmlns="http://www.w3.org/2000/svg" width="24" height="24" viewBox="0 0 24 24"><defs><style>.a{fill:none;}.b{fill:#3a435c;}</style></defs><g transform="translate(-344 -583)"><rect class="a" width="24" height="24" transform="translate(344 583)"/><g transform="translate(343.538 540.886)"><g transform="translate(6.301 48)"><path class="b" d="M12.963,49.735v1.08H11.139v5.02H9.855v-5.02H8.022v-1.08Z" transform="translate(-8.022 -49.735)"/></g><g transform="translate(0.462 42.114)"><g transform="translate(1.158 1.158)"><path class="b" d="M23.645,65.3H1.962V43.614H23.645ZM4.279,62.98H21.328V45.931H4.279Z" transform="translate(-1.962 -43.614)"/></g><g transform="translate(19.366)"><circle class="b" cx="2.317" cy="2.317" r="2.317"/></g><circle class="b" cx="2.5" cy="2.5" r="2.5" transform="translate(0 0)"/><g transform="translate(0 19.366)"><g transform="translate(19.366)"><circle class="b" cx="2.317" cy="2.317" r="2.317"/></g><circle class="b" cx="2.317" cy="2.317" r="2.317"/></g></g><g transform="translate(12.11 49.261)"><rect class="b" width="6.306" height="1.158" rx="0.579"/></g><g transform="translate(12.11 51.556)"><rect class="b" width="6.306" height="1.158" rx="0.579"/></g><g transform="translate(6.592 56.23)"><rect class="b" width="11.824" height="1.158" rx="0.459"/></g><g transform="translate(6.592 58.524)"><rect class="b" width="11.824" height="1.158" rx="0.459"/></g></g></g></svg>