<svg xmlns="http://www.w3.org/2000/svg" width="24" height="24" viewBox="0 0 24 24"><defs><style>.a{fill:none;}.b{fill:#3a435c;}</style></defs><g transform="translate(11186 7793)"><rect class="a" width="24" height="24" transform="translate(-11186 -7793)"/><g transform="translate(-11098.907 -8041.671)"><g transform="translate(-87.093 248.671)"><path class="b" d="M-86.968,256.2h0v-4.877a.768.768,0,0,1,.755-.754h3.773v-1.046a.726.726,0,1,1,1.451,0v1.046H-76v-1.046a.726.726,0,1,1,1.451,0v1.046h4.934v-1.046a.755.755,0,0,1,1.509,0v1.046h3.774a.719.719,0,0,1,.7.754V256.2h0v15.615a.719.719,0,0,1-.7.755H-86.213a.768.768,0,0,1-.755-.755Zm18.866-4.179v1.1a.757.757,0,0,1-1.509,0v-1.1h-4.934v1.1a.726.726,0,0,1-1.451,0v-1.1h-4.993v1.1a.726.726,0,0,1-1.451,0v-1.1h-3.076v3.424h20.433v-3.424Zm3.019,4.934H-85.517v14.164h20.433Z" transform="translate(87.08 -248.682)"/><path class="b" d="M-64.341,272.669H-86.226a.879.879,0,0,1-.867-.866V251.31a.878.878,0,0,1,.867-.866h3.66v-.933a.838.838,0,1,1,1.676,0v.933h4.768v-.933a.838.838,0,1,1,1.676,0v.933h4.709v-.933a.867.867,0,0,1,1.734,0v.933h3.661a.83.83,0,0,1,.809.866V271.8A.83.83,0,0,1-64.341,272.669Zm-21.884-22a.659.659,0,0,0-.642.642V271.8a.658.658,0,0,0,.642.642h21.884a.609.609,0,0,0,.584-.642V251.31a.608.608,0,0,0-.584-.642h-3.886V249.51a.609.609,0,0,0-.642-.627.609.609,0,0,0-.642.627v1.158H-74.67V249.51a.594.594,0,0,0-.614-.627.594.594,0,0,0-.613.627v1.158h-5.218V249.51a.594.594,0,0,0-.613-.627.594.594,0,0,0-.614.627v1.158Zm21.242,20.549H-85.642V256.828h20.658Zm-20.433-.225h20.208v-13.94H-85.417Zm20.433-15.448H-85.642v-3.65h3.3v1.215a.575.575,0,0,0,.614.585.575.575,0,0,0,.613-.585v-1.215H-75.9v1.215a.575.575,0,0,0,.613.585.576.576,0,0,0,.614-.585v-1.215h5.159v1.215a.592.592,0,0,0,.642.585.592.592,0,0,0,.642-.585v-1.215h3.244Zm-20.433-.225h20.208v-3.2H-68v.99a.87.87,0,0,1-1.734,0v-.99h-4.709v.99a.839.839,0,0,1-1.676,0v-.99h-4.768v.99a.839.839,0,0,1-1.676,0v-.99h-2.851Z" transform="translate(87.093 -248.671)"/></g><g transform="translate(-82.931 260.783)"><g transform="translate(0 0)"><path class="b" d="M-81.524,263.767a.757.757,0,1,1,0-1.509h9.366a.757.757,0,1,1,0,1.509Z" transform="translate(82.454 -262.146)"/><path class="b" d="M-72.17,263.868h-9.366a.87.87,0,0,1-.93-.867.87.87,0,0,1,.93-.867h9.366a.871.871,0,0,1,.931.867A.871.871,0,0,1-72.17,263.868Zm-9.366-1.51a.645.645,0,0,0-.705.642.646.646,0,0,0,.705.642h9.366a.647.647,0,0,0,.706-.642.646.646,0,0,0-.706-.642Z" transform="translate(82.467 -262.133)"/></g></g><g transform="translate(-82.931 266.007)"><g transform="translate(0 0)"><path class="b" d="M-81.524,269.574a.757.757,0,1,1,0-1.509h13.793a.755.755,0,1,1,0,1.509Z" transform="translate(82.454 -267.952)"/><path class="b" d="M-67.745,269.674H-81.537a.87.87,0,0,1-.93-.867.871.871,0,0,1,.93-.867h13.792a.847.847,0,0,1,.883.867A.847.847,0,0,1-67.745,269.674Zm-13.792-1.51a.646.646,0,0,0-.705.642.645.645,0,0,0,.705.642h13.792a.623.623,0,0,0,.658-.642.623.623,0,0,0-.658-.642Z" transform="translate(82.467 -267.939)"/></g></g></g></g></svg>