<svg id="コンポーネント_216_77" data-name="コンポーネント 216 – 77" xmlns="http://www.w3.org/2000/svg" xmlns:xlink="http://www.w3.org/1999/xlink" width="120" height="120" viewBox="0 0 120 120">
  <defs>
    <clipPath id="clip-path">
      <circle id="楕円形_658" data-name="楕円形 658" cx="60" cy="60" r="60" transform="translate(-19235 -18515)" fill="#6c707e"/>
    </clipPath>
    <clipPath id="clip-path-2">
      <rect id="長方形_22552" data-name="長方形 22552" width="89.685" height="103.345" fill="none"/>
    </clipPath>
  </defs>
  <g id="マスクグループ_209" data-name="マスクグループ 209" transform="translate(19235 18515)" clip-path="url(#clip-path)">
    <g id="グループ_27735" data-name="グループ 27735" transform="translate(-19219.844 -18497)">
      <g id="グループ_27734" data-name="グループ 27734" clip-path="url(#clip-path-2)">
        <path id="パス_81574" data-name="パス 81574" d="M44.773,0C27.367,0,17.067,18.028,17.867,38.6c.34,8.743,3.377,14.206,11.962,14.994,6.229.571,10.987-2.237,14.944-6.61,3.891,4.362,8.593,7.178,14.782,6.683,8.593-.688,11.692-6.115,12.13-14.854C72.716,18.252,63.477,0,44.773,0" fill="#1e1e1e"/>
        <path id="パス_81575" data-name="パス 81575" d="M52.723,55.262a27.06,27.06,0,0,1-.689-6.269H37.651a27.115,27.115,0,0,1-.689,6.269c-.477,1.416-2.809,2.522-5.378,3.529v9.393L44.842,79.463,58.108,68.184s-.007-6.053-.007-9.393c-2.569-1.007-4.9-2.113-5.378-3.529" fill="#ffbe94"/>
        <path id="パス_81576" data-name="パス 81576" d="M30.29,28.651c1.69,2.177,1.816,4.908.281,6.1s-4.15.392-5.84-1.785-1.816-4.908-.281-6.1,4.15-.392,5.84,1.785" fill="#ffbe94"/>
        <path id="パス_81577" data-name="パス 81577" d="M59.936,28.651c-1.69,2.177-1.816,4.908-.281,6.1s4.15.392,5.84-1.785,1.816-4.908.281-6.1-4.15-.392-5.84,1.785" fill="#ffbe94"/>
        <path id="パス_81578" data-name="パス 81578" d="M29.78,12.337V33.495c0,6.365,4.841,18.768,15.137,18.768s15.138-12.4,15.138-18.768V12.337Z" fill="#ffbe94"/>
        <path id="パス_81579" data-name="パス 81579" d="M52.723,55.262a23.052,23.052,0,0,1-.665-5.343,12.06,12.06,0,0,1-14.424-.1h0a28.922,28.922,0,0,0,20.308,8.908c-2.5-.99-4.749-2.079-5.216-3.465" fill="#ff9467"/>
        <path id="パス_81580" data-name="パス 81580" d="M62.491,20.058C60.118,24.174,50.968,26.535,43.1,25.49c-9.015-1.2-17.281-10.311-14.289-15.485S49.094,1.849,55.966,5.823s9.511,9.056,6.525,14.235" fill="#1e1e1e"/>
        <path id="パス_81581" data-name="パス 81581" d="M82.23,72.346c-3.73-8.894-13.182-10.331-19.9-12.188A43.476,43.476,0,0,1,58.1,58.791a13.405,13.405,0,0,1-26.517,0,43.566,43.566,0,0,1-4.231,1.367c-6.717,1.857-16.167,3.294-19.9,12.188C3.392,82.034.734,95.023,0,103.345H89.685c-.735-8.322-3.392-21.311-7.455-31" fill="#a09a88"/>
      </g>
    </g>
  </g>
</svg>
