<svg id="コンポーネント_214_77" data-name="コンポーネント 214 – 77" xmlns="http://www.w3.org/2000/svg" xmlns:xlink="http://www.w3.org/1999/xlink" width="120" height="120" viewBox="0 0 120 120">
  <defs>
    <clipPath id="clip-path">
      <circle id="楕円形_656" data-name="楕円形 656" cx="60" cy="60" r="60" transform="translate(-19235 -18515)" fill="#6c707e"/>
    </clipPath>
    <clipPath id="clip-path-2">
      <rect id="長方形_22544" data-name="長方形 22544" width="89.685" height="110.09" fill="none"/>
    </clipPath>
  </defs>
  <g id="マスクグループ_207" data-name="マスクグループ 207" transform="translate(19235 18515)" clip-path="url(#clip-path)">
    <g id="グループ_27728" data-name="グループ 27728" transform="translate(-19220 -18505.09)">
      <g id="グループ_27727" data-name="グループ 27727" clip-path="url(#clip-path-2)">
        <path id="パス_81550" data-name="パス 81550" d="M65.823,24.817A18.238,18.238,0,1,1,47.585,6.579,18.238,18.238,0,0,1,65.823,24.817" fill="#1e1e1e"/>
        <path id="パス_81551" data-name="パス 81551" d="M44.843,76.962A13.407,13.407,0,0,1,31.584,65.536,43.771,43.771,0,0,1,27.353,66.9C20.637,68.759,11.186,70.2,7.455,79.09,3.392,88.778.735,101.767,0,110.09H44.843Z" fill="#bcb6aa"/>
        <path id="パス_81552" data-name="パス 81552" d="M44.843,76.962A13.407,13.407,0,0,0,58.1,65.536,43.771,43.771,0,0,0,62.333,66.9C69.049,68.759,78.5,70.2,82.231,79.09c4.063,9.688,6.72,22.677,7.455,31H44.843Z" fill="#bcb6aa"/>
        <path id="パス_81553" data-name="パス 81553" d="M31.584,65.536V110.09H58.109V65.478Z" fill="#fff"/>
        <path id="パス_81554" data-name="パス 81554" d="M52.723,62.007a27.06,27.06,0,0,1-.689-6.269H37.651a27.115,27.115,0,0,1-.689,6.269c-.477,1.416-2.809,2.522-5.378,3.529v9.393L44.842,86.208,58.108,74.929s-.007-6.053-.007-9.393c-2.569-1.007-4.9-2.113-5.378-3.529" fill="#ffbe94"/>
        <path id="パス_81555" data-name="パス 81555" d="M61.2,25.134A18.255,18.255,0,1,1,42.944,6.879,18.255,18.255,0,0,1,61.2,25.134" fill="#1e1e1e"/>
        <path id="パス_81556" data-name="パス 81556" d="M30.29,35.4c1.69,2.177,1.816,4.908.281,6.1s-4.15.392-5.84-1.785-1.816-4.908-.281-6.1,4.15-.392,5.84,1.785" fill="#ffbe94"/>
        <path id="パス_81557" data-name="パス 81557" d="M59.936,35.4c-1.69,2.177-1.816,4.908-.281,6.1s4.15.392,5.84-1.785,1.816-4.908.281-6.1-4.15-.392-5.84,1.785" fill="#ffbe94"/>
        <path id="パス_81558" data-name="パス 81558" d="M29.78,16.151V40.24c0,6.365,4.841,18.768,15.137,18.768S60.055,46.6,60.055,40.24V16.151Z" fill="#ffbe94"/>
        <path id="パス_81559" data-name="パス 81559" d="M52.723,62.007a23.052,23.052,0,0,1-.665-5.343,12.06,12.06,0,0,1-14.424-.1h0a28.922,28.922,0,0,0,20.308,8.908c-2.5-.99-4.749-2.079-5.216-3.465" fill="#ff9467"/>
        <path id="パス_81560" data-name="パス 81560" d="M29.78,34.808s6.656-8.259,15.137-19.681C56,26.9,59.937,35.39,59.937,35.39s4.492-6.54,4.338-6.85c-.07-.141-2.5-11.983-2.5-11.983l-6.648-4.726H35.3l-7.792,5.33,1.081,14.908Z" fill="#1e1e1e"/>
        <path id="パス_81561" data-name="パス 81561" d="M52.316,8.076A8.076,8.076,0,1,1,44.24,0a8.076,8.076,0,0,1,8.076,8.076" fill="#1e1e1e"/>
        <path id="パス_81562" data-name="パス 81562" d="M49.231,32.16l.249-8.606,1.278,8.606,2.619-.651-.523-8.318,7.218,7.766s1.138-1.515,1.128-1.538c-.056-.124-2.8-9.162-2.8-9.162l-5.156-5.634H37.327L29.9,20.841V33.315l7.558-9.227L35.99,32.249Z" fill="#1e1e1e"/>
      </g>
    </g>
  </g>
</svg>
