<svg id="コンポーネント_215_77" data-name="コンポーネント 215 – 77" xmlns="http://www.w3.org/2000/svg" xmlns:xlink="http://www.w3.org/1999/xlink" width="120" height="120" viewBox="0 0 120 120">
  <defs>
    <clipPath id="clip-path">
      <circle id="楕円形_657" data-name="楕円形 657" cx="60" cy="60" r="60" transform="translate(-19235 -18515)" fill="#6c707e"/>
    </clipPath>
    <clipPath id="clip-path-2">
      <rect id="長方形_22545" data-name="長方形 22545" width="95.725" height="108.134" fill="none"/>
    </clipPath>
    <clipPath id="clip-path-3">
      <path id="パス_81573" data-name="パス 81573" d="M46.633,67.468,36.518,61.29l-3.143,2.29a44.148,44.148,0,0,1-4.232,1.367C22.427,66.8,10.732,68.615,7,77.509,2.938,87.2,2.525,99.812,1.79,108.134H91.476c-.735-8.322-1.147-20.938-5.211-30.625C82.535,68.615,70.839,66.8,64.123,64.947c-1.611-.447-3.018-.893-4.214-1.36l-.009-.065-3.29-2.238Z" fill="none"/>
    </clipPath>
  </defs>
  <g id="マスクグループ_208" data-name="マスクグループ 208" transform="translate(19235 18515)" clip-path="url(#clip-path)">
    <g id="グループ_27733" data-name="グループ 27733" transform="translate(-19221 -18502)">
      <g id="グループ_27730" data-name="グループ 27730">
        <g id="グループ_27729" data-name="グループ 27729" clip-path="url(#clip-path-2)">
          <path id="パス_81563" data-name="パス 81563" d="M69.675,24.081c0,15.814-12.852,15.046-23.136,15.046S24.611,42.515,24.611,22.651c0-16.718,17.468-29.568,33.1-18.54,7.265,1.561,11.967,9.88,11.967,19.97" fill="#1e1e1e"/>
          <path id="パス_81564" data-name="パス 81564" d="M42.079,39.975a6.452,6.452,0,1,1-6.453-6.453,6.453,6.453,0,0,1,6.453,6.453" fill="#1e1e1e"/>
          <path id="パス_81565" data-name="パス 81565" d="M64.161,39.975a6.453,6.453,0,1,1-6.453-6.453,6.453,6.453,0,0,1,6.453,6.453" fill="#1e1e1e"/>
          <path id="パス_81566" data-name="パス 81566" d="M54.514,60.051a27.06,27.06,0,0,1-.689-6.269H39.442a27.114,27.114,0,0,1-.689,6.269c-.477,1.416-2.809,2.522-5.378,3.529.213,3.309.336,5.36.784,9.393.4,3.585,5.344,6.017,12.474,6.017s12.077-2.432,12.475-6.017c.448-4.033.571-6.084.784-9.393-2.569-1.007-4.9-2.113-5.378-3.529" fill="#ffbe94"/>
          <path id="パス_81567" data-name="パス 81567" d="M32.081,33.44c1.69,2.177,1.816,4.908.281,6.1s-4.15.392-5.84-1.785-1.816-4.908-.281-6.1,4.15-.392,5.84,1.785" fill="#ffbe94"/>
          <path id="パス_81568" data-name="パス 81568" d="M61.727,33.44c-1.69,2.177-1.816,4.908-.281,6.1s4.15.392,5.84-1.785,1.816-4.908.281-6.1-4.15-.392-5.84,1.785" fill="#ffbe94"/>
          <path id="パス_81569" data-name="パス 81569" d="M31.57,17.126V38.284c0,6.365,4.841,18.768,15.137,18.768s15.138-12.4,15.138-18.768V17.126Z" fill="#ffbe94"/>
          <path id="パス_81570" data-name="パス 81570" d="M54.514,60.051a23.052,23.052,0,0,1-.665-5.343,12.06,12.06,0,0,1-14.424-.1h0A28.922,28.922,0,0,0,59.73,63.516c-2.5-.99-4.749-2.079-5.216-3.465" fill="#ff9467"/>
          <path id="パス_81571" data-name="パス 81571" d="M86.265,77.509C82.535,68.615,70.839,66.8,64.123,64.947a44.19,44.19,0,0,1-4.215-1.36l-.009-.064L56.61,61.284l-9.978,6.185L36.518,61.29l-3.144,2.29a43.841,43.841,0,0,1-4.231,1.367C22.427,66.8,10.731,68.615,7,77.509,2.937,87.2,2.525,99.812,1.79,108.134H91.475c-.735-8.322-1.147-20.937-5.21-30.625" fill="#bcb6aa"/>
          <path id="パス_81572" data-name="パス 81572" d="M30.544,16.076l13.774-5.495L62.082,14.3s5.295,14.976,1.552,13.924-9-9.144-9-9.144C53.352,23.084,44.48,26.044,39.421,26.5a14.631,14.631,0,0,0,2.657-7.826c-3.795,6.607-14.344,7.756-14.344,7.756Z" fill="#1e1e1e"/>
        </g>
      </g>
      <g id="グループ_27732" data-name="グループ 27732">
        <g id="グループ_27731" data-name="グループ 27731" clip-path="url(#clip-path-3)">
          <rect id="長方形_22546" data-name="長方形 22546" width="95.725" height="1.361" transform="translate(0 101.828)" fill="#fff"/>
          <rect id="長方形_22547" data-name="長方形 22547" width="95.725" height="1.361" transform="translate(0 95.899)" fill="#fff"/>
          <rect id="長方形_22548" data-name="長方形 22548" width="95.725" height="1.361" transform="translate(0 89.97)" fill="#fff"/>
          <rect id="長方形_22549" data-name="長方形 22549" width="95.725" height="1.361" transform="translate(0 84.04)" fill="#fff"/>
          <rect id="長方形_22550" data-name="長方形 22550" width="95.725" height="1.361" transform="translate(0 78.111)" fill="#fff"/>
          <rect id="長方形_22551" data-name="長方形 22551" width="95.725" height="1.361" transform="translate(0 72.182)" fill="#fff"/>
        </g>
      </g>
    </g>
  </g>
</svg>
