<svg id="コンポーネント_213_77" data-name="コンポーネント 213 – 77" xmlns="http://www.w3.org/2000/svg" xmlns:xlink="http://www.w3.org/1999/xlink" width="120" height="120" viewBox="0 0 120 120">
  <defs>
    <clipPath id="clip-path">
      <circle id="楕円形_655" data-name="楕円形 655" cx="60" cy="60" r="60" transform="translate(-19235 -18515)" fill="#6c707e"/>
    </clipPath>
    <clipPath id="clip-path-2">
      <rect id="長方形_22542" data-name="長方形 22542" width="155.883" height="118.122" transform="translate(0 0)" fill="none"/>
    </clipPath>
    <clipPath id="clip-path-3">
      <path id="パス_81341" data-name="パス 81341" d="M57.351,63.678c-6.716,1.857-18.412,3.669-22.142,12.562-4.064,9.688-4.476,22.3-5.21,30.626H74.841V73.739A13.407,13.407,0,0,1,61.583,62.312a43.887,43.887,0,0,1-4.232,1.366" fill="none"/>
    </clipPath>
    <clipPath id="clip-path-4">
      <path id="パス_81542" data-name="パス 81542" d="M74.841,73.739v33.127h44.843c-.735-8.323-1.148-20.938-5.211-30.626-3.73-8.893-15.426-10.7-22.142-12.562A43.887,43.887,0,0,1,88.1,62.312,13.407,13.407,0,0,1,74.841,73.739" fill="none"/>
    </clipPath>
  </defs>
  <g id="マスクグループ_206" data-name="マスクグループ 206" transform="translate(19235 18515)" clip-path="url(#clip-path)">
    <g id="グループ_27726" data-name="グループ 27726" transform="translate(-19250 -18500)">
      <g id="グループ_27719" data-name="グループ 27719">
        <g id="グループ_27718" data-name="グループ 27718" clip-path="url(#clip-path-2)">
          <path id="パス_81109" data-name="パス 81109" d="M74.841,73.738A13.407,13.407,0,0,0,88.1,62.312a43.77,43.77,0,0,0,4.231,1.366c6.716,1.857,18.412,3.668,22.142,12.562,4.064,9.688,4.476,22.3,5.211,30.626H74.841Z" fill="#a09a88"/>
          <path id="パス_81110" data-name="パス 81110" d="M74.841,73.738A13.407,13.407,0,0,1,61.582,62.312a43.77,43.77,0,0,1-4.231,1.366c-6.716,1.857-18.412,3.668-22.142,12.562-4.064,9.688-4.476,22.3-5.211,30.626H74.841Z" fill="#a09a88"/>
        </g>
      </g>
      <g id="グループ_27721" data-name="グループ 27721">
        <g id="グループ_27720" data-name="グループ 27720" clip-path="url(#clip-path-3)">
          <path id="パス_81111" data-name="パス 81111" d="M31.863,50.146a.712.712,0,1,1-.712-.712.712.712,0,0,1,.712.712" fill="#fff"/>
          <path id="パス_81112" data-name="パス 81112" d="M35.915,50.146a.712.712,0,1,1-.712-.712.712.712,0,0,1,.712.712" fill="#fff"/>
          <path id="パス_81113" data-name="パス 81113" d="M39.967,50.146a.712.712,0,1,1-.712-.712.712.712,0,0,1,.712.712" fill="#fff"/>
          <path id="パス_81114" data-name="パス 81114" d="M44.019,50.146a.712.712,0,1,1-.712-.712.712.712,0,0,1,.712.712" fill="#fff"/>
          <path id="パス_81115" data-name="パス 81115" d="M48.071,50.146a.712.712,0,1,1-.712-.712.712.712,0,0,1,.712.712" fill="#fff"/>
          <path id="パス_81116" data-name="パス 81116" d="M52.123,50.146a.712.712,0,1,1-.712-.712.712.712,0,0,1,.712.712" fill="#fff"/>
          <path id="パス_81117" data-name="パス 81117" d="M56.175,50.146a.712.712,0,1,1-.712-.712.712.712,0,0,1,.712.712" fill="#fff"/>
          <path id="パス_81118" data-name="パス 81118" d="M60.227,50.146a.712.712,0,1,1-.712-.712.712.712,0,0,1,.712.712" fill="#fff"/>
          <path id="パス_81119" data-name="パス 81119" d="M64.279,50.146a.712.712,0,1,1-.712-.712.712.712,0,0,1,.712.712" fill="#fff"/>
          <path id="パス_81120" data-name="パス 81120" d="M68.331,50.146a.712.712,0,1,1-.712-.712.712.712,0,0,1,.712.712" fill="#fff"/>
          <path id="パス_81121" data-name="パス 81121" d="M72.383,50.146a.712.712,0,1,1-.712-.712.712.712,0,0,1,.712.712" fill="#fff"/>
          <path id="パス_81122" data-name="パス 81122" d="M76.435,50.146a.712.712,0,1,1-.712-.712.712.712,0,0,1,.712.712" fill="#fff"/>
          <path id="パス_81123" data-name="パス 81123" d="M33.84,52.937a.712.712,0,1,1-.712-.712.712.712,0,0,1,.712.712" fill="#fff"/>
          <path id="パス_81124" data-name="パス 81124" d="M37.892,52.937a.712.712,0,1,1-.712-.712.712.712,0,0,1,.712.712" fill="#fff"/>
          <path id="パス_81125" data-name="パス 81125" d="M41.944,52.937a.712.712,0,1,1-.712-.712.712.712,0,0,1,.712.712" fill="#fff"/>
          <path id="パス_81126" data-name="パス 81126" d="M46,52.937a.712.712,0,1,1-.712-.712.712.712,0,0,1,.712.712" fill="#fff"/>
          <path id="パス_81127" data-name="パス 81127" d="M50.048,52.937a.712.712,0,1,1-.712-.712.712.712,0,0,1,.712.712" fill="#fff"/>
          <path id="パス_81128" data-name="パス 81128" d="M54.1,52.937a.712.712,0,1,1-.712-.712.712.712,0,0,1,.712.712" fill="#fff"/>
          <path id="パス_81129" data-name="パス 81129" d="M58.152,52.937a.712.712,0,1,1-.712-.712.712.712,0,0,1,.712.712" fill="#fff"/>
          <path id="パス_81130" data-name="パス 81130" d="M62.2,52.937a.712.712,0,1,1-.712-.712.712.712,0,0,1,.712.712" fill="#fff"/>
          <path id="パス_81131" data-name="パス 81131" d="M66.256,52.937a.712.712,0,1,1-.712-.712.712.712,0,0,1,.712.712" fill="#fff"/>
          <path id="パス_81132" data-name="パス 81132" d="M70.308,52.937a.712.712,0,1,1-.712-.712.712.712,0,0,1,.712.712" fill="#fff"/>
          <path id="パス_81133" data-name="パス 81133" d="M74.36,52.937a.712.712,0,1,1-.712-.712.712.712,0,0,1,.712.712" fill="#fff"/>
          <path id="パス_81134" data-name="パス 81134" d="M31.863,56.007a.712.712,0,1,1-.712-.712.712.712,0,0,1,.712.712" fill="#fff"/>
          <path id="パス_81135" data-name="パス 81135" d="M35.915,56.007a.712.712,0,1,1-.712-.712.712.712,0,0,1,.712.712" fill="#fff"/>
          <path id="パス_81136" data-name="パス 81136" d="M39.967,56.007a.712.712,0,1,1-.712-.712.712.712,0,0,1,.712.712" fill="#fff"/>
          <path id="パス_81137" data-name="パス 81137" d="M44.019,56.007a.712.712,0,1,1-.712-.712.712.712,0,0,1,.712.712" fill="#fff"/>
          <path id="パス_81138" data-name="パス 81138" d="M48.071,56.007a.712.712,0,1,1-.712-.712.712.712,0,0,1,.712.712" fill="#fff"/>
          <path id="パス_81139" data-name="パス 81139" d="M52.123,56.007a.712.712,0,1,1-.712-.712.712.712,0,0,1,.712.712" fill="#fff"/>
          <path id="パス_81140" data-name="パス 81140" d="M56.175,56.007a.712.712,0,1,1-.712-.712.712.712,0,0,1,.712.712" fill="#fff"/>
          <path id="パス_81141" data-name="パス 81141" d="M60.227,56.007a.712.712,0,1,1-.712-.712.712.712,0,0,1,.712.712" fill="#fff"/>
          <path id="パス_81142" data-name="パス 81142" d="M64.279,56.007a.712.712,0,1,1-.712-.712.712.712,0,0,1,.712.712" fill="#fff"/>
          <path id="パス_81143" data-name="パス 81143" d="M68.331,56.007a.712.712,0,1,1-.712-.712.712.712,0,0,1,.712.712" fill="#fff"/>
          <path id="パス_81144" data-name="パス 81144" d="M72.383,56.007a.712.712,0,1,1-.712-.712.712.712,0,0,1,.712.712" fill="#fff"/>
          <path id="パス_81145" data-name="パス 81145" d="M76.435,56.007a.712.712,0,1,1-.712-.712.712.712,0,0,1,.712.712" fill="#fff"/>
          <path id="パス_81146" data-name="パス 81146" d="M33.84,58.8a.712.712,0,1,1-.712-.712.712.712,0,0,1,.712.712" fill="#fff"/>
          <path id="パス_81147" data-name="パス 81147" d="M37.892,58.8a.712.712,0,1,1-.712-.712.712.712,0,0,1,.712.712" fill="#fff"/>
          <path id="パス_81148" data-name="パス 81148" d="M41.944,58.8a.712.712,0,1,1-.712-.712.712.712,0,0,1,.712.712" fill="#fff"/>
          <path id="パス_81149" data-name="パス 81149" d="M46,58.8a.712.712,0,1,1-.712-.712A.712.712,0,0,1,46,58.8" fill="#fff"/>
          <path id="パス_81150" data-name="パス 81150" d="M50.048,58.8a.712.712,0,1,1-.712-.712.712.712,0,0,1,.712.712" fill="#fff"/>
          <path id="パス_81151" data-name="パス 81151" d="M54.1,58.8a.712.712,0,1,1-.712-.712.712.712,0,0,1,.712.712" fill="#fff"/>
          <path id="パス_81152" data-name="パス 81152" d="M58.152,58.8a.712.712,0,1,1-.712-.712.712.712,0,0,1,.712.712" fill="#fff"/>
          <path id="パス_81153" data-name="パス 81153" d="M62.2,58.8a.712.712,0,1,1-.712-.712.712.712,0,0,1,.712.712" fill="#fff"/>
          <path id="パス_81154" data-name="パス 81154" d="M66.256,58.8a.712.712,0,1,1-.712-.712.712.712,0,0,1,.712.712" fill="#fff"/>
          <path id="パス_81155" data-name="パス 81155" d="M70.308,58.8a.712.712,0,1,1-.712-.712.712.712,0,0,1,.712.712" fill="#fff"/>
          <path id="パス_81156" data-name="パス 81156" d="M74.36,58.8a.712.712,0,1,1-.712-.712.712.712,0,0,1,.712.712" fill="#fff"/>
          <path id="パス_81157" data-name="パス 81157" d="M31.863,61.868a.712.712,0,1,1-.712-.712.712.712,0,0,1,.712.712" fill="#fff"/>
          <path id="パス_81158" data-name="パス 81158" d="M35.915,61.868a.712.712,0,1,1-.712-.712.712.712,0,0,1,.712.712" fill="#fff"/>
          <path id="パス_81159" data-name="パス 81159" d="M39.967,61.868a.712.712,0,1,1-.712-.712.712.712,0,0,1,.712.712" fill="#fff"/>
          <path id="パス_81160" data-name="パス 81160" d="M44.019,61.868a.712.712,0,1,1-.712-.712.712.712,0,0,1,.712.712" fill="#fff"/>
          <path id="パス_81161" data-name="パス 81161" d="M48.071,61.868a.712.712,0,1,1-.712-.712.712.712,0,0,1,.712.712" fill="#fff"/>
          <path id="パス_81162" data-name="パス 81162" d="M52.123,61.868a.712.712,0,1,1-.712-.712.712.712,0,0,1,.712.712" fill="#fff"/>
          <path id="パス_81163" data-name="パス 81163" d="M56.175,61.868a.712.712,0,1,1-.712-.712.712.712,0,0,1,.712.712" fill="#fff"/>
          <path id="パス_81164" data-name="パス 81164" d="M60.227,61.868a.712.712,0,1,1-.712-.712.712.712,0,0,1,.712.712" fill="#fff"/>
          <path id="パス_81165" data-name="パス 81165" d="M64.279,61.868a.712.712,0,1,1-.712-.712.712.712,0,0,1,.712.712" fill="#fff"/>
          <path id="パス_81166" data-name="パス 81166" d="M68.331,61.868a.712.712,0,1,1-.712-.712.712.712,0,0,1,.712.712" fill="#fff"/>
          <path id="パス_81167" data-name="パス 81167" d="M72.383,61.868a.712.712,0,1,1-.712-.712.712.712,0,0,1,.712.712" fill="#fff"/>
          <path id="パス_81168" data-name="パス 81168" d="M76.435,61.868a.712.712,0,1,1-.712-.712.712.712,0,0,1,.712.712" fill="#fff"/>
          <path id="パス_81169" data-name="パス 81169" d="M33.84,64.66a.712.712,0,1,1-.712-.712.712.712,0,0,1,.712.712" fill="#fff"/>
          <path id="パス_81170" data-name="パス 81170" d="M37.892,64.66a.712.712,0,1,1-.712-.712.712.712,0,0,1,.712.712" fill="#fff"/>
          <path id="パス_81171" data-name="パス 81171" d="M41.944,64.66a.712.712,0,1,1-.712-.712.712.712,0,0,1,.712.712" fill="#fff"/>
          <path id="パス_81172" data-name="パス 81172" d="M46,64.66a.712.712,0,1,1-.712-.712A.712.712,0,0,1,46,64.66" fill="#fff"/>
          <path id="パス_81173" data-name="パス 81173" d="M50.048,64.66a.712.712,0,1,1-.712-.712.712.712,0,0,1,.712.712" fill="#fff"/>
          <path id="パス_81174" data-name="パス 81174" d="M54.1,64.66a.712.712,0,1,1-.712-.712.712.712,0,0,1,.712.712" fill="#fff"/>
          <path id="パス_81175" data-name="パス 81175" d="M58.152,64.66a.712.712,0,1,1-.712-.712.712.712,0,0,1,.712.712" fill="#fff"/>
          <path id="パス_81176" data-name="パス 81176" d="M62.2,64.66a.712.712,0,1,1-.712-.712.712.712,0,0,1,.712.712" fill="#fff"/>
          <path id="パス_81177" data-name="パス 81177" d="M66.256,64.66a.712.712,0,1,1-.712-.712.712.712,0,0,1,.712.712" fill="#fff"/>
          <path id="パス_81178" data-name="パス 81178" d="M70.308,64.66a.712.712,0,1,1-.712-.712.712.712,0,0,1,.712.712" fill="#fff"/>
          <path id="パス_81179" data-name="パス 81179" d="M74.36,64.66a.712.712,0,1,1-.712-.712.712.712,0,0,1,.712.712" fill="#fff"/>
          <path id="パス_81180" data-name="パス 81180" d="M31.863,67.73a.712.712,0,1,1-.712-.712.712.712,0,0,1,.712.712" fill="#fff"/>
          <path id="パス_81181" data-name="パス 81181" d="M35.915,67.73a.712.712,0,1,1-.712-.712.712.712,0,0,1,.712.712" fill="#fff"/>
          <path id="パス_81182" data-name="パス 81182" d="M39.967,67.73a.712.712,0,1,1-.712-.712.712.712,0,0,1,.712.712" fill="#fff"/>
          <path id="パス_81183" data-name="パス 81183" d="M44.019,67.73a.712.712,0,1,1-.712-.712.712.712,0,0,1,.712.712" fill="#fff"/>
          <path id="パス_81184" data-name="パス 81184" d="M48.071,67.73a.712.712,0,1,1-.712-.712.712.712,0,0,1,.712.712" fill="#fff"/>
          <path id="パス_81185" data-name="パス 81185" d="M52.123,67.73a.712.712,0,1,1-.712-.712.712.712,0,0,1,.712.712" fill="#fff"/>
          <path id="パス_81186" data-name="パス 81186" d="M56.175,67.73a.712.712,0,1,1-.712-.712.712.712,0,0,1,.712.712" fill="#fff"/>
          <path id="パス_81187" data-name="パス 81187" d="M60.227,67.73a.712.712,0,1,1-.712-.712.712.712,0,0,1,.712.712" fill="#fff"/>
          <path id="パス_81188" data-name="パス 81188" d="M64.279,67.73a.712.712,0,1,1-.712-.712.712.712,0,0,1,.712.712" fill="#fff"/>
          <path id="パス_81189" data-name="パス 81189" d="M68.331,67.73a.712.712,0,1,1-.712-.712.712.712,0,0,1,.712.712" fill="#fff"/>
          <path id="パス_81190" data-name="パス 81190" d="M72.383,67.73a.712.712,0,1,1-.712-.712.712.712,0,0,1,.712.712" fill="#fff"/>
          <path id="パス_81191" data-name="パス 81191" d="M76.435,67.73a.712.712,0,1,1-.712-.712.712.712,0,0,1,.712.712" fill="#fff"/>
          <path id="パス_81192" data-name="パス 81192" d="M33.84,70.521a.712.712,0,1,1-.712-.712.712.712,0,0,1,.712.712" fill="#fff"/>
          <path id="パス_81193" data-name="パス 81193" d="M37.892,70.521a.712.712,0,1,1-.712-.712.712.712,0,0,1,.712.712" fill="#fff"/>
          <path id="パス_81194" data-name="パス 81194" d="M41.944,70.521a.712.712,0,1,1-.712-.712.712.712,0,0,1,.712.712" fill="#fff"/>
          <path id="パス_81195" data-name="パス 81195" d="M46,70.521a.712.712,0,1,1-.712-.712.712.712,0,0,1,.712.712" fill="#fff"/>
          <path id="パス_81196" data-name="パス 81196" d="M50.048,70.521a.712.712,0,1,1-.712-.712.712.712,0,0,1,.712.712" fill="#fff"/>
          <path id="パス_81197" data-name="パス 81197" d="M54.1,70.521a.712.712,0,1,1-.712-.712.712.712,0,0,1,.712.712" fill="#fff"/>
          <path id="パス_81198" data-name="パス 81198" d="M58.152,70.521a.712.712,0,1,1-.712-.712.712.712,0,0,1,.712.712" fill="#fff"/>
          <path id="パス_81199" data-name="パス 81199" d="M62.2,70.521a.712.712,0,1,1-.712-.712.712.712,0,0,1,.712.712" fill="#fff"/>
          <path id="パス_81200" data-name="パス 81200" d="M66.256,70.521a.712.712,0,1,1-.712-.712.712.712,0,0,1,.712.712" fill="#fff"/>
          <path id="パス_81201" data-name="パス 81201" d="M70.308,70.521a.712.712,0,1,1-.712-.712.712.712,0,0,1,.712.712" fill="#fff"/>
          <path id="パス_81202" data-name="パス 81202" d="M74.36,70.521a.712.712,0,1,1-.712-.712.712.712,0,0,1,.712.712" fill="#fff"/>
          <path id="パス_81203" data-name="パス 81203" d="M31.863,73.591a.712.712,0,1,1-.712-.712.712.712,0,0,1,.712.712" fill="#fff"/>
          <path id="パス_81204" data-name="パス 81204" d="M35.915,73.591a.712.712,0,1,1-.712-.712.712.712,0,0,1,.712.712" fill="#fff"/>
          <path id="パス_81205" data-name="パス 81205" d="M39.967,73.591a.712.712,0,1,1-.712-.712.712.712,0,0,1,.712.712" fill="#fff"/>
          <path id="パス_81206" data-name="パス 81206" d="M44.019,73.591a.712.712,0,1,1-.712-.712.712.712,0,0,1,.712.712" fill="#fff"/>
          <path id="パス_81207" data-name="パス 81207" d="M48.071,73.591a.712.712,0,1,1-.712-.712.712.712,0,0,1,.712.712" fill="#fff"/>
          <path id="パス_81208" data-name="パス 81208" d="M52.123,73.591a.712.712,0,1,1-.712-.712.712.712,0,0,1,.712.712" fill="#fff"/>
          <path id="パス_81209" data-name="パス 81209" d="M56.175,73.591a.712.712,0,1,1-.712-.712.712.712,0,0,1,.712.712" fill="#fff"/>
          <path id="パス_81210" data-name="パス 81210" d="M60.227,73.591a.712.712,0,1,1-.712-.712.712.712,0,0,1,.712.712" fill="#fff"/>
          <path id="パス_81211" data-name="パス 81211" d="M64.279,73.591a.712.712,0,1,1-.712-.712.712.712,0,0,1,.712.712" fill="#fff"/>
          <path id="パス_81212" data-name="パス 81212" d="M68.331,73.591a.712.712,0,1,1-.712-.712.712.712,0,0,1,.712.712" fill="#fff"/>
          <path id="パス_81213" data-name="パス 81213" d="M72.383,73.591a.712.712,0,1,1-.712-.712.712.712,0,0,1,.712.712" fill="#fff"/>
          <path id="パス_81214" data-name="パス 81214" d="M76.435,73.591a.712.712,0,1,1-.712-.712.712.712,0,0,1,.712.712" fill="#fff"/>
          <path id="パス_81215" data-name="パス 81215" d="M33.84,76.382a.712.712,0,1,1-.712-.712.712.712,0,0,1,.712.712" fill="#fff"/>
          <path id="パス_81216" data-name="パス 81216" d="M37.892,76.382a.712.712,0,1,1-.712-.712.712.712,0,0,1,.712.712" fill="#fff"/>
          <path id="パス_81217" data-name="パス 81217" d="M41.944,76.382a.712.712,0,1,1-.712-.712.712.712,0,0,1,.712.712" fill="#fff"/>
          <path id="パス_81218" data-name="パス 81218" d="M46,76.382a.712.712,0,1,1-.712-.712.712.712,0,0,1,.712.712" fill="#fff"/>
          <path id="パス_81219" data-name="パス 81219" d="M50.048,76.382a.712.712,0,1,1-.712-.712.712.712,0,0,1,.712.712" fill="#fff"/>
          <path id="パス_81220" data-name="パス 81220" d="M54.1,76.382a.712.712,0,1,1-.712-.712.712.712,0,0,1,.712.712" fill="#fff"/>
          <path id="パス_81221" data-name="パス 81221" d="M58.152,76.382a.712.712,0,1,1-.712-.712.712.712,0,0,1,.712.712" fill="#fff"/>
          <path id="パス_81222" data-name="パス 81222" d="M62.2,76.382a.712.712,0,1,1-.712-.712.712.712,0,0,1,.712.712" fill="#fff"/>
          <path id="パス_81223" data-name="パス 81223" d="M66.256,76.382a.712.712,0,1,1-.712-.712.712.712,0,0,1,.712.712" fill="#fff"/>
          <path id="パス_81224" data-name="パス 81224" d="M70.308,76.382a.712.712,0,1,1-.712-.712.712.712,0,0,1,.712.712" fill="#fff"/>
          <path id="パス_81225" data-name="パス 81225" d="M74.36,76.382a.712.712,0,1,1-.712-.712.712.712,0,0,1,.712.712" fill="#fff"/>
          <path id="パス_81226" data-name="パス 81226" d="M31.863,79.452a.712.712,0,1,1-.712-.712.712.712,0,0,1,.712.712" fill="#fff"/>
          <path id="パス_81227" data-name="パス 81227" d="M35.915,79.452a.712.712,0,1,1-.712-.712.712.712,0,0,1,.712.712" fill="#fff"/>
          <path id="パス_81228" data-name="パス 81228" d="M39.967,79.452a.712.712,0,1,1-.712-.712.712.712,0,0,1,.712.712" fill="#fff"/>
          <path id="パス_81229" data-name="パス 81229" d="M44.019,79.452a.712.712,0,1,1-.712-.712.712.712,0,0,1,.712.712" fill="#fff"/>
          <path id="パス_81230" data-name="パス 81230" d="M48.071,79.452a.712.712,0,1,1-.712-.712.712.712,0,0,1,.712.712" fill="#fff"/>
          <path id="パス_81231" data-name="パス 81231" d="M52.123,79.452a.712.712,0,1,1-.712-.712.712.712,0,0,1,.712.712" fill="#fff"/>
          <path id="パス_81232" data-name="パス 81232" d="M56.175,79.452a.712.712,0,1,1-.712-.712.712.712,0,0,1,.712.712" fill="#fff"/>
          <path id="パス_81233" data-name="パス 81233" d="M60.227,79.452a.712.712,0,1,1-.712-.712.712.712,0,0,1,.712.712" fill="#fff"/>
          <path id="パス_81234" data-name="パス 81234" d="M64.279,79.452a.712.712,0,1,1-.712-.712.712.712,0,0,1,.712.712" fill="#fff"/>
          <path id="パス_81235" data-name="パス 81235" d="M68.331,79.452a.712.712,0,1,1-.712-.712.712.712,0,0,1,.712.712" fill="#fff"/>
          <path id="パス_81236" data-name="パス 81236" d="M72.383,79.452a.712.712,0,1,1-.712-.712.712.712,0,0,1,.712.712" fill="#fff"/>
          <path id="パス_81237" data-name="パス 81237" d="M76.435,79.452a.712.712,0,1,1-.712-.712.712.712,0,0,1,.712.712" fill="#fff"/>
          <path id="パス_81238" data-name="パス 81238" d="M33.84,82.243a.712.712,0,1,1-.712-.712.712.712,0,0,1,.712.712" fill="#fff"/>
          <path id="パス_81239" data-name="パス 81239" d="M37.892,82.243a.712.712,0,1,1-.712-.712.712.712,0,0,1,.712.712" fill="#fff"/>
          <path id="パス_81240" data-name="パス 81240" d="M41.944,82.243a.712.712,0,1,1-.712-.712.712.712,0,0,1,.712.712" fill="#fff"/>
          <path id="パス_81241" data-name="パス 81241" d="M46,82.243a.712.712,0,1,1-.712-.712.712.712,0,0,1,.712.712" fill="#fff"/>
          <path id="パス_81242" data-name="パス 81242" d="M50.048,82.243a.712.712,0,1,1-.712-.712.712.712,0,0,1,.712.712" fill="#fff"/>
          <path id="パス_81243" data-name="パス 81243" d="M54.1,82.243a.712.712,0,1,1-.712-.712.712.712,0,0,1,.712.712" fill="#fff"/>
          <path id="パス_81244" data-name="パス 81244" d="M58.152,82.243a.712.712,0,1,1-.712-.712.712.712,0,0,1,.712.712" fill="#fff"/>
          <path id="パス_81245" data-name="パス 81245" d="M62.2,82.243a.712.712,0,1,1-.712-.712.712.712,0,0,1,.712.712" fill="#fff"/>
          <path id="パス_81246" data-name="パス 81246" d="M66.256,82.243a.712.712,0,1,1-.712-.712.712.712,0,0,1,.712.712" fill="#fff"/>
          <path id="パス_81247" data-name="パス 81247" d="M70.308,82.243a.712.712,0,1,1-.712-.712.712.712,0,0,1,.712.712" fill="#fff"/>
          <path id="パス_81248" data-name="パス 81248" d="M74.36,82.243a.712.712,0,1,1-.712-.712.712.712,0,0,1,.712.712" fill="#fff"/>
          <path id="パス_81249" data-name="パス 81249" d="M31.863,85.313a.712.712,0,1,1-.712-.712.712.712,0,0,1,.712.712" fill="#fff"/>
          <path id="パス_81250" data-name="パス 81250" d="M35.915,85.313A.712.712,0,1,1,35.2,84.6a.712.712,0,0,1,.712.712" fill="#fff"/>
          <path id="パス_81251" data-name="パス 81251" d="M39.967,85.313a.712.712,0,1,1-.712-.712.712.712,0,0,1,.712.712" fill="#fff"/>
          <path id="パス_81252" data-name="パス 81252" d="M44.019,85.313a.712.712,0,1,1-.712-.712.712.712,0,0,1,.712.712" fill="#fff"/>
          <path id="パス_81253" data-name="パス 81253" d="M48.071,85.313a.712.712,0,1,1-.712-.712.712.712,0,0,1,.712.712" fill="#fff"/>
          <path id="パス_81254" data-name="パス 81254" d="M52.123,85.313a.712.712,0,1,1-.712-.712.712.712,0,0,1,.712.712" fill="#fff"/>
          <path id="パス_81255" data-name="パス 81255" d="M56.175,85.313a.712.712,0,1,1-.712-.712.712.712,0,0,1,.712.712" fill="#fff"/>
          <path id="パス_81256" data-name="パス 81256" d="M60.227,85.313a.712.712,0,1,1-.712-.712.712.712,0,0,1,.712.712" fill="#fff"/>
          <path id="パス_81257" data-name="パス 81257" d="M64.279,85.313a.712.712,0,1,1-.712-.712.712.712,0,0,1,.712.712" fill="#fff"/>
          <path id="パス_81258" data-name="パス 81258" d="M68.331,85.313a.712.712,0,1,1-.712-.712.712.712,0,0,1,.712.712" fill="#fff"/>
          <path id="パス_81259" data-name="パス 81259" d="M72.383,85.313a.712.712,0,1,1-.712-.712.712.712,0,0,1,.712.712" fill="#fff"/>
          <path id="パス_81260" data-name="パス 81260" d="M76.435,85.313a.712.712,0,1,1-.712-.712.712.712,0,0,1,.712.712" fill="#fff"/>
          <path id="パス_81261" data-name="パス 81261" d="M33.84,88.1a.712.712,0,1,1-.712-.712.712.712,0,0,1,.712.712" fill="#fff"/>
          <path id="パス_81262" data-name="パス 81262" d="M37.892,88.1a.712.712,0,1,1-.712-.712.712.712,0,0,1,.712.712" fill="#fff"/>
          <path id="パス_81263" data-name="パス 81263" d="M41.944,88.1a.712.712,0,1,1-.712-.712.712.712,0,0,1,.712.712" fill="#fff"/>
          <path id="パス_81264" data-name="パス 81264" d="M46,88.1a.712.712,0,1,1-.712-.712A.712.712,0,0,1,46,88.1" fill="#fff"/>
          <path id="パス_81265" data-name="パス 81265" d="M50.048,88.1a.712.712,0,1,1-.712-.712.712.712,0,0,1,.712.712" fill="#fff"/>
          <path id="パス_81266" data-name="パス 81266" d="M54.1,88.1a.712.712,0,1,1-.712-.712.712.712,0,0,1,.712.712" fill="#fff"/>
          <path id="パス_81267" data-name="パス 81267" d="M58.152,88.1a.712.712,0,1,1-.712-.712.712.712,0,0,1,.712.712" fill="#fff"/>
          <path id="パス_81268" data-name="パス 81268" d="M62.2,88.1a.712.712,0,1,1-.712-.712.712.712,0,0,1,.712.712" fill="#fff"/>
          <path id="パス_81269" data-name="パス 81269" d="M66.256,88.1a.712.712,0,1,1-.712-.712.712.712,0,0,1,.712.712" fill="#fff"/>
          <path id="パス_81270" data-name="パス 81270" d="M70.308,88.1a.712.712,0,1,1-.712-.712.712.712,0,0,1,.712.712" fill="#fff"/>
          <path id="パス_81271" data-name="パス 81271" d="M74.36,88.1a.712.712,0,1,1-.712-.712.712.712,0,0,1,.712.712" fill="#fff"/>
          <path id="パス_81272" data-name="パス 81272" d="M31.863,91.174a.712.712,0,1,1-.712-.712.712.712,0,0,1,.712.712" fill="#fff"/>
          <path id="パス_81273" data-name="パス 81273" d="M35.915,91.174a.712.712,0,1,1-.712-.712.712.712,0,0,1,.712.712" fill="#fff"/>
          <path id="パス_81274" data-name="パス 81274" d="M39.967,91.174a.712.712,0,1,1-.712-.712.712.712,0,0,1,.712.712" fill="#fff"/>
          <path id="パス_81275" data-name="パス 81275" d="M44.019,91.174a.712.712,0,1,1-.712-.712.712.712,0,0,1,.712.712" fill="#fff"/>
          <path id="パス_81276" data-name="パス 81276" d="M52.123,91.174a.712.712,0,1,1-.712-.712.712.712,0,0,1,.712.712" fill="#fff"/>
          <path id="パス_81277" data-name="パス 81277" d="M56.175,91.174a.712.712,0,1,1-.712-.712.712.712,0,0,1,.712.712" fill="#fff"/>
          <path id="パス_81278" data-name="パス 81278" d="M60.227,91.174a.712.712,0,1,1-.712-.712.712.712,0,0,1,.712.712" fill="#fff"/>
          <path id="パス_81279" data-name="パス 81279" d="M64.279,91.174a.712.712,0,1,1-.712-.712.712.712,0,0,1,.712.712" fill="#fff"/>
          <path id="パス_81280" data-name="パス 81280" d="M68.331,91.174a.712.712,0,1,1-.712-.712.712.712,0,0,1,.712.712" fill="#fff"/>
          <path id="パス_81281" data-name="パス 81281" d="M72.383,91.174a.712.712,0,1,1-.712-.712.712.712,0,0,1,.712.712" fill="#fff"/>
          <path id="パス_81282" data-name="パス 81282" d="M76.435,91.174a.712.712,0,1,1-.712-.712.712.712,0,0,1,.712.712" fill="#fff"/>
          <path id="パス_81283" data-name="パス 81283" d="M33.84,93.965a.712.712,0,1,1-.712-.712.712.712,0,0,1,.712.712" fill="#fff"/>
          <path id="パス_81284" data-name="パス 81284" d="M37.892,93.965a.712.712,0,1,1-.712-.712.712.712,0,0,1,.712.712" fill="#fff"/>
          <path id="パス_81285" data-name="パス 81285" d="M41.944,93.965a.712.712,0,1,1-.712-.712.712.712,0,0,1,.712.712" fill="#fff"/>
          <path id="パス_81286" data-name="パス 81286" d="M46,93.965a.712.712,0,1,1-.712-.712.712.712,0,0,1,.712.712" fill="#fff"/>
          <path id="パス_81287" data-name="パス 81287" d="M50.048,93.965a.712.712,0,1,1-.712-.712.712.712,0,0,1,.712.712" fill="#fff"/>
          <path id="パス_81288" data-name="パス 81288" d="M54.1,93.965a.712.712,0,1,1-.712-.712.712.712,0,0,1,.712.712" fill="#fff"/>
          <path id="パス_81289" data-name="パス 81289" d="M58.152,93.965a.712.712,0,1,1-.712-.712.712.712,0,0,1,.712.712" fill="#fff"/>
          <path id="パス_81290" data-name="パス 81290" d="M62.2,93.965a.712.712,0,1,1-.712-.712.712.712,0,0,1,.712.712" fill="#fff"/>
          <path id="パス_81291" data-name="パス 81291" d="M66.256,93.965a.712.712,0,1,1-.712-.712.712.712,0,0,1,.712.712" fill="#fff"/>
          <path id="パス_81292" data-name="パス 81292" d="M70.308,93.965a.712.712,0,1,1-.712-.712.712.712,0,0,1,.712.712" fill="#fff"/>
          <path id="パス_81293" data-name="パス 81293" d="M74.36,93.965a.712.712,0,1,1-.712-.712.712.712,0,0,1,.712.712" fill="#fff"/>
          <path id="パス_81294" data-name="パス 81294" d="M31.863,97.035a.712.712,0,1,1-.712-.712.712.712,0,0,1,.712.712" fill="#fff"/>
          <path id="パス_81295" data-name="パス 81295" d="M35.915,97.035a.712.712,0,1,1-.712-.712.712.712,0,0,1,.712.712" fill="#fff"/>
          <path id="パス_81296" data-name="パス 81296" d="M39.967,97.035a.712.712,0,1,1-.712-.712.712.712,0,0,1,.712.712" fill="#fff"/>
          <path id="パス_81297" data-name="パス 81297" d="M44.019,97.035a.712.712,0,1,1-.712-.712.712.712,0,0,1,.712.712" fill="#fff"/>
          <path id="パス_81298" data-name="パス 81298" d="M48.071,97.035a.712.712,0,1,1-.712-.712.712.712,0,0,1,.712.712" fill="#fff"/>
          <path id="パス_81299" data-name="パス 81299" d="M52.123,97.035a.712.712,0,1,1-.712-.712.712.712,0,0,1,.712.712" fill="#fff"/>
          <path id="パス_81300" data-name="パス 81300" d="M56.175,97.035a.712.712,0,1,1-.712-.712.712.712,0,0,1,.712.712" fill="#fff"/>
          <path id="パス_81301" data-name="パス 81301" d="M60.227,97.035a.712.712,0,1,1-.712-.712.712.712,0,0,1,.712.712" fill="#fff"/>
          <path id="パス_81302" data-name="パス 81302" d="M64.279,97.035a.712.712,0,1,1-.712-.712.712.712,0,0,1,.712.712" fill="#fff"/>
          <path id="パス_81303" data-name="パス 81303" d="M68.331,97.035a.712.712,0,1,1-.712-.712.712.712,0,0,1,.712.712" fill="#fff"/>
          <path id="パス_81304" data-name="パス 81304" d="M72.383,97.035a.712.712,0,1,1-.712-.712.712.712,0,0,1,.712.712" fill="#fff"/>
          <path id="パス_81305" data-name="パス 81305" d="M76.435,97.035a.712.712,0,1,1-.712-.712.712.712,0,0,1,.712.712" fill="#fff"/>
          <path id="パス_81306" data-name="パス 81306" d="M33.84,99.827a.712.712,0,1,1-.712-.712.712.712,0,0,1,.712.712" fill="#fff"/>
          <path id="パス_81307" data-name="パス 81307" d="M37.892,99.827a.712.712,0,1,1-.712-.712.712.712,0,0,1,.712.712" fill="#fff"/>
          <path id="パス_81308" data-name="パス 81308" d="M41.944,99.827a.712.712,0,1,1-.712-.712.712.712,0,0,1,.712.712" fill="#fff"/>
          <path id="パス_81309" data-name="パス 81309" d="M46,99.827a.712.712,0,1,1-.712-.712.712.712,0,0,1,.712.712" fill="#fff"/>
          <path id="パス_81310" data-name="パス 81310" d="M50.048,99.827a.712.712,0,1,1-.712-.712.712.712,0,0,1,.712.712" fill="#fff"/>
          <path id="パス_81311" data-name="パス 81311" d="M54.1,99.827a.712.712,0,1,1-.712-.712.712.712,0,0,1,.712.712" fill="#fff"/>
          <path id="パス_81312" data-name="パス 81312" d="M58.152,99.827a.712.712,0,1,1-.712-.712.712.712,0,0,1,.712.712" fill="#fff"/>
          <path id="パス_81313" data-name="パス 81313" d="M62.2,99.827a.712.712,0,1,1-.712-.712.712.712,0,0,1,.712.712" fill="#fff"/>
          <path id="パス_81314" data-name="パス 81314" d="M66.256,99.827a.712.712,0,1,1-.712-.712.712.712,0,0,1,.712.712" fill="#fff"/>
          <path id="パス_81315" data-name="パス 81315" d="M70.308,99.827a.712.712,0,1,1-.712-.712.712.712,0,0,1,.712.712" fill="#fff"/>
          <path id="パス_81316" data-name="パス 81316" d="M74.36,99.827a.712.712,0,1,1-.712-.712.712.712,0,0,1,.712.712" fill="#fff"/>
          <path id="パス_81317" data-name="パス 81317" d="M31.863,102.9a.712.712,0,1,1-.712-.712.712.712,0,0,1,.712.712" fill="#fff"/>
          <path id="パス_81318" data-name="パス 81318" d="M35.915,102.9a.712.712,0,1,1-.712-.712.712.712,0,0,1,.712.712" fill="#fff"/>
          <path id="パス_81319" data-name="パス 81319" d="M39.967,102.9a.712.712,0,1,1-.712-.712.712.712,0,0,1,.712.712" fill="#fff"/>
          <path id="パス_81320" data-name="パス 81320" d="M44.019,102.9a.712.712,0,1,1-.712-.712.712.712,0,0,1,.712.712" fill="#fff"/>
          <path id="パス_81321" data-name="パス 81321" d="M48.071,102.9a.712.712,0,1,1-.712-.712.712.712,0,0,1,.712.712" fill="#fff"/>
          <path id="パス_81322" data-name="パス 81322" d="M52.123,102.9a.712.712,0,1,1-.712-.712.712.712,0,0,1,.712.712" fill="#fff"/>
          <path id="パス_81323" data-name="パス 81323" d="M56.175,102.9a.712.712,0,1,1-.712-.712.712.712,0,0,1,.712.712" fill="#fff"/>
          <path id="パス_81324" data-name="パス 81324" d="M60.227,102.9a.712.712,0,1,1-.712-.712.712.712,0,0,1,.712.712" fill="#fff"/>
          <path id="パス_81325" data-name="パス 81325" d="M64.279,102.9a.712.712,0,1,1-.712-.712.712.712,0,0,1,.712.712" fill="#fff"/>
          <path id="パス_81326" data-name="パス 81326" d="M68.331,102.9a.712.712,0,1,1-.712-.712.712.712,0,0,1,.712.712" fill="#fff"/>
          <path id="パス_81327" data-name="パス 81327" d="M72.383,102.9a.712.712,0,1,1-.712-.712.712.712,0,0,1,.712.712" fill="#fff"/>
          <path id="パス_81328" data-name="パス 81328" d="M76.435,102.9a.712.712,0,1,1-.712-.712.712.712,0,0,1,.712.712" fill="#fff"/>
          <path id="パス_81329" data-name="パス 81329" d="M33.84,105.688a.712.712,0,1,1-.712-.712.712.712,0,0,1,.712.712" fill="#fff"/>
          <path id="パス_81330" data-name="パス 81330" d="M37.892,105.688a.712.712,0,1,1-.712-.712.712.712,0,0,1,.712.712" fill="#fff"/>
          <path id="パス_81331" data-name="パス 81331" d="M41.944,105.688a.712.712,0,1,1-.712-.712.712.712,0,0,1,.712.712" fill="#fff"/>
          <path id="パス_81332" data-name="パス 81332" d="M46,105.688a.712.712,0,1,1-.712-.712.712.712,0,0,1,.712.712" fill="#fff"/>
          <path id="パス_81333" data-name="パス 81333" d="M50.048,105.688a.712.712,0,1,1-.712-.712.712.712,0,0,1,.712.712" fill="#fff"/>
          <path id="パス_81334" data-name="パス 81334" d="M54.1,105.688a.712.712,0,1,1-.712-.712.712.712,0,0,1,.712.712" fill="#fff"/>
          <path id="パス_81335" data-name="パス 81335" d="M58.152,105.688a.712.712,0,1,1-.712-.712.712.712,0,0,1,.712.712" fill="#fff"/>
          <path id="パス_81336" data-name="パス 81336" d="M62.2,105.688a.712.712,0,1,1-.712-.712.712.712,0,0,1,.712.712" fill="#fff"/>
          <path id="パス_81337" data-name="パス 81337" d="M66.256,105.688a.712.712,0,1,1-.712-.712.712.712,0,0,1,.712.712" fill="#fff"/>
          <path id="パス_81338" data-name="パス 81338" d="M70.308,105.688a.712.712,0,1,1-.712-.712.712.712,0,0,1,.712.712" fill="#fff"/>
          <path id="パス_81339" data-name="パス 81339" d="M74.36,105.688a.712.712,0,1,1-.712-.712.712.712,0,0,1,.712.712" fill="#fff"/>
          <path id="パス_81340" data-name="パス 81340" d="M48.071,91.174a.712.712,0,1,1-.712-.712.712.712,0,0,1,.712.712" fill="#fff"/>
        </g>
      </g>
      <g id="グループ_27723" data-name="グループ 27723">
        <g id="グループ_27722" data-name="グループ 27722" clip-path="url(#clip-path-4)">
          <path id="パス_81342" data-name="パス 81342" d="M82.947,50.146a.712.712,0,1,1-.712-.712.712.712,0,0,1,.712.712" fill="#fff"/>
          <path id="パス_81343" data-name="パス 81343" d="M87,50.146a.712.712,0,1,1-.712-.712.712.712,0,0,1,.712.712" fill="#fff"/>
          <path id="パス_81344" data-name="パス 81344" d="M91.051,50.146a.712.712,0,1,1-.712-.712.712.712,0,0,1,.712.712" fill="#fff"/>
          <path id="パス_81345" data-name="パス 81345" d="M95.1,50.146a.712.712,0,1,1-.712-.712.712.712,0,0,1,.712.712" fill="#fff"/>
          <path id="パス_81346" data-name="パス 81346" d="M99.155,50.146a.712.712,0,1,1-.712-.712.712.712,0,0,1,.712.712" fill="#fff"/>
          <path id="パス_81347" data-name="パス 81347" d="M103.207,50.146a.712.712,0,1,1-.712-.712.712.712,0,0,1,.712.712" fill="#fff"/>
          <path id="パス_81348" data-name="パス 81348" d="M107.259,50.146a.712.712,0,1,1-.712-.712.712.712,0,0,1,.712.712" fill="#fff"/>
          <path id="パス_81349" data-name="パス 81349" d="M111.311,50.146a.712.712,0,1,1-.712-.712.712.712,0,0,1,.712.712" fill="#fff"/>
          <path id="パス_81350" data-name="パス 81350" d="M115.363,50.146a.712.712,0,1,1-.712-.712.712.712,0,0,1,.712.712" fill="#fff"/>
          <path id="パス_81351" data-name="パス 81351" d="M119.415,50.146a.712.712,0,1,1-.712-.712.712.712,0,0,1,.712.712" fill="#fff"/>
          <path id="パス_81352" data-name="パス 81352" d="M80.872,52.937a.712.712,0,1,1-.712-.712.712.712,0,0,1,.712.712" fill="#fff"/>
          <path id="パス_81353" data-name="パス 81353" d="M84.924,52.937a.712.712,0,1,1-.712-.712.712.712,0,0,1,.712.712" fill="#fff"/>
          <path id="パス_81354" data-name="パス 81354" d="M88.976,52.937a.712.712,0,1,1-.712-.712.712.712,0,0,1,.712.712" fill="#fff"/>
          <path id="パス_81355" data-name="パス 81355" d="M93.028,52.937a.712.712,0,1,1-.712-.712.712.712,0,0,1,.712.712" fill="#fff"/>
          <path id="パス_81356" data-name="パス 81356" d="M97.08,52.937a.712.712,0,1,1-.712-.712.712.712,0,0,1,.712.712" fill="#fff"/>
          <path id="パス_81357" data-name="パス 81357" d="M101.132,52.937a.712.712,0,1,1-.712-.712.712.712,0,0,1,.712.712" fill="#fff"/>
          <path id="パス_81358" data-name="パス 81358" d="M105.184,52.937a.712.712,0,1,1-.712-.712.712.712,0,0,1,.712.712" fill="#fff"/>
          <path id="パス_81359" data-name="パス 81359" d="M109.236,52.937a.712.712,0,1,1-.712-.712.712.712,0,0,1,.712.712" fill="#fff"/>
          <path id="パス_81360" data-name="パス 81360" d="M113.288,52.937a.712.712,0,1,1-.712-.712.712.712,0,0,1,.712.712" fill="#fff"/>
          <path id="パス_81361" data-name="パス 81361" d="M117.34,52.937a.712.712,0,1,1-.712-.712.712.712,0,0,1,.712.712" fill="#fff"/>
          <path id="パス_81362" data-name="パス 81362" d="M82.947,56.007a.712.712,0,1,1-.712-.712.712.712,0,0,1,.712.712" fill="#fff"/>
          <path id="パス_81363" data-name="パス 81363" d="M87,56.007a.712.712,0,1,1-.712-.712.712.712,0,0,1,.712.712" fill="#fff"/>
          <path id="パス_81364" data-name="パス 81364" d="M91.051,56.007a.712.712,0,1,1-.712-.712.712.712,0,0,1,.712.712" fill="#fff"/>
          <path id="パス_81365" data-name="パス 81365" d="M95.1,56.007a.712.712,0,1,1-.712-.712.712.712,0,0,1,.712.712" fill="#fff"/>
          <path id="パス_81366" data-name="パス 81366" d="M99.155,56.007a.712.712,0,1,1-.712-.712.712.712,0,0,1,.712.712" fill="#fff"/>
          <path id="パス_81367" data-name="パス 81367" d="M103.207,56.007a.712.712,0,1,1-.712-.712.712.712,0,0,1,.712.712" fill="#fff"/>
          <path id="パス_81368" data-name="パス 81368" d="M107.259,56.007a.712.712,0,1,1-.712-.712.712.712,0,0,1,.712.712" fill="#fff"/>
          <path id="パス_81369" data-name="パス 81369" d="M111.311,56.007a.712.712,0,1,1-.712-.712.712.712,0,0,1,.712.712" fill="#fff"/>
          <path id="パス_81370" data-name="パス 81370" d="M115.363,56.007a.712.712,0,1,1-.712-.712.712.712,0,0,1,.712.712" fill="#fff"/>
          <path id="パス_81371" data-name="パス 81371" d="M119.415,56.007a.712.712,0,1,1-.712-.712.712.712,0,0,1,.712.712" fill="#fff"/>
          <path id="パス_81372" data-name="パス 81372" d="M80.872,58.8a.712.712,0,1,1-.712-.712.712.712,0,0,1,.712.712" fill="#fff"/>
          <path id="パス_81373" data-name="パス 81373" d="M84.924,58.8a.712.712,0,1,1-.712-.712.712.712,0,0,1,.712.712" fill="#fff"/>
          <path id="パス_81374" data-name="パス 81374" d="M88.976,58.8a.712.712,0,1,1-.712-.712.712.712,0,0,1,.712.712" fill="#fff"/>
          <path id="パス_81375" data-name="パス 81375" d="M93.028,58.8a.712.712,0,1,1-.712-.712.712.712,0,0,1,.712.712" fill="#fff"/>
          <path id="パス_81376" data-name="パス 81376" d="M97.08,58.8a.712.712,0,1,1-.712-.712.712.712,0,0,1,.712.712" fill="#fff"/>
          <path id="パス_81377" data-name="パス 81377" d="M101.132,58.8a.712.712,0,1,1-.712-.712.712.712,0,0,1,.712.712" fill="#fff"/>
          <path id="パス_81378" data-name="パス 81378" d="M105.184,58.8a.712.712,0,1,1-.712-.712.712.712,0,0,1,.712.712" fill="#fff"/>
          <path id="パス_81379" data-name="パス 81379" d="M109.236,58.8a.712.712,0,1,1-.712-.712.712.712,0,0,1,.712.712" fill="#fff"/>
          <path id="パス_81380" data-name="パス 81380" d="M113.288,58.8a.712.712,0,1,1-.712-.712.712.712,0,0,1,.712.712" fill="#fff"/>
          <path id="パス_81381" data-name="パス 81381" d="M117.34,58.8a.712.712,0,1,1-.712-.712.712.712,0,0,1,.712.712" fill="#fff"/>
          <path id="パス_81382" data-name="パス 81382" d="M82.947,61.868a.712.712,0,1,1-.712-.712.712.712,0,0,1,.712.712" fill="#fff"/>
          <path id="パス_81383" data-name="パス 81383" d="M87,61.868a.712.712,0,1,1-.712-.712.712.712,0,0,1,.712.712" fill="#fff"/>
          <path id="パス_81384" data-name="パス 81384" d="M91.051,61.868a.712.712,0,1,1-.712-.712.712.712,0,0,1,.712.712" fill="#fff"/>
          <path id="パス_81385" data-name="パス 81385" d="M95.1,61.868a.712.712,0,1,1-.712-.712.712.712,0,0,1,.712.712" fill="#fff"/>
          <path id="パス_81386" data-name="パス 81386" d="M99.155,61.868a.712.712,0,1,1-.712-.712.712.712,0,0,1,.712.712" fill="#fff"/>
          <path id="パス_81387" data-name="パス 81387" d="M103.207,61.868a.712.712,0,1,1-.712-.712.712.712,0,0,1,.712.712" fill="#fff"/>
          <path id="パス_81388" data-name="パス 81388" d="M107.259,61.868a.712.712,0,1,1-.712-.712.712.712,0,0,1,.712.712" fill="#fff"/>
          <path id="パス_81389" data-name="パス 81389" d="M111.311,61.868a.712.712,0,1,1-.712-.712.712.712,0,0,1,.712.712" fill="#fff"/>
          <path id="パス_81390" data-name="パス 81390" d="M115.363,61.868a.712.712,0,1,1-.712-.712.712.712,0,0,1,.712.712" fill="#fff"/>
          <path id="パス_81391" data-name="パス 81391" d="M119.415,61.868a.712.712,0,1,1-.712-.712.712.712,0,0,1,.712.712" fill="#fff"/>
          <path id="パス_81392" data-name="パス 81392" d="M80.872,64.66a.712.712,0,1,1-.712-.712.712.712,0,0,1,.712.712" fill="#fff"/>
          <path id="パス_81393" data-name="パス 81393" d="M84.924,64.66a.712.712,0,1,1-.712-.712.712.712,0,0,1,.712.712" fill="#fff"/>
          <path id="パス_81394" data-name="パス 81394" d="M88.976,64.66a.712.712,0,1,1-.712-.712.712.712,0,0,1,.712.712" fill="#fff"/>
          <path id="パス_81395" data-name="パス 81395" d="M93.028,64.66a.712.712,0,1,1-.712-.712.712.712,0,0,1,.712.712" fill="#fff"/>
          <path id="パス_81396" data-name="パス 81396" d="M97.08,64.66a.712.712,0,1,1-.712-.712.712.712,0,0,1,.712.712" fill="#fff"/>
          <path id="パス_81397" data-name="パス 81397" d="M101.132,64.66a.712.712,0,1,1-.712-.712.712.712,0,0,1,.712.712" fill="#fff"/>
          <path id="パス_81398" data-name="パス 81398" d="M105.184,64.66a.712.712,0,1,1-.712-.712.712.712,0,0,1,.712.712" fill="#fff"/>
          <path id="パス_81399" data-name="パス 81399" d="M109.236,64.66a.712.712,0,1,1-.712-.712.712.712,0,0,1,.712.712" fill="#fff"/>
          <path id="パス_81400" data-name="パス 81400" d="M113.288,64.66a.712.712,0,1,1-.712-.712.712.712,0,0,1,.712.712" fill="#fff"/>
          <path id="パス_81401" data-name="パス 81401" d="M117.34,64.66a.712.712,0,1,1-.712-.712.712.712,0,0,1,.712.712" fill="#fff"/>
          <path id="パス_81402" data-name="パス 81402" d="M82.947,67.73a.712.712,0,1,1-.712-.712.712.712,0,0,1,.712.712" fill="#fff"/>
          <path id="パス_81403" data-name="パス 81403" d="M87,67.73a.712.712,0,1,1-.712-.712A.712.712,0,0,1,87,67.73" fill="#fff"/>
          <path id="パス_81404" data-name="パス 81404" d="M91.051,67.73a.712.712,0,1,1-.712-.712.712.712,0,0,1,.712.712" fill="#fff"/>
          <path id="パス_81405" data-name="パス 81405" d="M95.1,67.73a.712.712,0,1,1-.712-.712.712.712,0,0,1,.712.712" fill="#fff"/>
          <path id="パス_81406" data-name="パス 81406" d="M99.155,67.73a.712.712,0,1,1-.712-.712.712.712,0,0,1,.712.712" fill="#fff"/>
          <path id="パス_81407" data-name="パス 81407" d="M103.207,67.73a.712.712,0,1,1-.712-.712.712.712,0,0,1,.712.712" fill="#fff"/>
          <path id="パス_81408" data-name="パス 81408" d="M107.259,67.73a.712.712,0,1,1-.712-.712.712.712,0,0,1,.712.712" fill="#fff"/>
          <path id="パス_81409" data-name="パス 81409" d="M111.311,67.73a.712.712,0,1,1-.712-.712.712.712,0,0,1,.712.712" fill="#fff"/>
          <path id="パス_81410" data-name="パス 81410" d="M115.363,67.73a.712.712,0,1,1-.712-.712.712.712,0,0,1,.712.712" fill="#fff"/>
          <path id="パス_81411" data-name="パス 81411" d="M119.415,67.73a.712.712,0,1,1-.712-.712.712.712,0,0,1,.712.712" fill="#fff"/>
          <path id="パス_81412" data-name="パス 81412" d="M80.872,70.521a.712.712,0,1,1-.712-.712.712.712,0,0,1,.712.712" fill="#fff"/>
          <path id="パス_81413" data-name="パス 81413" d="M84.924,70.521a.712.712,0,1,1-.712-.712.712.712,0,0,1,.712.712" fill="#fff"/>
          <path id="パス_81414" data-name="パス 81414" d="M88.976,70.521a.712.712,0,1,1-.712-.712.712.712,0,0,1,.712.712" fill="#fff"/>
          <path id="パス_81415" data-name="パス 81415" d="M93.028,70.521a.712.712,0,1,1-.712-.712.712.712,0,0,1,.712.712" fill="#fff"/>
          <path id="パス_81416" data-name="パス 81416" d="M97.08,70.521a.712.712,0,1,1-.712-.712.712.712,0,0,1,.712.712" fill="#fff"/>
          <path id="パス_81417" data-name="パス 81417" d="M101.132,70.521a.712.712,0,1,1-.712-.712.712.712,0,0,1,.712.712" fill="#fff"/>
          <path id="パス_81418" data-name="パス 81418" d="M105.184,70.521a.712.712,0,1,1-.712-.712.712.712,0,0,1,.712.712" fill="#fff"/>
          <path id="パス_81419" data-name="パス 81419" d="M109.236,70.521a.712.712,0,1,1-.712-.712.712.712,0,0,1,.712.712" fill="#fff"/>
          <path id="パス_81420" data-name="パス 81420" d="M113.288,70.521a.712.712,0,1,1-.712-.712.712.712,0,0,1,.712.712" fill="#fff"/>
          <path id="パス_81421" data-name="パス 81421" d="M117.34,70.521a.712.712,0,1,1-.712-.712.712.712,0,0,1,.712.712" fill="#fff"/>
          <path id="パス_81422" data-name="パス 81422" d="M82.947,73.591a.712.712,0,1,1-.712-.712.712.712,0,0,1,.712.712" fill="#fff"/>
          <path id="パス_81423" data-name="パス 81423" d="M87,73.591a.712.712,0,1,1-.712-.712.712.712,0,0,1,.712.712" fill="#fff"/>
          <path id="パス_81424" data-name="パス 81424" d="M91.051,73.591a.712.712,0,1,1-.712-.712.712.712,0,0,1,.712.712" fill="#fff"/>
          <path id="パス_81425" data-name="パス 81425" d="M95.1,73.591a.712.712,0,1,1-.712-.712.712.712,0,0,1,.712.712" fill="#fff"/>
          <path id="パス_81426" data-name="パス 81426" d="M99.155,73.591a.712.712,0,1,1-.712-.712.712.712,0,0,1,.712.712" fill="#fff"/>
          <path id="パス_81427" data-name="パス 81427" d="M103.207,73.591a.712.712,0,1,1-.712-.712.712.712,0,0,1,.712.712" fill="#fff"/>
          <path id="パス_81428" data-name="パス 81428" d="M107.259,73.591a.712.712,0,1,1-.712-.712.712.712,0,0,1,.712.712" fill="#fff"/>
          <path id="パス_81429" data-name="パス 81429" d="M111.311,73.591a.712.712,0,1,1-.712-.712.712.712,0,0,1,.712.712" fill="#fff"/>
          <path id="パス_81430" data-name="パス 81430" d="M115.363,73.591a.712.712,0,1,1-.712-.712.712.712,0,0,1,.712.712" fill="#fff"/>
          <path id="パス_81431" data-name="パス 81431" d="M119.415,73.591a.712.712,0,1,1-.712-.712.712.712,0,0,1,.712.712" fill="#fff"/>
          <path id="パス_81432" data-name="パス 81432" d="M80.872,76.382a.712.712,0,1,1-.712-.712.712.712,0,0,1,.712.712" fill="#fff"/>
          <path id="パス_81433" data-name="パス 81433" d="M84.924,76.382a.712.712,0,1,1-.712-.712.712.712,0,0,1,.712.712" fill="#fff"/>
          <path id="パス_81434" data-name="パス 81434" d="M88.976,76.382a.712.712,0,1,1-.712-.712.712.712,0,0,1,.712.712" fill="#fff"/>
          <path id="パス_81435" data-name="パス 81435" d="M93.028,76.382a.712.712,0,1,1-.712-.712.712.712,0,0,1,.712.712" fill="#fff"/>
          <path id="パス_81436" data-name="パス 81436" d="M97.08,76.382a.712.712,0,1,1-.712-.712.712.712,0,0,1,.712.712" fill="#fff"/>
          <path id="パス_81437" data-name="パス 81437" d="M101.132,76.382a.712.712,0,1,1-.712-.712.712.712,0,0,1,.712.712" fill="#fff"/>
          <path id="パス_81438" data-name="パス 81438" d="M105.184,76.382a.712.712,0,1,1-.712-.712.712.712,0,0,1,.712.712" fill="#fff"/>
          <path id="パス_81439" data-name="パス 81439" d="M109.236,76.382a.712.712,0,1,1-.712-.712.712.712,0,0,1,.712.712" fill="#fff"/>
          <path id="パス_81440" data-name="パス 81440" d="M113.288,76.382a.712.712,0,1,1-.712-.712.712.712,0,0,1,.712.712" fill="#fff"/>
          <path id="パス_81441" data-name="パス 81441" d="M117.34,76.382a.712.712,0,1,1-.712-.712.712.712,0,0,1,.712.712" fill="#fff"/>
          <path id="パス_81442" data-name="パス 81442" d="M82.947,79.452a.712.712,0,1,1-.712-.712.712.712,0,0,1,.712.712" fill="#fff"/>
          <path id="パス_81443" data-name="パス 81443" d="M87,79.452a.712.712,0,1,1-.712-.712.712.712,0,0,1,.712.712" fill="#fff"/>
          <path id="パス_81444" data-name="パス 81444" d="M91.051,79.452a.712.712,0,1,1-.712-.712.712.712,0,0,1,.712.712" fill="#fff"/>
          <path id="パス_81445" data-name="パス 81445" d="M95.1,79.452a.712.712,0,1,1-.712-.712.712.712,0,0,1,.712.712" fill="#fff"/>
          <path id="パス_81446" data-name="パス 81446" d="M99.155,79.452a.712.712,0,1,1-.712-.712.712.712,0,0,1,.712.712" fill="#fff"/>
          <path id="パス_81447" data-name="パス 81447" d="M103.207,79.452a.712.712,0,1,1-.712-.712.712.712,0,0,1,.712.712" fill="#fff"/>
          <path id="パス_81448" data-name="パス 81448" d="M107.259,79.452a.712.712,0,1,1-.712-.712.712.712,0,0,1,.712.712" fill="#fff"/>
          <path id="パス_81449" data-name="パス 81449" d="M111.311,79.452a.712.712,0,1,1-.712-.712.712.712,0,0,1,.712.712" fill="#fff"/>
          <path id="パス_81450" data-name="パス 81450" d="M115.363,79.452a.712.712,0,1,1-.712-.712.712.712,0,0,1,.712.712" fill="#fff"/>
          <path id="パス_81451" data-name="パス 81451" d="M119.415,79.452a.712.712,0,1,1-.712-.712.712.712,0,0,1,.712.712" fill="#fff"/>
          <path id="パス_81452" data-name="パス 81452" d="M80.872,82.243a.712.712,0,1,1-.712-.712.712.712,0,0,1,.712.712" fill="#fff"/>
          <path id="パス_81453" data-name="パス 81453" d="M84.924,82.243a.712.712,0,1,1-.712-.712.712.712,0,0,1,.712.712" fill="#fff"/>
          <path id="パス_81454" data-name="パス 81454" d="M88.976,82.243a.712.712,0,1,1-.712-.712.712.712,0,0,1,.712.712" fill="#fff"/>
          <path id="パス_81455" data-name="パス 81455" d="M93.028,82.243a.712.712,0,1,1-.712-.712.712.712,0,0,1,.712.712" fill="#fff"/>
          <path id="パス_81456" data-name="パス 81456" d="M97.08,82.243a.712.712,0,1,1-.712-.712.712.712,0,0,1,.712.712" fill="#fff"/>
          <path id="パス_81457" data-name="パス 81457" d="M101.132,82.243a.712.712,0,1,1-.712-.712.712.712,0,0,1,.712.712" fill="#fff"/>
          <path id="パス_81458" data-name="パス 81458" d="M105.184,82.243a.712.712,0,1,1-.712-.712.712.712,0,0,1,.712.712" fill="#fff"/>
          <path id="パス_81459" data-name="パス 81459" d="M109.236,82.243a.712.712,0,1,1-.712-.712.712.712,0,0,1,.712.712" fill="#fff"/>
          <path id="パス_81460" data-name="パス 81460" d="M113.288,82.243a.712.712,0,1,1-.712-.712.712.712,0,0,1,.712.712" fill="#fff"/>
          <path id="パス_81461" data-name="パス 81461" d="M117.34,82.243a.712.712,0,1,1-.712-.712.712.712,0,0,1,.712.712" fill="#fff"/>
          <path id="パス_81462" data-name="パス 81462" d="M82.947,85.313a.712.712,0,1,1-.712-.712.712.712,0,0,1,.712.712" fill="#fff"/>
          <path id="パス_81463" data-name="パス 81463" d="M87,85.313a.712.712,0,1,1-.712-.712.712.712,0,0,1,.712.712" fill="#fff"/>
          <path id="パス_81464" data-name="パス 81464" d="M91.051,85.313a.712.712,0,1,1-.712-.712.712.712,0,0,1,.712.712" fill="#fff"/>
          <path id="パス_81465" data-name="パス 81465" d="M95.1,85.313a.712.712,0,1,1-.712-.712.712.712,0,0,1,.712.712" fill="#fff"/>
          <path id="パス_81466" data-name="パス 81466" d="M99.155,85.313a.712.712,0,1,1-.712-.712.712.712,0,0,1,.712.712" fill="#fff"/>
          <path id="パス_81467" data-name="パス 81467" d="M103.207,85.313a.712.712,0,1,1-.712-.712.712.712,0,0,1,.712.712" fill="#fff"/>
          <path id="パス_81468" data-name="パス 81468" d="M107.259,85.313a.712.712,0,1,1-.712-.712.712.712,0,0,1,.712.712" fill="#fff"/>
          <path id="パス_81469" data-name="パス 81469" d="M111.311,85.313a.712.712,0,1,1-.712-.712.712.712,0,0,1,.712.712" fill="#fff"/>
          <path id="パス_81470" data-name="パス 81470" d="M115.363,85.313a.712.712,0,1,1-.712-.712.712.712,0,0,1,.712.712" fill="#fff"/>
          <path id="パス_81471" data-name="パス 81471" d="M119.415,85.313a.712.712,0,1,1-.712-.712.712.712,0,0,1,.712.712" fill="#fff"/>
          <path id="パス_81472" data-name="パス 81472" d="M80.872,88.1a.712.712,0,1,1-.712-.712.712.712,0,0,1,.712.712" fill="#fff"/>
          <path id="パス_81473" data-name="パス 81473" d="M84.924,88.1a.712.712,0,1,1-.712-.712.712.712,0,0,1,.712.712" fill="#fff"/>
          <path id="パス_81474" data-name="パス 81474" d="M88.976,88.1a.712.712,0,1,1-.712-.712.712.712,0,0,1,.712.712" fill="#fff"/>
          <path id="パス_81475" data-name="パス 81475" d="M93.028,88.1a.712.712,0,1,1-.712-.712.712.712,0,0,1,.712.712" fill="#fff"/>
          <path id="パス_81476" data-name="パス 81476" d="M97.08,88.1a.712.712,0,1,1-.712-.712.712.712,0,0,1,.712.712" fill="#fff"/>
          <path id="パス_81477" data-name="パス 81477" d="M101.132,88.1a.712.712,0,1,1-.712-.712.712.712,0,0,1,.712.712" fill="#fff"/>
          <path id="パス_81478" data-name="パス 81478" d="M105.184,88.1a.712.712,0,1,1-.712-.712.712.712,0,0,1,.712.712" fill="#fff"/>
          <path id="パス_81479" data-name="パス 81479" d="M109.236,88.1a.712.712,0,1,1-.712-.712.712.712,0,0,1,.712.712" fill="#fff"/>
          <path id="パス_81480" data-name="パス 81480" d="M113.288,88.1a.712.712,0,1,1-.712-.712.712.712,0,0,1,.712.712" fill="#fff"/>
          <path id="パス_81481" data-name="パス 81481" d="M117.34,88.1a.712.712,0,1,1-.712-.712.712.712,0,0,1,.712.712" fill="#fff"/>
          <path id="パス_81482" data-name="パス 81482" d="M82.947,91.174a.712.712,0,1,1-.712-.712.712.712,0,0,1,.712.712" fill="#fff"/>
          <path id="パス_81483" data-name="パス 81483" d="M87,91.174a.712.712,0,1,1-.712-.712.712.712,0,0,1,.712.712" fill="#fff"/>
          <path id="パス_81484" data-name="パス 81484" d="M91.051,91.174a.712.712,0,1,1-.712-.712.712.712,0,0,1,.712.712" fill="#fff"/>
          <path id="パス_81485" data-name="パス 81485" d="M95.1,91.174a.712.712,0,1,1-.712-.712.712.712,0,0,1,.712.712" fill="#fff"/>
          <path id="パス_81486" data-name="パス 81486" d="M99.155,91.174a.712.712,0,1,1-.712-.712.712.712,0,0,1,.712.712" fill="#fff"/>
          <path id="パス_81487" data-name="パス 81487" d="M103.207,91.174a.712.712,0,1,1-.712-.712.712.712,0,0,1,.712.712" fill="#fff"/>
          <path id="パス_81488" data-name="パス 81488" d="M107.259,91.174a.712.712,0,1,1-.712-.712.712.712,0,0,1,.712.712" fill="#fff"/>
          <path id="パス_81489" data-name="パス 81489" d="M111.311,91.174a.712.712,0,1,1-.712-.712.712.712,0,0,1,.712.712" fill="#fff"/>
          <path id="パス_81490" data-name="パス 81490" d="M115.363,91.174a.712.712,0,1,1-.712-.712.712.712,0,0,1,.712.712" fill="#fff"/>
          <path id="パス_81491" data-name="パス 81491" d="M119.415,91.174a.712.712,0,1,1-.712-.712.712.712,0,0,1,.712.712" fill="#fff"/>
          <path id="パス_81492" data-name="パス 81492" d="M80.872,93.965a.712.712,0,1,1-.712-.712.712.712,0,0,1,.712.712" fill="#fff"/>
          <path id="パス_81493" data-name="パス 81493" d="M84.924,93.965a.712.712,0,1,1-.712-.712.712.712,0,0,1,.712.712" fill="#fff"/>
          <path id="パス_81494" data-name="パス 81494" d="M88.976,93.965a.712.712,0,1,1-.712-.712.712.712,0,0,1,.712.712" fill="#fff"/>
          <path id="パス_81495" data-name="パス 81495" d="M93.028,93.965a.712.712,0,1,1-.712-.712.712.712,0,0,1,.712.712" fill="#fff"/>
          <path id="パス_81496" data-name="パス 81496" d="M97.08,93.965a.712.712,0,1,1-.712-.712.712.712,0,0,1,.712.712" fill="#fff"/>
          <path id="パス_81497" data-name="パス 81497" d="M101.132,93.965a.712.712,0,1,1-.712-.712.712.712,0,0,1,.712.712" fill="#fff"/>
          <path id="パス_81498" data-name="パス 81498" d="M105.184,93.965a.712.712,0,1,1-.712-.712.712.712,0,0,1,.712.712" fill="#fff"/>
          <path id="パス_81499" data-name="パス 81499" d="M109.236,93.965a.712.712,0,1,1-.712-.712.712.712,0,0,1,.712.712" fill="#fff"/>
          <path id="パス_81500" data-name="パス 81500" d="M113.288,93.965a.712.712,0,1,1-.712-.712.712.712,0,0,1,.712.712" fill="#fff"/>
          <path id="パス_81501" data-name="パス 81501" d="M117.34,93.965a.712.712,0,1,1-.712-.712.712.712,0,0,1,.712.712" fill="#fff"/>
          <path id="パス_81502" data-name="パス 81502" d="M82.947,97.035a.712.712,0,1,1-.712-.712.712.712,0,0,1,.712.712" fill="#fff"/>
          <path id="パス_81503" data-name="パス 81503" d="M87,97.035a.712.712,0,1,1-.712-.712.712.712,0,0,1,.712.712" fill="#fff"/>
          <path id="パス_81504" data-name="パス 81504" d="M91.051,97.035a.712.712,0,1,1-.712-.712.712.712,0,0,1,.712.712" fill="#fff"/>
          <path id="パス_81505" data-name="パス 81505" d="M95.1,97.035a.712.712,0,1,1-.712-.712.712.712,0,0,1,.712.712" fill="#fff"/>
          <path id="パス_81506" data-name="パス 81506" d="M99.155,97.035a.712.712,0,1,1-.712-.712.712.712,0,0,1,.712.712" fill="#fff"/>
          <path id="パス_81507" data-name="パス 81507" d="M103.207,97.035a.712.712,0,1,1-.712-.712.712.712,0,0,1,.712.712" fill="#fff"/>
          <path id="パス_81508" data-name="パス 81508" d="M107.259,97.035a.712.712,0,1,1-.712-.712.712.712,0,0,1,.712.712" fill="#fff"/>
          <path id="パス_81509" data-name="パス 81509" d="M111.311,97.035a.712.712,0,1,1-.712-.712.712.712,0,0,1,.712.712" fill="#fff"/>
          <path id="パス_81510" data-name="パス 81510" d="M115.363,97.035a.712.712,0,1,1-.712-.712.712.712,0,0,1,.712.712" fill="#fff"/>
          <path id="パス_81511" data-name="パス 81511" d="M119.415,97.035a.712.712,0,1,1-.712-.712.712.712,0,0,1,.712.712" fill="#fff"/>
          <path id="パス_81512" data-name="パス 81512" d="M80.872,99.827a.712.712,0,1,1-.712-.712.712.712,0,0,1,.712.712" fill="#fff"/>
          <path id="パス_81513" data-name="パス 81513" d="M84.924,99.827a.712.712,0,1,1-.712-.712.712.712,0,0,1,.712.712" fill="#fff"/>
          <path id="パス_81514" data-name="パス 81514" d="M88.976,99.827a.712.712,0,1,1-.712-.712.712.712,0,0,1,.712.712" fill="#fff"/>
          <path id="パス_81515" data-name="パス 81515" d="M93.028,99.827a.712.712,0,1,1-.712-.712.712.712,0,0,1,.712.712" fill="#fff"/>
          <path id="パス_81516" data-name="パス 81516" d="M97.08,99.827a.712.712,0,1,1-.712-.712.712.712,0,0,1,.712.712" fill="#fff"/>
          <path id="パス_81517" data-name="パス 81517" d="M101.132,99.827a.712.712,0,1,1-.712-.712.712.712,0,0,1,.712.712" fill="#fff"/>
          <path id="パス_81518" data-name="パス 81518" d="M105.184,99.827a.712.712,0,1,1-.712-.712.712.712,0,0,1,.712.712" fill="#fff"/>
          <path id="パス_81519" data-name="パス 81519" d="M109.236,99.827a.712.712,0,1,1-.712-.712.712.712,0,0,1,.712.712" fill="#fff"/>
          <path id="パス_81520" data-name="パス 81520" d="M113.288,99.827a.712.712,0,1,1-.712-.712.712.712,0,0,1,.712.712" fill="#fff"/>
          <path id="パス_81521" data-name="パス 81521" d="M117.34,99.827a.712.712,0,1,1-.712-.712.712.712,0,0,1,.712.712" fill="#fff"/>
          <path id="パス_81522" data-name="パス 81522" d="M82.947,102.9a.712.712,0,1,1-.712-.712.712.712,0,0,1,.712.712" fill="#fff"/>
          <path id="パス_81523" data-name="パス 81523" d="M87,102.9a.712.712,0,1,1-.712-.712A.712.712,0,0,1,87,102.9" fill="#fff"/>
          <path id="パス_81524" data-name="パス 81524" d="M91.051,102.9a.712.712,0,1,1-.712-.712.712.712,0,0,1,.712.712" fill="#fff"/>
          <path id="パス_81525" data-name="パス 81525" d="M95.1,102.9a.712.712,0,1,1-.712-.712.712.712,0,0,1,.712.712" fill="#fff"/>
          <path id="パス_81526" data-name="パス 81526" d="M99.155,102.9a.712.712,0,1,1-.712-.712.712.712,0,0,1,.712.712" fill="#fff"/>
          <path id="パス_81527" data-name="パス 81527" d="M103.207,102.9a.712.712,0,1,1-.712-.712.712.712,0,0,1,.712.712" fill="#fff"/>
          <path id="パス_81528" data-name="パス 81528" d="M107.259,102.9a.712.712,0,1,1-.712-.712.712.712,0,0,1,.712.712" fill="#fff"/>
          <path id="パス_81529" data-name="パス 81529" d="M111.311,102.9a.712.712,0,1,1-.712-.712.712.712,0,0,1,.712.712" fill="#fff"/>
          <path id="パス_81530" data-name="パス 81530" d="M115.363,102.9a.712.712,0,1,1-.712-.712.712.712,0,0,1,.712.712" fill="#fff"/>
          <path id="パス_81531" data-name="パス 81531" d="M119.415,102.9a.712.712,0,1,1-.712-.712.712.712,0,0,1,.712.712" fill="#fff"/>
          <path id="パス_81532" data-name="パス 81532" d="M80.872,105.688a.712.712,0,1,1-.712-.712.712.712,0,0,1,.712.712" fill="#fff"/>
          <path id="パス_81533" data-name="パス 81533" d="M84.924,105.688a.712.712,0,1,1-.712-.712.712.712,0,0,1,.712.712" fill="#fff"/>
          <path id="パス_81534" data-name="パス 81534" d="M88.976,105.688a.712.712,0,1,1-.712-.712.712.712,0,0,1,.712.712" fill="#fff"/>
          <path id="パス_81535" data-name="パス 81535" d="M93.028,105.688a.712.712,0,1,1-.712-.712.712.712,0,0,1,.712.712" fill="#fff"/>
          <path id="パス_81536" data-name="パス 81536" d="M97.08,105.688a.712.712,0,1,1-.712-.712.712.712,0,0,1,.712.712" fill="#fff"/>
          <path id="パス_81537" data-name="パス 81537" d="M101.132,105.688a.712.712,0,1,1-.712-.712.712.712,0,0,1,.712.712" fill="#fff"/>
          <path id="パス_81538" data-name="パス 81538" d="M105.184,105.688a.712.712,0,1,1-.712-.712.712.712,0,0,1,.712.712" fill="#fff"/>
          <path id="パス_81539" data-name="パス 81539" d="M109.236,105.688a.712.712,0,1,1-.712-.712.712.712,0,0,1,.712.712" fill="#fff"/>
          <path id="パス_81540" data-name="パス 81540" d="M113.288,105.688a.712.712,0,1,1-.712-.712.712.712,0,0,1,.712.712" fill="#fff"/>
          <path id="パス_81541" data-name="パス 81541" d="M117.34,105.688a.712.712,0,1,1-.712-.712.712.712,0,0,1,.712.712" fill="#fff"/>
        </g>
      </g>
      <g id="グループ_27725" data-name="グループ 27725">
        <g id="グループ_27724" data-name="グループ 27724" clip-path="url(#clip-path-2)">
          <path id="パス_81543" data-name="パス 81543" d="M82.722,58.783a27.06,27.06,0,0,1-.689-6.269H67.65a27.114,27.114,0,0,1-.689,6.269c-.477,1.416-2.809,2.522-5.378,3.529.213,3.309.336,5.36.784,9.393.4,3.585,5.344,9.4,12.474,9.4s12.077-5.817,12.475-9.4c.448-4.033.571-6.084.784-9.393-2.569-1.007-4.9-2.113-5.378-3.529" fill="#ffbe94"/>
          <path id="パス_81544" data-name="パス 81544" d="M59.778,10.306v26.71c0,6.366,4.841,18.768,15.137,18.768s15.138-12.4,15.138-18.768l1.7-26.71Z" fill="#ffbe94"/>
          <path id="パス_81545" data-name="パス 81545" d="M82.722,58.783a23.052,23.052,0,0,1-.665-5.343,12.06,12.06,0,0,1-14.424-.1h0a28.922,28.922,0,0,0,20.308,8.908c-2.5-.99-4.749-2.079-5.216-3.465" fill="#ff9467"/>
          <path id="パス_81546" data-name="パス 81546" d="M61.582,62.312l3.741,44.554H84.366l3.741-44.612L74.84,79.151Z" fill="#fff"/>
          <path id="パス_81547" data-name="パス 81547" d="M62.373,5.77C66.423-.8,77.815-1.813,86.315,3.01,99.1,10.265,98.642,21.749,93.842,33.928A3.379,3.379,0,0,0,92.55,33.4a4.813,4.813,0,0,0-2.814.472l0-8.342a13.46,13.46,0,0,1-6.285-6.683c-.954-2.026-2.036-6.7-4.021-7.055-1.113-.194-2.749.25-4.173,3.508-5.823,13.3-15.548,9.788-15.548,10.381v8.2A4.818,4.818,0,0,0,56.88,33.4a3.384,3.384,0,0,0-1.231.5c-.467-1.583-3.036-6.131-3.036-12.246,0-8.3,3.1-13.042,9.76-15.885" fill="#1e1e1e"/>
          <path id="パス_81548" data-name="パス 81548" d="M60.289,32.172c1.69,2.177,1.816,4.908.281,6.1s-4.15.392-5.84-1.785-1.816-4.908-.281-6.1,4.15-.392,5.84,1.785" fill="#ffbe94"/>
          <path id="パス_81549" data-name="パス 81549" d="M89.935,32.172c-1.69,2.177-1.816,4.908-.281,6.1s4.15.392,5.84-1.785,1.816-4.908.281-6.1-4.15-.392-5.84,1.785" fill="#ffbe94"/>
        </g>
      </g>
    </g>
  </g>
</svg>
