<svg id="グループ_27202" data-name="グループ 27202" xmlns="http://www.w3.org/2000/svg" width="24" height="24" viewBox="0 0 24 24">
  <path id="パス_81827" data-name="パス 81827" d="M24,24H0V0H24Z" fill="none"/>
  <path id="パス_81828" data-name="パス 81828" d="M2,20H4a1,1,0,0,0,1-1V10A1,1,0,0,0,4,9H2Zm19.83-7.12a1.98,1.98,0,0,0,.17-.8V11a2.006,2.006,0,0,0-2-2H14.5l.92-4.65a1,1,0,0,0-.08-.66,4.8,4.8,0,0,0-.88-1.22L14,2,7.59,8.41A2.006,2.006,0,0,0,7,9.83v7.84A2.341,2.341,0,0,0,9.34,20h8.11a2.014,2.014,0,0,0,1.72-.97l2.66-6.15Z" transform="translate(0 1)" fill="#b0b3be"/>
</svg>
