<svg xmlns="http://www.w3.org/2000/svg" width="24" height="24" viewBox="0 0 24 24">
  <g id="grade-24px" transform="translate(0.422 0.002)">
    <path id="パス_2693" data-name="パス 2693" d="M0,0H24V24H0Z" transform="translate(-0.422 -0.002)" fill="none"/>
    <path id="パス_2694" data-name="パス 2694" d="M12,7.129l.97,2.29.47,1.11,1.2.1,2.47.21-1.88,1.63-.91.79.27,1.18.56,2.41-2.12-1.28L12,14.927l-1.03.62-2.12,1.28.56-2.41.27-1.18-.91-.79-1.88-1.63,2.47-.21,1.2-.1.47-1.11L12,7.129M12,2,9.189,8.629,2,9.239l5.459,4.729L5.819,21,12,17.267,18.177,21l-1.64-7.029L22,9.239l-7.189-.61Z" transform="translate(-0.421 -0.002)" fill="#3a435c"/>
  </g>
</svg>
