<svg xmlns="http://www.w3.org/2000/svg" width="28" height="28" viewBox="0 0 28 28"><defs><style>.a{fill:none;}.b{fill:#3a435c;}</style></defs><path class="a" d="M0,0H28V28H0Z"/><path class="b" d="M13.659,2A11.659,11.659,0,1,0,25.318,13.659,11.663,11.663,0,0,0,13.659,2Zm1.166,19.821H12.493V19.489h2.332Zm2.413-9.036-1.049,1.073a3.969,3.969,0,0,0-1.364,3.3H12.493v-.583a4.693,4.693,0,0,1,1.364-3.3L15.3,11.805a2.28,2.28,0,0,0,.688-1.644,2.332,2.332,0,0,0-4.664,0H9a4.664,4.664,0,0,1,9.327,0A3.71,3.71,0,0,1,17.239,12.785Z" transform="translate(0.34 0.34)"/></svg>