<svg id="hub_black_24dp" xmlns="http://www.w3.org/2000/svg" width="24" height="24" viewBox="0 0 24 24">
  <rect id="長方形_23223" data-name="長方形 23223" width="24" height="24" fill="none"/>
  <path id="パス_82451" data-name="パス 82451" d="M7.713,16.711a2.71,2.71,0,0,1,.551,1.653,2.745,2.745,0,1,1-1.625-2.516l1.295-1.625a4.136,4.136,0,0,1-1-3.388L5.068,10.21a2.749,2.749,0,1,1,.441-1.487,1.356,1.356,0,0,1-.009.193l1.864.624A4.1,4.1,0,0,1,10.32,7.41V5.426a2.759,2.759,0,1,1,1.386,0V7.41a4.1,4.1,0,0,1,2.957,2.13l1.864-.624V8.723a2.752,2.752,0,1,1,.441,1.5l-1.864.624a4.122,4.122,0,0,1-1,3.388L15.4,15.857a2.6,2.6,0,0,1,1.129-.248,2.755,2.755,0,1,1-2.755,2.755,2.71,2.71,0,0,1,.551-1.653l-1.295-1.625a4.131,4.131,0,0,1-4.012,0Z" transform="translate(1 1)" fill="#3a435c"/>
</svg>
