<svg xmlns="http://www.w3.org/2000/svg" width="19.999" height="19.999" viewBox="0 0 19.999 19.999">
  <g id="link-24px" transform="translate(19.999) rotate(90)">
    <path id="パス_1230" data-name="パス 1230" d="M0,0H20V20H0Z" fill="none"/>
    <path id="パス_1231" data-name="パス 1231" d="M3.584,11.163A2.585,2.585,0,0,1,6.167,8.582H9.5V7H6.167a4.163,4.163,0,1,0,0,8.326H9.5V13.744H6.167A2.585,2.585,0,0,1,3.584,11.163ZM7,12h6.667V10.33H7Zm7.5-5H11.168V8.582H14.5a2.581,2.581,0,1,1,0,5.162H11.168v1.582H14.5A4.163,4.163,0,1,0,14.5,7Z" transform="translate(10.586 -5.201) rotate(45)" fill="#b0b3be"/>
  </g>
</svg>
