<svg xmlns="http://www.w3.org/2000/svg" width="166.001" height="32" viewBox="0 0 166.001 32"><defs><style>.a{fill:none;}.b{fill:#1f2a3d;}.c{fill:#58baf5;}.d{fill:#4f7df0;}.e{fill:#ffb100;}</style></defs><g transform="translate(22564.001 18499)"><rect class="a" width="166" height="32" transform="translate(-22564 -18499)"/><g transform="translate(-22564.02 -18498.969)"><g transform="translate(0.019 -0.031)"><path class="b" d="M191.333,15.52l-1.77,8.666.061.031a6.661,6.661,0,0,1,4.974-2.136c3.265,0,4.974,2.472,4.974,5.493a10,10,0,0,1-10.406,10.172c-3.845,0-5.828-1.648-5.8-4.475a14.794,14.794,0,0,1,.366-2.96l2.99-14.769Zm-3.021,15.257a5.729,5.729,0,0,0-.153,1.709,1.707,1.707,0,0,0,1.892,1.739c2.685,0,4.7-3.051,4.7-5.828,0-1.5-.763-2.645-2.228-2.645-1.739,0-3.54,1.648-4.119,4.577Z" transform="translate(-146.069 -12.356)"/><path class="b" d="M267.07,38.691,269.9,23.769h4.608l-2.838,14.922Zm5.682-16.783a2.147,2.147,0,0,1-2.238-2.2,2.53,2.53,0,0,1,2.655-2.531,2.163,2.163,0,0,1,2.35,2.226,2.537,2.537,0,0,1-2.746,2.5Z" transform="translate(-212.743 -13.679)"/><path class="b" d="M303.708,61.79l5.035-4.825c1.312-1.251,2.5-2.35,4.119-3.631l.031-.061h-7.049l.732-3.723h12.755l-.549,2.777-4.882,4.76c-1.343,1.251-2.5,2.35-4.089,3.6l-.03.061h7.69l-.7,3.723H303.22Z" transform="translate(-241.539 -39.464)"/><path class="b" d="M381.733,58.938A11.233,11.233,0,0,0,386.1,60.1c1.282,0,1.922-.58,1.922-1.251,0-.7-.488-1.19-1.983-1.8-1.861-.824-3.57-2.044-3.57-4.089,0-3.2,2.9-5.187,6.9-5.187a9.534,9.534,0,0,1,4.15.814l-1.1,3.2a8.428,8.428,0,0,0-3.391-.692c-1.16,0-1.922.458-1.922,1.19,0,.58.671,1.1,2.044,1.709,1.587.671,3.692,1.739,3.692,4.119,0,3.479-3.113,5.371-7.2,5.31a9.553,9.553,0,0,1-5.035-1.312Z" transform="translate(-303.178 -38.046)"/><path class="b" d="M447.67,37.369l4.119-21.849H456.4l-2.5,13.152h.061c.488-.549.976-1.129,1.434-1.648l4.181-4.577h5.865l-6.872,5.987,4.76,8.951h-5.212l-3.051-6.394-1.922,1.678-.885,4.7Z" transform="translate(-356.604 -12.356)"/><path class="b" d="M535.034,49.57l1.16,6.286c.305,1.587.519,2.645.671,3.57h.061c.336-.814.671-1.77,1.373-3.387l2.868-6.469h4.882l-5.462,10.375c-2.167,4.15-3.967,6.8-6.011,8.727a10.613,10.613,0,0,1-5.493,2.807l-.814-3.967a9.037,9.037,0,0,0,2.746-1.16,8.517,8.517,0,0,0,2.533-2.685.755.755,0,0,0,.061-.732L530.192,49.57Z" transform="translate(-420.807 -39.48)"/><path class="b" d="M615.884,21.551a34.915,34.915,0,0,1,6.256-.49c3.479,0,6.347.671,8.331,2.258,1.831,1.343,3.112,3.448,3.112,6.8a10.983,10.983,0,0,1-4.15,8.819c-2.645,2.034-6.042,2.99-11.077,2.99a39.316,39.316,0,0,1-6.286-.407Zm1.526,16.6a14.947,14.947,0,0,0,2.228.122,9.406,9.406,0,0,0,6.591-2.238,7.749,7.749,0,0,0,2.289-5.737c0-3.692-2.2-5.584-6.378-5.584a14.389,14.389,0,0,0-2.238.153Z" transform="translate(-487.559 -16.768)"/><path class="b" d="M720.091,42.387l-1.628-4.028c-.488-1.251-.885-2.35-1.373-3.631h-.061c-.7,1.129-1.343,2.258-2.289,3.753l-2.563,3.906H706.42l8.361-10.5-4.3-10.07h4.913l1.526,3.967c.427,1.221.763,2.167,1.16,3.387h.092c.854-1.4,1.434-2.441,2.075-3.448l2.645-3.906h5.676l-8.117,10.039,4.608,10.528Z" transform="translate(-562.716 -17.375)"/><path class="c" d="M36.757,9.856l4.272-7.4V2.441a4.882,4.882,0,0,0-8.457,0l-5.493,9.5a13.069,13.069,0,0,1,9.663-2.091Z" transform="translate(-21.575 0.007)"/><path class="c" d="M85.485,23.116,83.147,19.06,78.92,26.384l4.516,7.824A12.188,12.188,0,0,0,85.485,23.116Z" transform="translate(-62.869 -15.176)"/><rect class="d" width="7.324" height="19.477" rx="3.662" transform="translate(10.601 3.129) rotate(30)"/><path class="d" d="M39.231.626a4.882,4.882,0,0,0-6.679,1.79l-5.493,9.5a13.069,13.069,0,0,1,9.663-2.091h0l4.286-7.413A4.842,4.842,0,0,0,39.231.626Z" transform="translate(-21.559 0.031)"/><path class="e" d="M51.43,63.023a12.158,12.158,0,0,0,8.4,7.324h6.7a4.882,4.882,0,0,0,4.227-7.324L65.3,53.58A13.045,13.045,0,0,1,62.2,62.844Z" transform="translate(-40.971 -42.674)"/><path class="d" d="M14.957,70.033a13.143,13.143,0,0,1-5.794-7.008l5.364-9.346A12.294,12.294,0,0,0,3.7,57.782L.676,63.024A4.874,4.874,0,0,0,4.9,70.348H15.537C15.341,70.246,15.146,70.144,14.957,70.033Z" transform="translate(-0.019 -42.675)"/></g></g></g></svg>