<svg xmlns="http://www.w3.org/2000/svg" width="24" height="24" viewBox="0 0 24 24"><g transform="translate(-548.728 -146)"><rect width="24" height="24" transform="translate(548.728 146)" fill="none"/><path d="M20,20h0l-2.574-.691-3.268-.876A9.8,9.8,0,0,1,9.734,19.49,9.734,9.734,0,0,1,0,9.747,9.748,9.748,0,0,1,16.642,2.855a9.7,9.7,0,0,1,1.793,11.3l.876,3.268L20,20ZM12.573,8.467v2.566h2.563V8.467Zm-4.107,0v2.566H11.03V8.467Zm-4.105,0v2.566H6.928V8.467Z" transform="translate(550.728 148)"/></g></svg>