<svg xmlns="http://www.w3.org/2000/svg" width="32" height="32" viewBox="0 0 32 32"><defs><style>.a{fill:none;}.b{fill:#58baf5;}.c{fill:#4f7df0;}.d{fill:#ffb100;}</style></defs><g transform="translate(20853 20606)"><rect class="a" width="32" height="32" transform="translate(-20853 -20606)"/><g transform="translate(-21752.002 -24057)"><path class="b" d="M36.757,9.856l4.272-7.4V2.441a4.882,4.882,0,0,0-8.457,0l-5.493,9.5a13.069,13.069,0,0,1,9.663-2.091Z" transform="translate(878.428 3453.008)"/><path class="b" d="M85.485,23.116,83.147,19.06,78.92,26.384l4.516,7.824A12.188,12.188,0,0,0,85.485,23.116Z" transform="translate(837.133 3437.824)"/><rect class="c" width="7.324" height="19.477" rx="3.662" transform="translate(910.604 3456.129) rotate(30)"/><path class="c" d="M39.231.626a4.882,4.882,0,0,0-6.679,1.79l-5.493,9.5a13.069,13.069,0,0,1,9.663-2.091h0l4.286-7.413A4.842,4.842,0,0,0,39.231.626Z" transform="translate(878.443 3453.031)"/><path class="d" d="M51.43,63.023a12.158,12.158,0,0,0,8.4,7.324h6.7a4.882,4.882,0,0,0,4.227-7.324L65.3,53.58A13.045,13.045,0,0,1,62.2,62.844Z" transform="translate(859.031 3410.326)"/><path class="c" d="M14.957,70.033a13.143,13.143,0,0,1-5.794-7.008l5.364-9.346A12.294,12.294,0,0,0,3.7,57.782L.676,63.024A4.874,4.874,0,0,0,4.9,70.348H15.537C15.341,70.246,15.146,70.144,14.957,70.033Z" transform="translate(899.982 3410.324)"/></g></g></svg>