<svg xmlns="http://www.w3.org/2000/svg" width="28" height="28" viewBox="0 0 28 28"><defs><style>.a{fill:none;}.b{fill:#3a435c;}.c{fill:#ff453a;}</style></defs><g transform="translate(-1222 -11)"><g transform="translate(1222 11)"><path class="a" d="M0,0H28V28H0Z"/><path class="b" d="M21296.586,20303a2.475,2.475,0,0,1-2.529-2.41h5.059A2.475,2.475,0,0,1,21296.586,20303Zm8.316-3.615h-16.643a1.234,1.234,0,0,1-1.172-.771,1.155,1.155,0,0,1,.289-1.287l1.627-1.555v-6.027a8.252,8.252,0,0,1,1.484-4.893,6.983,6.983,0,0,1,4.205-2.723v-.818a1.9,1.9,0,0,1,3.791,0v.176a5.5,5.5,0,0,0,4.6,8.514,5.548,5.548,0,0,0,1.086-.107v5.879l1.631,1.555a1.151,1.151,0,0,1,.281,1.281A1.242,1.242,0,0,1,21304.9,20299.385Z" transform="translate(-21282.586 -20277)"/></g><circle class="c" cx="4.5" cy="4.5" r="4.5" transform="translate(1238 14)"/></g></svg>