<svg xmlns="http://www.w3.org/2000/svg" width="49.079" height="49.274" viewBox="0 0 49.079 49.274"><g transform="translate(-370.616 -363.979)"><rect width="3" height="28.346" transform="translate(383.291 363.979)" fill="#4f7df0"/><rect width="3" height="28.346" transform="translate(398.963 376.65) rotate(90)" fill="#4f7df0"/><rect width="3" height="28.346" transform="translate(393.752 367.068) rotate(45)" fill="#4f7df0"/><rect width="3" height="28.346" transform="translate(395.873 387.113) rotate(135)" fill="#4f7df0"/><circle cx="10" cy="10" r="10" transform="translate(374.791 368.16)" fill="#4f7df0"/><circle cx="7.118" cy="7.118" r="7.118" transform="translate(377.672 371.042)" fill="#fff"/><rect width="3" height="21.121" transform="translate(407.635 377.6)" fill="#283349"/><rect width="3" height="21.121" transform="translate(419.695 386.66) rotate(90)" fill="#283349"/><rect width="3" height="21.121" transform="translate(415.543 379.633) rotate(45)" fill="#283349"/><rect width="3" height="21.121" transform="translate(417.664 394.566) rotate(135)" fill="#283349"/><circle cx="7.524" cy="7.524" r="7.524" transform="translate(401.734 380.713)" fill="#283349"/><circle cx="5.067" cy="5.067" r="5.067" transform="translate(404.192 383.17)" fill="#fff"/><rect width="3" height="21.121" transform="translate(389.732 392.131)" fill="#283349"/><rect width="3" height="21.121" transform="translate(401.793 401.193) rotate(90)" fill="#283349"/><rect width="3" height="21.121" transform="translate(397.641 394.164) rotate(45)" fill="#283349"/><rect width="3" height="21.121" transform="translate(399.762 409.1) rotate(135)" fill="#283349"/><circle cx="7.524" cy="7.524" r="7.524" transform="translate(383.834 395.246)" fill="#283349"/><circle cx="5.067" cy="5.067" r="5.067" transform="translate(386.29 397.703)" fill="#fff"/></g></svg>