<svg xmlns="http://www.w3.org/2000/svg" width="64" height="64" viewBox="0 0 64 64"><defs><style>.a{fill:none;}.b{fill:#fff;}.c{fill:#3a435c;}.d{fill:#4f7df0;}</style></defs><path class="a" d="M0,0H64V64H0Z"/><path class="b" d="M3,0H6A3,3,0,0,1,9,3V23a3,3,0,0,1-3,3H3a3,3,0,0,1-3-3V3A3,3,0,0,1,3,0Z" transform="translate(22 27)"/><path class="c" d="M699.207,393.86h-3a3,3,0,0,1-3-3v-20a3,3,0,0,1,3-3h3a3,3,0,0,1,3,3v20A3,3,0,0,1,699.207,393.86Zm-3-23v20h3l0-20Z" transform="translate(-671.207 -340.86)"/><path class="b" d="M3,0H6A3,3,0,0,1,9,3V27a3,3,0,0,1-3,3H3a3,3,0,0,1-3-3V3A3,3,0,0,1,3,0Z" transform="translate(44 23)"/><path class="c" d="M721.207,393.86h-3a3,3,0,0,1-3-3v-24a3,3,0,0,1,3-3h3a3,3,0,0,1,3,3v24A3,3,0,0,1,721.207,393.86Zm-3-27v24h3l0-24Z" transform="translate(-671.207 -340.86)"/><path class="b" d="M3,0H6A3,3,0,0,1,9,3V19a3,3,0,0,1-3,3H3a3,3,0,0,1-3-3V3A3,3,0,0,1,3,0Z" transform="translate(33 31)"/><path class="c" d="M710.207,393.86h-3a3,3,0,0,1-3-3v-16a3,3,0,0,1,3-3h3a3,3,0,0,1,3,3v16A3,3,0,0,1,710.207,393.86Zm-3-19v16h3l0-16Z" transform="translate(-671.207 -340.86)"/><path class="b" d="M3,0H6A3,3,0,0,1,9,3v8a3,3,0,0,1-3,3H3a3,3,0,0,1-3-3V3A3,3,0,0,1,3,0Z" transform="translate(11 39)"/><path class="c" d="M688.207,393.86h-3a3,3,0,0,1-3-3v-8a3,3,0,0,1,3-3h3a3,3,0,0,1,3,3v8A3,3,0,0,1,688.207,393.86Zm-3-11v8h3l0-8Z" transform="translate(-671.207 -340.86)"/><path class="c" d="M676.707,344.861h0a1.5,1.5,0,0,1,1.5,1.5v53a1.5,1.5,0,0,1-1.5,1.5h0a1.5,1.5,0,0,1-1.5-1.5v-53A1.5,1.5,0,0,1,676.707,344.861Z" transform="translate(-671.207 -340.86)"/><path class="c" d="M731.207,399.361h0a1.5,1.5,0,0,1-1.5,1.5h-53a1.5,1.5,0,0,1-1.5-1.5h0a1.5,1.5,0,0,1,1.5-1.5h53A1.5,1.5,0,0,1,731.207,399.361Z" transform="translate(-671.207 -340.86)"/><path class="d" d="M683.381,367.366a1.5,1.5,0,0,1-.882-2.713l14.336-10.421a1.5,1.5,0,0,1,1.54-.135l9.641,4.707,18.12-13.544a1.5,1.5,0,1,1,1.8,2.4l-18.852,14.092a1.5,1.5,0,0,1-1.556.146l-9.654-4.712-13.607,9.891A1.5,1.5,0,0,1,683.381,367.366Z" transform="translate(-671.207 -340.86)"/></svg>