<svg id="コンポーネント_220_1" data-name="コンポーネント 220 – 1" xmlns="http://www.w3.org/2000/svg" width="64.001" height="64" viewBox="0 0 64.001 64">
  <rect id="長方形_20688" data-name="長方形 20688" width="64" height="64" transform="translate(0.001)" fill="none"/>
  <g id="グループ_24965" data-name="グループ 24965" transform="translate(-1006.945 -465.951)">
    <g id="パス_80926" data-name="パス 80926" transform="translate(1015.069 504.685)">
      <path id="パス_80927" data-name="パス 80927" d="M1039.072,513.609l-23.934-5.764.7-2.891,23.233,5.6,22.952-5.594.7,2.89Z" transform="translate(-1015.138 -504.954)" fill="#4f7df0"/>
    </g>
    <g id="線_189" data-name="線 189" transform="translate(1037.456 472.952)">
      <path id="パス_80928" data-name="パス 80928" d="M1039.2,522.023a1.487,1.487,0,0,1-1.487-1.487v-46.1a1.487,1.487,0,0,1,2.975,0v46.1A1.487,1.487,0,0,1,1039.2,522.023Z" transform="translate(-1037.715 -472.952)" fill="#3a435c"/>
    </g>
    <g id="パス_80923" data-name="パス 80923" transform="translate(1006.945 472.951)">
      <path id="パス_80930" data-name="パス 80930" d="M1028.011,491.63h-19.58a1.488,1.488,0,0,1-1.221-2.337l6.987-10.038a1.487,1.487,0,0,1,.873-.6l23.52-5.666a1.488,1.488,0,0,1,1.57,2.3l-10.926,15.7A1.489,1.489,0,0,1,1028.011,491.63Zm-16.732-2.975h15.956l8.248-11.855-19.167,4.617Z" transform="translate(-1006.945 -472.951)" fill="#3a435c"/>
    </g>
    <g id="パス_80924" data-name="パス 80924" transform="translate(1013.933 490.24)">
      <path id="パス_80931" data-name="パス 80931" d="M1039,522.169a1.436,1.436,0,0,1-.349-.042l-23.523-5.664a1.488,1.488,0,0,1-1.139-1.446V491.874a1.487,1.487,0,1,1,2.975,0v21.971L1039,519.152l22.039-5.307V491.874a1.487,1.487,0,1,1,2.975,0v23.143a1.487,1.487,0,0,1-1.138,1.446l-23.527,5.664A1.429,1.429,0,0,1,1039,522.169Z" transform="translate(-1013.992 -490.387)" fill="#3a435c"/>
    </g>
    <g id="パス_80925" data-name="パス 80925" transform="translate(1037.459 472.951)">
      <path id="パス_80933" data-name="パス 80933" d="M1069.717,491.63h-19.584a1.489,1.489,0,0,1-1.221-.638l-10.928-15.7a1.488,1.488,0,0,1,1.57-2.3l23.524,5.666a1.49,1.49,0,0,1,.873.6l6.989,10.038a1.489,1.489,0,0,1-1.222,2.337Zm-18.808-2.975h15.96l-5.038-7.238-19.17-4.617Z" transform="translate(-1037.718 -472.951)" fill="#3a435c"/>
    </g>
  </g>
</svg>
