<svg xmlns="http://www.w3.org/2000/svg" xmlns:xlink="http://www.w3.org/1999/xlink" width="56" height="56" viewBox="0 0 56 56"><defs><clipPath id="a"><path d="M211.249,422.5a26.5,26.5,0,1,1,26.5,26.5A26.5,26.5,0,0,1,211.249,422.5Z" fill="none"/></clipPath></defs><g transform="translate(-209.749 -394.501)"><g clip-path="url(#a)"><path d="M248.375,437.99v-7.427a3.242,3.242,0,0,1,1.813-2.96,10.508,10.508,0,0,1,4.369-.972,10.337,10.337,0,0,1,4.368.972,3.242,3.242,0,0,1,1.813,2.96v7.427" fill="none" stroke="#4f7df0" stroke-width="3"/><circle cx="3.511" cy="3.511" r="3.511" transform="translate(251.046 415.886)" fill="none" stroke="#4f7df0" stroke-width="3"/><path d="M214.76,437.99v-7.427a3.24,3.24,0,0,1,1.813-2.96,10.5,10.5,0,0,1,4.368-.972,10.334,10.334,0,0,1,4.368.972,3.24,3.24,0,0,1,1.813,2.96v7.427" fill="none" stroke="#4f7df0" stroke-width="3"/><circle cx="3.511" cy="3.511" r="3.511" transform="translate(217.43 415.886)" fill="none" stroke="#4f7df0" stroke-width="3"/><path d="M224.452,453.921V429.007a5.587,5.587,0,0,1,3.9-5.088,27.424,27.424,0,0,1,9.4-1.671,26.976,26.976,0,0,1,9.4,1.671,5.586,5.586,0,0,1,3.9,5.088v24.914" fill="#fff" stroke="#283349" stroke-width="3"/><circle cx="6.036" cy="6.036" r="6.036" transform="translate(231.713 405.496)" fill="none" stroke="#283349" stroke-width="3"/></g><circle cx="28" cy="28" r="28" transform="translate(209.749 394.501)" fill="none"/><circle cx="26.5" cy="26.5" r="26.5" transform="translate(211.249 396.001)" fill="none" stroke="#283349" stroke-width="3"/></g></svg>