<svg xmlns="http://www.w3.org/2000/svg" width="48" height="49.057" viewBox="0 0 48 49.057"><g transform="translate(-1013 -389.473)"><rect width="48" height="48" transform="translate(1013 390)" fill="none"/><g transform="translate(654 226)"><g transform="translate(359 175)" fill="#fff" stroke="#3a435c" stroke-linecap="round" stroke-width="3"><rect width="48" height="26" rx="5" stroke="none"/><rect x="1.5" y="1.5" width="45" height="23" rx="3.5" fill="none"/></g><path d="M369.563,180.721H363.87v9.813" transform="translate(2 0.779)" fill="none" stroke="#3a435c" stroke-linecap="round" stroke-linejoin="round" stroke-width="3"/><path d="M3,0H0V5.693" transform="translate(365.869 194.5) rotate(-90)" fill="none" stroke="#3a435c" stroke-linecap="round" stroke-linejoin="round" stroke-width="3"/><path d="M369.563,180.721H363.87v9.813" transform="translate(764.105 375.221) rotate(180)" fill="none" stroke="#3a435c" stroke-linecap="round" stroke-linejoin="round" stroke-width="3"/><path d="M3,0H0V5.693" transform="translate(400.236 181.5) rotate(90)" fill="none" stroke="#3a435c" stroke-linecap="round" stroke-linejoin="round" stroke-width="3"/></g><g transform="translate(1031 407)" fill="#fff" stroke="#3a435c" stroke-width="3"><ellipse cx="6.5" cy="7" rx="6.5" ry="7" stroke="none"/><ellipse cx="6.5" cy="7" rx="5" ry="5.5" fill="none"/></g><g transform="translate(259 238)"><path d="M-18236.7,21092.594l-3.408,3.408,3.408,3.406" transform="translate(18996 -20939)" fill="none" stroke="#4f7df0" stroke-linecap="round" stroke-linejoin="round" stroke-width="3"/><path d="M-18226.545,21096h43.355" transform="translate(18983.652 -20939)" fill="none" stroke="#4f7df0" stroke-linecap="round" stroke-width="3"/><rect width="48" height="48" transform="translate(754 152)" fill="none"/></g><g transform="translate(1014.896 436.594)"><path d="M-18240.1,21092.594l3.408,3.408-3.408,3.406" transform="translate(18281.26 -21099.594)" fill="none" stroke="#4f7df0" stroke-linecap="round" stroke-linejoin="round" stroke-width="3"/><path d="M-18183.189,21096h-43.355" transform="translate(18226.545 -21099.594)" fill="none" stroke="#4f7df0" stroke-linecap="round" stroke-width="3"/></g><rect width="48" height="48" transform="translate(1013 390)" fill="none"/></g></svg>