<svg xmlns="http://www.w3.org/2000/svg" xmlns:xlink="http://www.w3.org/1999/xlink" width="48" height="50" viewBox="0 0 48 50"><defs><clipPath id="a"><rect width="48" height="50" fill="none"/></clipPath></defs><g clip-path="url(#a)"><g transform="translate(-359 -163)"><g transform="translate(359 163)" fill="#fff" stroke="#3a435c" stroke-linecap="round" stroke-width="3"><rect width="48" height="15" rx="5" stroke="none"/><rect x="1.5" y="1.5" width="45" height="12" rx="3.5" fill="none"/></g><rect width="5" height="5" transform="translate(364 168)" fill="#3a435c"/><rect width="5" height="5" transform="translate(371 168)" fill="#3a435c"/><rect width="3" height="3" rx="1.5" transform="translate(389 169)" fill="#4f7df0"/><rect width="3" height="3" rx="1.5" transform="translate(394 169)" fill="#4f7df0"/><rect width="3" height="3" rx="1.5" transform="translate(399 169)" fill="#4f7df0"/></g><g transform="translate(-359 -146)"><g transform="translate(359 163)" fill="#fff" stroke="#3a435c" stroke-linecap="round" stroke-width="3"><rect width="48" height="15" rx="5" stroke="none"/><rect x="1.5" y="1.5" width="45" height="12" rx="3.5" fill="none"/></g><rect width="5" height="5" transform="translate(364 168)" fill="#3a435c"/><rect width="5" height="5" transform="translate(371 168)" fill="#3a435c"/><rect width="3" height="3" rx="1.5" transform="translate(389 169)" fill="#4f7df0"/><rect width="3" height="3" rx="1.5" transform="translate(394 169)" fill="#4f7df0"/><rect width="3" height="3" rx="1.5" transform="translate(399 169)" fill="#4f7df0"/></g><g transform="translate(-359 -129)"><g transform="translate(359 163)" fill="#fff" stroke="#3a435c" stroke-linecap="round" stroke-width="3"><rect width="48" height="15" rx="5" stroke="none"/><rect x="1.5" y="1.5" width="45" height="12" rx="3.5" fill="none"/></g><rect width="5" height="5" transform="translate(364 168)" fill="#3a435c"/><rect width="5" height="5" transform="translate(371 168)" fill="#3a435c"/><rect width="3" height="3" rx="1.5" transform="translate(389 169)" fill="#4f7df0"/><rect width="3" height="3" rx="1.5" transform="translate(394 169)" fill="#4f7df0"/><rect width="3" height="3" rx="1.5" transform="translate(399 169)" fill="#4f7df0"/></g></g></svg>