<svg xmlns="http://www.w3.org/2000/svg" width="68" height="40" viewBox="0 0 68 40"><defs><style>.a{fill:#f7f8f9;stroke:#e5e5e5;}.b{fill:none;}.c{fill:#c6c6c6;}.d{stroke:none;}</style></defs><g transform="translate(-162 -1024)"><g class="a" transform="translate(162 1024)"><rect class="d" width="68" height="40"/><rect class="b" x="0.5" y="0.5" width="67" height="39"/></g><g transform="translate(184 1032)"><rect class="b" width="24" height="24"/><path class="c" d="M20,4H4A2.006,2.006,0,0,0,2,6V18a2.006,2.006,0,0,0,2,2h9V18H4V8l6.94,4.34a1.981,1.981,0,0,0,2.12,0L20,8v5h2V6A2.006,2.006,0,0,0,20,4Zm-8,7L4,6H20Zm7,5.21a.5.5,0,0,1,.85-.35l2.79,2.79a.5.5,0,0,1,0,.71l-2.79,2.79a.5.5,0,0,1-.85-.36V20H16a1,1,0,0,1-1-1h0a1,1,0,0,1,1-1h3Z"/></g></g></svg>