<svg xmlns="http://www.w3.org/2000/svg" width="93" height="66" viewBox="0 0 93 66">
  <g id="グループ_11174" data-name="グループ 11174" transform="translate(-364 -78)">
    <g id="長方形_4" data-name="長方形 4" transform="translate(364 78)" fill="#f7f8f9" stroke="#e5e5e5" stroke-width="1">
      <rect width="93" height="66" stroke="none"/>
      <rect x="0.5" y="0.5" width="92" height="65" fill="none"/>
    </g>
    <g id="グループ_11173" data-name="グループ 11173" transform="translate(207 -84)">
      <rect id="長方形_2659" data-name="長方形 2659" width="75" height="50" transform="translate(166 170)" fill="#fff"/>
      <rect id="長方形_8574" data-name="長方形 8574" width="67" height="29" transform="translate(170 174)" fill="#dedede"/>
      <path id="パス_3582" data-name="パス 3582" d="M22,19.889V5.111A2.117,2.117,0,0,0,19.889,3H5.111A2.117,2.117,0,0,0,3,5.111V19.889A2.117,2.117,0,0,0,5.111,22H19.889A2.117,2.117,0,0,0,22,19.889ZM9.228,14.59l2.217,2.671,3.272-4.212a.53.53,0,0,1,.844.011L19.266,18a.528.528,0,0,1-.422.844H6.188a.526.526,0,0,1-.412-.855L8.4,14.611A.521.521,0,0,1,9.228,14.59Z" transform="translate(191 175)" fill="#fff"/>
      <rect id="長方形_2656" data-name="長方形 2656" width="67" height="10" transform="translate(170 206)" fill="#dedede"/>
      <rect id="長方形_2659-2" data-name="長方形 2659" width="12" height="4" rx="2" transform="translate(173 209)" fill="#fff"/>
      <rect id="長方形_8573" data-name="長方形 8573" width="47" height="4" transform="translate(187 209)" fill="#fff"/>
    </g>
  </g>
</svg>
