<svg xmlns="http://www.w3.org/2000/svg" width="93" height="66" viewBox="0 0 93 66"><defs><style>.a{fill:#f7f8f9;stroke:#e5e5e5;}.b{fill:#fff;}.c{fill:#dedede;}.d{stroke:none;}.e{fill:none;}</style></defs><g transform="translate(-161 -296)"><g class="a" transform="translate(161 296)"><rect class="d" width="93" height="66"/><rect class="e" x="0.5" y="0.5" width="92" height="65"/></g><g transform="translate(-6 48)"><rect class="b" width="75" height="50" transform="translate(176 256)"/><g transform="translate(182.256 258.065)"><g transform="translate(3 3)"><rect class="c" width="65" height="4" transform="translate(-3.256 28)"/><rect class="c" width="65" height="4" transform="translate(-3.256 35)"/></g><path class="c" d="M17.881,5.357a2.364,2.364,0,0,0,.69,1.7,2.208,2.208,0,0,0,1.69.679,2.358,2.358,0,0,0,2.381-2.381,2.3,2.3,0,0,0-.726-1.679,2.291,2.291,0,0,0-1.655-.7,2.241,2.241,0,0,0-1.667.7,2.386,2.386,0,0,0-.714,1.679m7.738,0A9.232,9.232,0,0,1,24.262,9.6a23.536,23.536,0,0,1-2.679,4.024l-1.321,1.56c-.429-.44-.929-1.024-1.524-1.726a25.969,25.969,0,0,1-2.369-3.69,9.409,9.409,0,0,1-1.464-4.4,5.146,5.146,0,0,1,1.548-3.8,5.389,5.389,0,0,1,7.583,0,5.179,5.179,0,0,1,1.583,3.8m-1.19,8.429v8.833A2.487,2.487,0,0,1,22.048,25H5.381a2.271,2.271,0,0,1-1.655-.726A2.271,2.271,0,0,1,3,22.619V5.952A2.271,2.271,0,0,1,3.726,4.3a2.271,2.271,0,0,1,1.655-.726h7.381a10.566,10.566,0,0,0-.238,1.786,11.251,11.251,0,0,0,1.524,5,29.313,29.313,0,0,0,2.536,4.179c.7.881,1.333,1.631,1.929,2.262l1.75,1.893L22.048,16.8c1.512-1.917,2.31-2.94,2.381-3.012" transform="translate(17.745 1.934)"/></g></g></g></svg>