<svg xmlns="http://www.w3.org/2000/svg" width="93" height="66" viewBox="0 0 93 66"><defs><style>.a{fill:#f7f8f9;stroke:#e5e5e5;}.b{fill:#dedede;}.c{fill:#fff;}.d{fill:none;}.e{stroke:none;}</style></defs><g transform="translate(-161 -78)"><g class="a" transform="translate(161 78)"><rect class="e" width="93" height="66"/><rect class="d" x="0.5" y="0.5" width="92" height="65"/></g><g transform="translate(5 -84)"><rect class="b" width="77" height="50" transform="translate(165 170)"/><g transform="translate(170.859 176.835)"><rect class="c" width="32" height="10" rx="5" transform="translate(0.141 27.166)"/><rect class="c" width="35" height="8" transform="translate(0.141 0.166)"/><rect class="c" width="35" height="4" transform="translate(0.141 12.166)"/><rect class="c" width="35" height="4" transform="translate(0.141 19.166)"/><g transform="translate(40.141 6.165)"><path class="d" d="M0,0H25V25H0Z" transform="translate(0 0)"/><path class="c" d="M28,25.222V5.778A2.786,2.786,0,0,0,25.222,3H5.778A2.786,2.786,0,0,0,3,5.778V25.222A2.786,2.786,0,0,0,5.778,28H25.222A2.786,2.786,0,0,0,28,25.222ZM11.194,18.25l2.917,3.514,4.306-5.542a.7.7,0,0,1,1.111.014l4.875,6.5a.694.694,0,0,1-.556,1.111H7.194a.692.692,0,0,1-.542-1.125l3.458-4.444A.685.685,0,0,1,11.194,18.25Z" transform="translate(-3 -3)"/></g></g></g></g></svg>