<svg xmlns="http://www.w3.org/2000/svg" width="93" height="66" viewBox="0 0 93 66">
  <g id="グループ_28599" data-name="グループ 28599" transform="translate(-1527 22653)">
    <g id="長方形_3116" data-name="長方形 3116" transform="translate(1527 -22653)" fill="#f7f8f9" stroke="#e5e5e5" stroke-width="1">
      <rect width="93" height="66" stroke="none"/>
      <rect x="0.5" y="0.5" width="92" height="65" fill="none"/>
    </g>
    <path id="パス_849" data-name="パス 849" d="M29.989,9.8v8.4a2.807,2.807,0,0,1-2.8,2.8h-1.4V18.2h1.4V9.8H4.8v8.4h8.4v2.8H4.8A2.807,2.807,0,0,1,2,18.2V9.8A2.807,2.807,0,0,1,4.8,7H27.19A2.807,2.807,0,0,1,29.989,9.8ZM18.849,22.38a.7.7,0,0,0,1.273,0L21,20.421l1.959-.882a.7.7,0,0,0,0-1.273L21,17.384l-.882-1.959a.7.7,0,0,0-1.273,0l-.882,1.959-1.959.882a.7.7,0,0,0,0,1.273l1.959.882ZM22.628,16a.4.4,0,0,0,.728,0l.5-1.12,1.12-.5a.4.4,0,0,0,0-.728l-1.12-.5-.5-1.12a.4.4,0,0,0-.728,0l-.5,1.12-1.12.5a.4.4,0,0,0,0,.728l1.12.5Z" transform="translate(1558 -22635)" fill="#c6c6c6"/>
  </g>
</svg>
