<svg xmlns="http://www.w3.org/2000/svg" width="93" height="66" viewBox="0 0 93 66">
  <g id="グループ_28593" data-name="グループ 28593" transform="translate(-161 -612)">
    <g id="長方形_3116" data-name="長方形 3116" transform="translate(161 612)" fill="#f7f8f9" stroke="#e5e5e5" stroke-width="1">
      <rect width="93" height="66" stroke="none"/>
      <rect x="0.5" y="0.5" width="92" height="65" fill="none"/>
    </g>
    <path id="パス_1056" data-name="パス 1056" d="M2.212-1.352H-5.349l-.188-1.272L-7.7-2.011v-3.6H-6.15v2.143H2.212Zm5.347-2.12V-6.063H2.212v-2H6.546v-2.544H2.212v-2.1H-.567v2.1H-4.736v2.544H-.567v2H-5.749V-8.277H-7.7v-4.4h-2.567v4.4h-1.107q.212-1.413.353-2.827l-2.332-.377A28.645,28.645,0,0,1-14.7-3.9a15,15,0,0,1,1.979,1.272,19.055,19.055,0,0,0,.872-2.991h1.578v4.334c-1.578.424-3.039.8-4.193,1.06l.66,2.685c1.06-.306,2.261-.66,3.533-1.036V9.3H-7.7V.65C-7.021.438-6.315.2-5.631-.009V1.239h2.85L-4.807,2.488a18.841,18.841,0,0,1,2.685,3.7L.116,4.749a18.474,18.474,0,0,0-2.827-3.51H2.212V6.115c0,.306-.094.377-.495.4-.377,0-1.649,0-2.827-.047A10.2,10.2,0,0,1-.261,9.248,10.692,10.692,0,0,0,3.79,8.777c.942-.448,1.178-1.2,1.178-2.615V1.239H7.347V-1.352H4.968v-2.12ZM30.619-3.5v-2.9H21.362c.236-2.191.259-4.358.283-6.289H18.583c-.024,1.931,0,4.075-.236,6.289H9.773v2.9h8.1A14.12,14.12,0,0,1,9.326,6.869a8.3,8.3,0,0,1,2.1,2.379A16.213,16.213,0,0,0,20.231-.763c1.837,4.546,4.57,7.985,8.833,9.987a11.273,11.273,0,0,1,2.073-2.638C26.733,4.8,23.882,1.1,22.328-3.5Z" transform="translate(199.7 646.705)" fill="#c6c6c6"/>
  </g>
</svg>
