<svg xmlns="http://www.w3.org/2000/svg" width="93" height="66" viewBox="0 0 93 66">
  <g id="グループ_28600" data-name="グループ 28600" transform="translate(-1425 22653)">
    <g id="長方形_3116" data-name="長方形 3116" transform="translate(1425 -22653)" fill="#f7f8f9" stroke="#e5e5e5" stroke-width="1">
      <rect width="93" height="66" stroke="none"/>
      <rect x="0.5" y="0.5" width="92" height="65" fill="none"/>
    </g>
    <path id="パス_855" data-name="パス 855" d="M12.036,28.818H14.8v4.636a1.542,1.542,0,1,0,3.085,0V28.818h2.761a.765.765,0,0,0,.54-1.314l-4.3-4.312a.763.763,0,0,0-1.1,0l-4.3,4.312A.773.773,0,0,0,12.036,28.818ZM20.643,7.182H17.882V2.545a1.542,1.542,0,1,0-3.085,0V7.182H12.036A.773.773,0,0,0,11.481,8.5l4.3,4.312a.763.763,0,0,0,1.1,0l4.3-4.312a.765.765,0,0,0-.54-1.314ZM4,18a1.548,1.548,0,0,0,1.542,1.545H27.136a1.545,1.545,0,0,0,0-3.091H5.542A1.548,1.548,0,0,0,4,18Z" transform="translate(1455 -22638)" fill="#ccc"/>
  </g>
</svg>
