<svg xmlns="http://www.w3.org/2000/svg" width="93" height="66" viewBox="0 0 93 66">
  <g id="グループ_28600" data-name="グループ 28600" transform="translate(-1425 22653)">
    <g id="長方形_3116" data-name="長方形 3116" transform="translate(1425 -22653)" fill="#f7f8f9" stroke="#e5e5e5" stroke-width="1">
      <rect width="93" height="66" stroke="none"/>
      <rect x="0.5" y="0.5" width="92" height="65" fill="none"/>
    </g>
    <path id="パス_871" data-name="パス 871" d="M13.75,11.5A3.75,3.75,0,1,0,10,7.75,3.761,3.761,0,0,0,13.75,11.5Zm0,3.75A3.75,3.75,0,1,0,17.5,19,3.761,3.761,0,0,0,13.75,15.25Zm0,11.25a3.75,3.75,0,1,0,3.75,3.75A3.761,3.761,0,0,0,13.75,26.5Z" transform="translate(1458 -22639)" fill="#ccc"/>
  </g>
</svg>
