<svg xmlns="http://www.w3.org/2000/svg" width="93" height="66" viewBox="0 0 93 66">
  <g id="グループ_28600" data-name="グループ 28600" transform="translate(-1425 22653)">
    <g id="長方形_3116" data-name="長方形 3116" transform="translate(1425 -22653)" fill="#f7f8f9" stroke="#e5e5e5" stroke-width="1">
      <rect width="93" height="66" stroke="none"/>
      <rect x="0.5" y="0.5" width="92" height="65" fill="none"/>
    </g>
    <path id="パス_1057" data-name="パス 1057" d="M16.433-2.624V-5.8H6.289c.258-2.4.284-4.775.31-6.891H3.244c-.026,2.116,0,4.465-.258,6.891h-9.4v3.175H2.469A15.473,15.473,0,0,1-6.9,8.733,9.094,9.094,0,0,1-4.6,11.34,17.766,17.766,0,0,0,5.05.37c2.013,4.981,5.007,8.75,9.679,10.944A12.352,12.352,0,0,1,17,8.423C12.174,6.462,9.051,2.409,7.348-2.624Z" transform="translate(1466.9 -22619.311)" fill="#c6c6c6"/>
  </g>
</svg>
