<svg xmlns="http://www.w3.org/2000/svg" width="93" height="66" viewBox="0 0 93 66">
  <g id="グループ_28593" data-name="グループ 28593" transform="translate(-161 -612)">
    <g id="長方形_3116" data-name="長方形 3116" transform="translate(161 612)" fill="#f7f8f9" stroke="#e5e5e5" stroke-width="1">
      <rect width="93" height="66" stroke="none"/>
      <rect x="0.5" y="0.5" width="92" height="65" fill="none"/>
    </g>
    <path id="パス_1059" data-name="パス 1059" d="M3.7-12.5V7.695c0,.5-.209.681-.786.681C2.343,8.4.405,8.4-1.3,8.323A14.013,14.013,0,0,1-.066,11.57a16.013,16.013,0,0,0,5.552-.6c1.152-.5,1.6-1.362,1.6-3.273V-12.5ZM9.937-5.66A45.022,45.022,0,0,1,14.52,6.254l3.4-1.336C17.27,1.646,15.122-3.094,13-6.813ZM-3.156-6.525c-.55,3.4-1.859,7.987-3.954,10.632A26.228,26.228,0,0,1-4.072,5.731C-1.9,2.85-.485-2.02.405-5.922Z" transform="translate(202.11 645.494)" fill="#c6c6c6"/>
  </g>
</svg>
